<svg xmlns="http://www.w3.org/2000/svg" version="1.1" xmlns:xlink="http://www.w3.org/1999/xlink" xmlns:svgjs="http://svgjs.com/svgjs" width="1440" height="720" preserveAspectRatio="none" viewBox="0 0 1440 720"><g mask="url(&quot;#SvgjsMask1024&quot;)" fill="none"><rect width="1440" height="720" x="0" y="0" fill="url(#SvgjsLinearGradient1025)"></rect><g mask="url(&quot;#SvgjsMask1026&quot;)"><path d="M757.5 337.5L772.5 352.5M322.5 367.5L337.5 367.5M472.5 322.5L487.5 337.5L502.5 337.5L517.5 337.5L532.5 337.5L547.5 337.5L562.5 337.5L577.5 337.5L592.5 337.5M697.5 337.5L712.5 352.5L727.5 352.5L742.5 352.5L757.5 352.5L772.5 367.5L787.5 367.5L802.5 367.5L817.5 367.5L832.5 367.5L847.5 367.5L862.5 367.5L877.5 367.5L892.5 367.5L907.5 367.5M652.5 337.5L667.5 352.5L682.5 352.5L697.5 352.5L712.5 367.5L727.5 367.5M412.5 322.5L427.5 337.5L442.5 352.5L457.5 352.5L472.5 352.5L487.5 352.5M457.5 322.5L472.5 337.5M397.5 322.5L412.5 337.5L427.5 352.5L442.5 367.5L457.5 367.5L472.5 367.5L487.5 367.5M772.5 337.5L787.5 322.5L802.5 322.5L817.5 322.5L832.5 322.5M622.5 322.5L637.5 322.5L652.5 322.5M142.5 382.5L157.5 367.5L172.5 367.5M682.5 337.5L697.5 322.5L712.5 322.5M742.5 337.5L757.5 322.5L772.5 322.5M787.5 337.5L802.5 352.5M667.5 337.5L682.5 322.5M367.5 352.5L382.5 352.5L397.5 352.5L412.5 352.5L427.5 367.5L442.5 382.5L457.5 382.5L472.5 382.5L487.5 382.5M-7.5 367.5L7.5 367.5L22.5 367.5L37.5 367.5L52.5 367.5L67.5 367.5L82.5 367.5L97.5 367.5L112.5 382.5L127.5 382.5L142.5 382.5L157.5 382.5L172.5 382.5L187.5 382.5L202.5 367.5L217.5 367.5L232.5 367.5L247.5 367.5L262.5 367.5L277.5 367.5L292.5 367.5L307.5 367.5L322.5 367.5L337.5 352.5L352.5 352.5L367.5 352.5L382.5 337.5L397.5 322.5L412.5 322.5L427.5 322.5L442.5 322.5L457.5 322.5L472.5 322.5L487.5 322.5L502.5 322.5L517.5 322.5L532.5 322.5L547.5 322.5L562.5 322.5L577.5 322.5L592.5 322.5L607.5 322.5L622.5 322.5L637.5 337.5L652.5 337.5L667.5 337.5L682.5 337.5L697.5 337.5L712.5 337.5L727.5 337.5L742.5 337.5L757.5 337.5L772.5 337.5L787.5 337.5L802.5 337.5L817.5 352.5L832.5 352.5L847.5 352.5L862.5 352.5L877.5 337.5L892.5 337.5L907.5 337.5L922.5 337.5L937.5 337.5L952.5 337.5" stroke="rgba(0, 187, 211, 1)" stroke-width="2.5"></path><path d="M948.75 337.5 a3.75 3.75 0 1 0 7.5 0 a3.75 3.75 0 1 0 -7.5 0zM768.75 352.5 a3.75 3.75 0 1 0 7.5 0 a3.75 3.75 0 1 0 -7.5 0zM333.75 367.5 a3.75 3.75 0 1 0 7.5 0 a3.75 3.75 0 1 0 -7.5 0zM588.75 337.5 a3.75 3.75 0 1 0 7.5 0 a3.75 3.75 0 1 0 -7.5 0zM903.75 367.5 a3.75 3.75 0 1 0 7.5 0 a3.75 3.75 0 1 0 -7.5 0zM723.75 367.5 a3.75 3.75 0 1 0 7.5 0 a3.75 3.75 0 1 0 -7.5 0zM483.75 352.5 a3.75 3.75 0 1 0 7.5 0 a3.75 3.75 0 1 0 -7.5 0zM468.75 337.5 a3.75 3.75 0 1 0 7.5 0 a3.75 3.75 0 1 0 -7.5 0zM483.75 367.5 a3.75 3.75 0 1 0 7.5 0 a3.75 3.75 0 1 0 -7.5 0zM828.75 322.5 a3.75 3.75 0 1 0 7.5 0 a3.75 3.75 0 1 0 -7.5 0zM648.75 322.5 a3.75 3.75 0 1 0 7.5 0 a3.75 3.75 0 1 0 -7.5 0zM168.75 367.5 a3.75 3.75 0 1 0 7.5 0 a3.75 3.75 0 1 0 -7.5 0zM708.75 322.5 a3.75 3.75 0 1 0 7.5 0 a3.75 3.75 0 1 0 -7.5 0zM768.75 322.5 a3.75 3.75 0 1 0 7.5 0 a3.75 3.75 0 1 0 -7.5 0zM798.75 352.5 a3.75 3.75 0 1 0 7.5 0 a3.75 3.75 0 1 0 -7.5 0zM678.75 322.5 a3.75 3.75 0 1 0 7.5 0 a3.75 3.75 0 1 0 -7.5 0zM483.75 382.5 a3.75 3.75 0 1 0 7.5 0 a3.75 3.75 0 1 0 -7.5 0z" fill="rgba(0, 187, 211, 1)"></path><path d="M97.5 352.5L112.5 337.5L127.5 337.5M52.5 352.5L67.5 337.5L82.5 337.5L97.5 337.5M37.5 352.5L52.5 337.5M-7.5 352.5L7.5 352.5L22.5 352.5L37.5 352.5L52.5 352.5L67.5 352.5L82.5 352.5L97.5 352.5L112.5 352.5L127.5 352.5L142.5 352.5L157.5 352.5L172.5 352.5L187.5 352.5" stroke="rgba(0, 187, 211, 1)" stroke-width="2.5"></path><path d="M183.75 352.5 a3.75 3.75 0 1 0 7.5 0 a3.75 3.75 0 1 0 -7.5 0zM123.75 337.5 a3.75 3.75 0 1 0 7.5 0 a3.75 3.75 0 1 0 -7.5 0zM93.75 337.5 a3.75 3.75 0 1 0 7.5 0 a3.75 3.75 0 1 0 -7.5 0zM48.75 337.5 a3.75 3.75 0 1 0 7.5 0 a3.75 3.75 0 1 0 -7.5 0z" fill="rgba(0, 187, 211, 1)"></path><path d="M262.5 412.5L277.5 397.5L292.5 397.5M367.5 412.5L382.5 397.5M247.5 397.5L262.5 397.5M337.5 412.5L352.5 397.5L367.5 397.5L382.5 382.5M322.5 412.5L337.5 397.5L352.5 382.5L367.5 382.5L382.5 367.5M232.5 397.5L247.5 382.5L262.5 382.5M-7.5 382.5L7.5 382.5L22.5 382.5L37.5 382.5L52.5 382.5L67.5 382.5L82.5 382.5L97.5 382.5L112.5 397.5L127.5 397.5L142.5 397.5L157.5 397.5L172.5 397.5L187.5 397.5L202.5 397.5L217.5 397.5L232.5 397.5L247.5 397.5L262.5 412.5L277.5 412.5L292.5 412.5L307.5 412.5L322.5 412.5L337.5 412.5L352.5 412.5L367.5 412.5L382.5 412.5" stroke="rgba(101, 13, 94, 1)" stroke-width="2.5"></path><path d="M378.75 412.5 a3.75 3.75 0 1 0 7.5 0 a3.75 3.75 0 1 0 -7.5 0zM288.75 397.5 a3.75 3.75 0 1 0 7.5 0 a3.75 3.75 0 1 0 -7.5 0zM378.75 397.5 a3.75 3.75 0 1 0 7.5 0 a3.75 3.75 0 1 0 -7.5 0zM258.75 397.5 a3.75 3.75 0 1 0 7.5 0 a3.75 3.75 0 1 0 -7.5 0zM378.75 382.5 a3.75 3.75 0 1 0 7.5 0 a3.75 3.75 0 1 0 -7.5 0zM378.75 367.5 a3.75 3.75 0 1 0 7.5 0 a3.75 3.75 0 1 0 -7.5 0zM258.75 382.5 a3.75 3.75 0 1 0 7.5 0 a3.75 3.75 0 1 0 -7.5 0z" fill="rgba(101, 13, 94, 1)"></path><path d="M307.5 337.5L322.5 322.5L337.5 322.5L352.5 322.5L367.5 322.5M952.5 307.5L967.5 322.5L982.5 322.5L997.5 322.5L1012.5 322.5L1027.5 322.5L1042.5 322.5L1057.5 337.5L1072.5 337.5L1087.5 337.5L1102.5 337.5L1117.5 337.5L1132.5 337.5L1147.5 337.5L1162.5 337.5L1177.5 337.5L1192.5 337.5L1207.5 337.5L1222.5 337.5L1237.5 352.5M472.5 307.5L487.5 292.5L502.5 292.5L517.5 292.5L532.5 292.5L547.5 292.5L562.5 292.5L577.5 292.5L592.5 292.5L607.5 292.5L622.5 292.5M637.5 307.5L652.5 292.5L667.5 292.5M1027.5 307.5L1042.5 292.5L1057.5 292.5L1072.5 292.5L1087.5 292.5M967.5 307.5L982.5 292.5M757.5 307.5L772.5 292.5L787.5 292.5L802.5 292.5M22.5 337.5L37.5 337.5M277.5 337.5L292.5 322.5M907.5 307.5L922.5 322.5L937.5 322.5L952.5 322.5M862.5 307.5L877.5 292.5L892.5 292.5L907.5 292.5L922.5 292.5M187.5 322.5L202.5 337.5M262.5 322.5L277.5 322.5M742.5 307.5L757.5 292.5L772.5 277.5L787.5 277.5L802.5 277.5L817.5 277.5L832.5 277.5L847.5 277.5L862.5 277.5L877.5 277.5L892.5 277.5L907.5 262.5L922.5 262.5L937.5 247.5L952.5 232.5M727.5 307.5L742.5 322.5M1057.5 307.5L1072.5 322.5M877.5 307.5L892.5 322.5L907.5 322.5M292.5 337.5L307.5 352.5L322.5 352.5M-7.5 337.5L7.5 337.5L22.5 337.5L37.5 322.5L52.5 322.5L67.5 322.5L82.5 322.5L97.5 322.5L112.5 322.5L127.5 322.5L142.5 322.5L157.5 322.5L172.5 322.5L187.5 322.5L202.5 322.5L217.5 322.5L232.5 322.5L247.5 322.5L262.5 322.5L277.5 337.5L292.5 337.5L307.5 337.5L322.5 337.5L337.5 337.5L352.5 337.5L367.5 337.5L382.5 322.5L397.5 307.5L412.5 307.5L427.5 307.5L442.5 307.5L457.5 307.5L472.5 307.5L487.5 307.5L502.5 307.5L517.5 307.5L532.5 307.5L547.5 307.5L562.5 307.5L577.5 307.5L592.5 307.5L607.5 307.5L622.5 307.5L637.5 307.5L652.5 307.5L667.5 307.5L682.5 307.5L697.5 307.5L712.5 307.5L727.5 307.5L742.5 307.5L757.5 307.5L772.5 307.5L787.5 307.5L802.5 307.5L817.5 307.5L832.5 307.5L847.5 307.5L862.5 307.5L877.5 307.5L892.5 307.5L907.5 307.5L922.5 307.5L937.5 307.5L952.5 307.5L967.5 307.5L982.5 307.5L997.5 307.5L1012.5 307.5L1027.5 307.5L1042.5 307.5L1057.5 307.5L1072.5 307.5L1087.5 322.5" stroke="rgba(0, 187, 211, 1)" stroke-width="2.5"></path><path d="M1083.75 322.5 a3.75 3.75 0 1 0 7.5 0 a3.75 3.75 0 1 0 -7.5 0zM363.75 322.5 a3.75 3.75 0 1 0 7.5 0 a3.75 3.75 0 1 0 -7.5 0zM1233.75 352.5 a3.75 3.75 0 1 0 7.5 0 a3.75 3.75 0 1 0 -7.5 0zM618.75 292.5 a3.75 3.75 0 1 0 7.5 0 a3.75 3.75 0 1 0 -7.5 0zM663.75 292.5 a3.75 3.75 0 1 0 7.5 0 a3.75 3.75 0 1 0 -7.5 0zM1083.75 292.5 a3.75 3.75 0 1 0 7.5 0 a3.75 3.75 0 1 0 -7.5 0zM978.75 292.5 a3.75 3.75 0 1 0 7.5 0 a3.75 3.75 0 1 0 -7.5 0zM798.75 292.5 a3.75 3.75 0 1 0 7.5 0 a3.75 3.75 0 1 0 -7.5 0zM33.75 337.5 a3.75 3.75 0 1 0 7.5 0 a3.75 3.75 0 1 0 -7.5 0zM288.75 322.5 a3.75 3.75 0 1 0 7.5 0 a3.75 3.75 0 1 0 -7.5 0zM948.75 322.5 a3.75 3.75 0 1 0 7.5 0 a3.75 3.75 0 1 0 -7.5 0zM918.75 292.5 a3.75 3.75 0 1 0 7.5 0 a3.75 3.75 0 1 0 -7.5 0zM198.75 337.5 a3.75 3.75 0 1 0 7.5 0 a3.75 3.75 0 1 0 -7.5 0zM273.75 322.5 a3.75 3.75 0 1 0 7.5 0 a3.75 3.75 0 1 0 -7.5 0zM948.75 232.5 a3.75 3.75 0 1 0 7.5 0 a3.75 3.75 0 1 0 -7.5 0zM738.75 322.5 a3.75 3.75 0 1 0 7.5 0 a3.75 3.75 0 1 0 -7.5 0zM1068.75 322.5 a3.75 3.75 0 1 0 7.5 0 a3.75 3.75 0 1 0 -7.5 0zM903.75 322.5 a3.75 3.75 0 1 0 7.5 0 a3.75 3.75 0 1 0 -7.5 0zM318.75 352.5 a3.75 3.75 0 1 0 7.5 0 a3.75 3.75 0 1 0 -7.5 0z" fill="rgba(0, 187, 211, 1)"></path><path d="M1042.5 457.5L1057.5 472.5L1072.5 472.5L1087.5 472.5L1102.5 472.5M457.5 412.5L472.5 427.5L487.5 427.5L502.5 427.5M712.5 442.5L727.5 427.5L742.5 427.5M532.5 427.5L547.5 412.5L562.5 412.5L577.5 412.5L592.5 412.5L607.5 412.5L622.5 397.5L637.5 397.5L652.5 397.5L667.5 397.5L682.5 397.5L697.5 397.5L712.5 397.5L727.5 397.5L742.5 397.5M412.5 427.5L427.5 412.5L442.5 397.5L457.5 397.5L472.5 397.5L487.5 397.5L502.5 397.5L517.5 397.5L532.5 397.5L547.5 397.5L562.5 397.5L577.5 397.5L592.5 397.5M652.5 442.5L667.5 457.5L682.5 457.5L697.5 457.5L712.5 457.5M817.5 442.5L832.5 457.5L847.5 457.5M442.5 412.5L457.5 427.5L472.5 442.5L487.5 442.5L502.5 442.5L517.5 442.5L532.5 442.5L547.5 442.5L562.5 442.5L577.5 457.5M952.5 457.5L967.5 472.5L982.5 472.5L997.5 472.5L1012.5 472.5L1027.5 472.5L1042.5 472.5L1057.5 487.5L1072.5 487.5L1087.5 487.5L1102.5 487.5L1117.5 487.5M742.5 442.5L757.5 457.5L772.5 457.5L787.5 457.5L802.5 457.5L817.5 457.5L832.5 472.5L847.5 472.5L862.5 487.5L877.5 487.5L892.5 487.5L907.5 487.5L922.5 487.5L937.5 487.5L952.5 472.5M892.5 457.5L907.5 442.5L922.5 442.5L937.5 442.5M832.5 442.5L847.5 427.5L862.5 427.5L877.5 427.5L892.5 427.5L907.5 427.5L922.5 427.5L937.5 427.5L952.5 427.5L967.5 412.5L982.5 412.5L997.5 412.5L1012.5 412.5L1027.5 397.5L1042.5 397.5L1057.5 397.5L1072.5 397.5L1087.5 397.5L1102.5 382.5L1117.5 382.5L1132.5 382.5M682.5 442.5L697.5 427.5L712.5 412.5L727.5 412.5M562.5 427.5L577.5 427.5L592.5 427.5L607.5 427.5M1072.5 457.5L1087.5 442.5L1102.5 442.5L1117.5 442.5L1132.5 442.5L1147.5 442.5M862.5 442.5L877.5 442.5L892.5 442.5M517.5 412.5L532.5 412.5M787.5 442.5L802.5 427.5L817.5 427.5L832.5 427.5L847.5 412.5L862.5 412.5L877.5 412.5L892.5 412.5L907.5 397.5L922.5 397.5L937.5 397.5L952.5 397.5L967.5 397.5L982.5 397.5L997.5 397.5L1012.5 397.5L1027.5 382.5L1042.5 382.5L1057.5 382.5L1072.5 382.5L1087.5 382.5L1102.5 367.5M727.5 442.5L742.5 457.5L757.5 472.5L772.5 472.5L787.5 472.5L802.5 472.5L817.5 472.5L832.5 487.5L847.5 487.5L862.5 502.5L877.5 517.5L892.5 517.5L907.5 532.5L922.5 532.5L937.5 532.5L952.5 532.5L967.5 517.5L982.5 517.5L997.5 517.5L1012.5 517.5L1027.5 517.5L1042.5 517.5L1057.5 517.5L1072.5 517.5L1087.5 517.5L1102.5 517.5L1117.5 517.5L1132.5 517.5L1147.5 517.5L1162.5 517.5M-7.5 397.5L7.5 397.5L22.5 397.5L37.5 397.5L52.5 397.5L67.5 397.5L82.5 397.5L97.5 397.5L112.5 412.5L127.5 412.5L142.5 412.5L157.5 412.5L172.5 412.5L187.5 412.5L202.5 412.5L217.5 412.5L232.5 412.5L247.5 412.5L262.5 427.5L277.5 427.5L292.5 427.5L307.5 427.5L322.5 427.5L337.5 427.5L352.5 427.5L367.5 427.5L382.5 427.5L397.5 427.5L412.5 427.5L427.5 427.5L442.5 412.5L457.5 412.5L472.5 412.5L487.5 412.5L502.5 412.5L517.5 412.5L532.5 427.5L547.5 427.5L562.5 427.5L577.5 442.5L592.5 442.5L607.5 442.5L622.5 442.5L637.5 442.5L652.5 442.5L667.5 442.5L682.5 442.5L697.5 442.5L712.5 442.5L727.5 442.5L742.5 442.5L757.5 442.5L772.5 442.5L787.5 442.5L802.5 442.5L817.5 442.5L832.5 442.5L847.5 442.5L862.5 442.5L877.5 457.5L892.5 457.5L907.5 457.5L922.5 457.5L937.5 457.5L952.5 457.5L967.5 457.5L982.5 457.5L997.5 457.5L1012.5 457.5L1027.5 457.5L1042.5 457.5L1057.5 457.5L1072.5 457.5L1087.5 457.5L1102.5 457.5L1117.5 457.5L1132.5 457.5L1147.5 457.5L1162.5 457.5" stroke="rgba(101, 13, 94, 1)" stroke-width="2.5"></path><path d="M1158.75 457.5 a3.75 3.75 0 1 0 7.5 0 a3.75 3.75 0 1 0 -7.5 0zM1098.75 472.5 a3.75 3.75 0 1 0 7.5 0 a3.75 3.75 0 1 0 -7.5 0zM498.75 427.5 a3.75 3.75 0 1 0 7.5 0 a3.75 3.75 0 1 0 -7.5 0zM738.75 427.5 a3.75 3.75 0 1 0 7.5 0 a3.75 3.75 0 1 0 -7.5 0zM738.75 397.5 a3.75 3.75 0 1 0 7.5 0 a3.75 3.75 0 1 0 -7.5 0zM588.75 397.5 a3.75 3.75 0 1 0 7.5 0 a3.75 3.75 0 1 0 -7.5 0zM708.75 457.5 a3.75 3.75 0 1 0 7.5 0 a3.75 3.75 0 1 0 -7.5 0zM843.75 457.5 a3.75 3.75 0 1 0 7.5 0 a3.75 3.75 0 1 0 -7.5 0zM573.75 457.5 a3.75 3.75 0 1 0 7.5 0 a3.75 3.75 0 1 0 -7.5 0zM1113.75 487.5 a3.75 3.75 0 1 0 7.5 0 a3.75 3.75 0 1 0 -7.5 0zM948.75 472.5 a3.75 3.75 0 1 0 7.5 0 a3.75 3.75 0 1 0 -7.5 0zM933.75 442.5 a3.75 3.75 0 1 0 7.5 0 a3.75 3.75 0 1 0 -7.5 0zM1128.75 382.5 a3.75 3.75 0 1 0 7.5 0 a3.75 3.75 0 1 0 -7.5 0zM723.75 412.5 a3.75 3.75 0 1 0 7.5 0 a3.75 3.75 0 1 0 -7.5 0zM603.75 427.5 a3.75 3.75 0 1 0 7.5 0 a3.75 3.75 0 1 0 -7.5 0zM1143.75 442.5 a3.75 3.75 0 1 0 7.5 0 a3.75 3.75 0 1 0 -7.5 0zM888.75 442.5 a3.75 3.75 0 1 0 7.5 0 a3.75 3.75 0 1 0 -7.5 0zM528.75 412.5 a3.75 3.75 0 1 0 7.5 0 a3.75 3.75 0 1 0 -7.5 0zM1098.75 367.5 a3.75 3.75 0 1 0 7.5 0 a3.75 3.75 0 1 0 -7.5 0zM1158.75 517.5 a3.75 3.75 0 1 0 7.5 0 a3.75 3.75 0 1 0 -7.5 0z" fill="rgba(101, 13, 94, 1)"></path><path d="M667.5 247.5L682.5 232.5L697.5 232.5L712.5 232.5L727.5 232.5L742.5 232.5L757.5 232.5L772.5 232.5L787.5 232.5M172.5 307.5L187.5 292.5L202.5 292.5L217.5 292.5L232.5 292.5L247.5 292.5L262.5 292.5L277.5 292.5L292.5 292.5L307.5 292.5L322.5 292.5M652.5 247.5L667.5 262.5L682.5 262.5L697.5 262.5L712.5 262.5L727.5 262.5L742.5 262.5L757.5 262.5L772.5 262.5M502.5 262.5L517.5 277.5L532.5 277.5L547.5 277.5L562.5 277.5L577.5 277.5L592.5 277.5L607.5 277.5L622.5 277.5L637.5 277.5M457.5 292.5L472.5 292.5M592.5 262.5L607.5 247.5L622.5 247.5L637.5 247.5L652.5 232.5M127.5 307.5L142.5 292.5M532.5 262.5L547.5 247.5L562.5 247.5L577.5 247.5L592.5 247.5L607.5 232.5L622.5 232.5L637.5 232.5M487.5 277.5L502.5 277.5M517.5 262.5L532.5 247.5M157.5 307.5L172.5 292.5M637.5 262.5L652.5 262.5L667.5 277.5L682.5 292.5L697.5 292.5L712.5 292.5L727.5 292.5L742.5 292.5L757.5 277.5M-7.5 322.5L7.5 322.5L22.5 322.5L37.5 307.5L52.5 307.5L67.5 307.5L82.5 307.5L97.5 307.5L112.5 307.5L127.5 307.5L142.5 307.5L157.5 307.5L172.5 307.5L187.5 307.5L202.5 307.5L217.5 307.5L232.5 307.5L247.5 307.5L262.5 307.5L277.5 307.5L292.5 307.5L307.5 307.5L322.5 307.5L337.5 307.5L352.5 307.5L367.5 307.5L382.5 307.5L397.5 292.5L412.5 292.5L427.5 292.5L442.5 292.5L457.5 292.5L472.5 277.5L487.5 277.5L502.5 262.5L517.5 262.5L532.5 262.5L547.5 262.5L562.5 262.5L577.5 262.5L592.5 262.5L607.5 262.5L622.5 262.5L637.5 262.5L652.5 247.5L667.5 247.5L682.5 247.5L697.5 247.5L712.5 247.5" stroke="rgba(0, 187, 211, 1)" stroke-width="2.5"></path><path d="M708.75 247.5 a3.75 3.75 0 1 0 7.5 0 a3.75 3.75 0 1 0 -7.5 0zM783.75 232.5 a3.75 3.75 0 1 0 7.5 0 a3.75 3.75 0 1 0 -7.5 0zM318.75 292.5 a3.75 3.75 0 1 0 7.5 0 a3.75 3.75 0 1 0 -7.5 0zM768.75 262.5 a3.75 3.75 0 1 0 7.5 0 a3.75 3.75 0 1 0 -7.5 0zM633.75 277.5 a3.75 3.75 0 1 0 7.5 0 a3.75 3.75 0 1 0 -7.5 0zM468.75 292.5 a3.75 3.75 0 1 0 7.5 0 a3.75 3.75 0 1 0 -7.5 0zM648.75 232.5 a3.75 3.75 0 1 0 7.5 0 a3.75 3.75 0 1 0 -7.5 0zM138.75 292.5 a3.75 3.75 0 1 0 7.5 0 a3.75 3.75 0 1 0 -7.5 0zM633.75 232.5 a3.75 3.75 0 1 0 7.5 0 a3.75 3.75 0 1 0 -7.5 0zM498.75 277.5 a3.75 3.75 0 1 0 7.5 0 a3.75 3.75 0 1 0 -7.5 0zM528.75 247.5 a3.75 3.75 0 1 0 7.5 0 a3.75 3.75 0 1 0 -7.5 0zM168.75 292.5 a3.75 3.75 0 1 0 7.5 0 a3.75 3.75 0 1 0 -7.5 0zM753.75 277.5 a3.75 3.75 0 1 0 7.5 0 a3.75 3.75 0 1 0 -7.5 0z" fill="rgba(0, 187, 211, 1)"></path><path d="M997.5 577.5L1012.5 592.5L1027.5 592.5M967.5 577.5L982.5 592.5L997.5 592.5M262.5 442.5L277.5 457.5L292.5 457.5L307.5 457.5L322.5 457.5L337.5 457.5L352.5 457.5L367.5 457.5L382.5 457.5M142.5 427.5L157.5 442.5L172.5 442.5L187.5 442.5L202.5 442.5L217.5 442.5L232.5 442.5L247.5 442.5L262.5 457.5M952.5 577.5L967.5 562.5L982.5 562.5L997.5 562.5L1012.5 547.5L1027.5 547.5L1042.5 547.5L1057.5 547.5L1072.5 547.5M577.5 502.5L592.5 502.5L607.5 502.5L622.5 502.5L637.5 502.5L652.5 502.5L667.5 502.5L682.5 502.5L697.5 502.5L712.5 502.5L727.5 502.5L742.5 502.5L757.5 502.5L772.5 502.5L787.5 502.5L802.5 502.5L817.5 517.5L832.5 517.5L847.5 517.5L862.5 517.5L877.5 532.5L892.5 532.5M607.5 517.5L622.5 532.5L637.5 532.5L652.5 532.5L667.5 532.5L682.5 547.5L697.5 547.5L712.5 547.5M517.5 487.5L532.5 472.5L547.5 472.5L562.5 472.5L577.5 472.5L592.5 472.5L607.5 472.5L622.5 472.5L637.5 472.5L652.5 487.5L667.5 487.5M532.5 487.5L547.5 487.5L562.5 487.5L577.5 487.5L592.5 487.5L607.5 487.5L622.5 487.5L637.5 487.5M877.5 547.5L892.5 562.5L907.5 562.5M712.5 532.5L727.5 517.5L742.5 517.5L757.5 517.5L772.5 517.5L787.5 517.5L802.5 517.5M862.5 547.5L877.5 562.5L892.5 577.5L907.5 577.5L922.5 577.5L937.5 577.5L952.5 592.5L967.5 592.5M697.5 532.5L712.5 517.5M847.5 547.5L862.5 532.5M937.5 562.5L952.5 562.5L967.5 547.5L982.5 532.5L997.5 532.5L1012.5 532.5L1027.5 532.5L1042.5 532.5M502.5 487.5L517.5 472.5L532.5 457.5L547.5 457.5L562.5 457.5M667.5 517.5L682.5 517.5L697.5 517.5M922.5 547.5L937.5 547.5L952.5 547.5M-7.5 412.5L7.5 412.5L22.5 412.5L37.5 412.5L52.5 412.5L67.5 412.5L82.5 412.5L97.5 412.5L112.5 427.5L127.5 427.5L142.5 427.5L157.5 427.5L172.5 427.5L187.5 427.5L202.5 427.5L217.5 427.5L232.5 427.5L247.5 427.5L262.5 442.5L277.5 442.5L292.5 442.5L307.5 442.5L322.5 442.5L337.5 442.5L352.5 442.5L367.5 442.5L382.5 442.5L397.5 457.5L412.5 457.5L427.5 457.5L442.5 457.5L457.5 457.5L472.5 457.5L487.5 472.5L502.5 487.5L517.5 487.5L532.5 487.5L547.5 502.5L562.5 502.5L577.5 502.5L592.5 517.5L607.5 517.5L622.5 517.5L637.5 517.5L652.5 517.5L667.5 517.5L682.5 532.5L697.5 532.5L712.5 532.5L727.5 532.5L742.5 532.5L757.5 532.5L772.5 532.5L787.5 532.5L802.5 532.5L817.5 547.5L832.5 547.5L847.5 547.5L862.5 547.5L877.5 547.5L892.5 547.5L907.5 547.5L922.5 547.5L937.5 562.5L952.5 577.5L967.5 577.5L982.5 577.5L997.5 577.5L1012.5 577.5L1027.5 577.5L1042.5 577.5L1057.5 577.5" stroke="rgba(0, 187, 211, 1)" stroke-width="2.5"></path><path d="M1053.75 577.5 a3.75 3.75 0 1 0 7.5 0 a3.75 3.75 0 1 0 -7.5 0zM1023.75 592.5 a3.75 3.75 0 1 0 7.5 0 a3.75 3.75 0 1 0 -7.5 0zM993.75 592.5 a3.75 3.75 0 1 0 7.5 0 a3.75 3.75 0 1 0 -7.5 0zM378.75 457.5 a3.75 3.75 0 1 0 7.5 0 a3.75 3.75 0 1 0 -7.5 0zM258.75 457.5 a3.75 3.75 0 1 0 7.5 0 a3.75 3.75 0 1 0 -7.5 0zM1068.75 547.5 a3.75 3.75 0 1 0 7.5 0 a3.75 3.75 0 1 0 -7.5 0zM888.75 532.5 a3.75 3.75 0 1 0 7.5 0 a3.75 3.75 0 1 0 -7.5 0zM708.75 547.5 a3.75 3.75 0 1 0 7.5 0 a3.75 3.75 0 1 0 -7.5 0zM663.75 487.5 a3.75 3.75 0 1 0 7.5 0 a3.75 3.75 0 1 0 -7.5 0zM633.75 487.5 a3.75 3.75 0 1 0 7.5 0 a3.75 3.75 0 1 0 -7.5 0zM903.75 562.5 a3.75 3.75 0 1 0 7.5 0 a3.75 3.75 0 1 0 -7.5 0zM798.75 517.5 a3.75 3.75 0 1 0 7.5 0 a3.75 3.75 0 1 0 -7.5 0zM963.75 592.5 a3.75 3.75 0 1 0 7.5 0 a3.75 3.75 0 1 0 -7.5 0zM708.75 517.5 a3.75 3.75 0 1 0 7.5 0 a3.75 3.75 0 1 0 -7.5 0zM858.75 532.5 a3.75 3.75 0 1 0 7.5 0 a3.75 3.75 0 1 0 -7.5 0zM1038.75 532.5 a3.75 3.75 0 1 0 7.5 0 a3.75 3.75 0 1 0 -7.5 0zM558.75 457.5 a3.75 3.75 0 1 0 7.5 0 a3.75 3.75 0 1 0 -7.5 0zM693.75 517.5 a3.75 3.75 0 1 0 7.5 0 a3.75 3.75 0 1 0 -7.5 0zM948.75 547.5 a3.75 3.75 0 1 0 7.5 0 a3.75 3.75 0 1 0 -7.5 0z" fill="rgba(0, 187, 211, 1)"></path><path d="M157.5 277.5L172.5 262.5L187.5 262.5L202.5 262.5L217.5 262.5L232.5 262.5L247.5 262.5L262.5 262.5M907.5 202.5L922.5 217.5L937.5 217.5L952.5 217.5L967.5 217.5L982.5 232.5L997.5 232.5L1012.5 232.5L1027.5 232.5L1042.5 232.5L1057.5 232.5L1072.5 232.5L1087.5 232.5L1102.5 232.5L1117.5 232.5L1132.5 232.5M1267.5 202.5L1282.5 217.5L1297.5 217.5L1312.5 232.5L1327.5 232.5L1342.5 232.5L1357.5 232.5L1372.5 232.5L1387.5 232.5L1402.5 232.5L1417.5 232.5M997.5 202.5L1012.5 217.5L1027.5 217.5L1042.5 217.5L1057.5 217.5L1072.5 217.5L1087.5 217.5M802.5 217.5L817.5 202.5L832.5 202.5L847.5 202.5L862.5 202.5L877.5 202.5M112.5 277.5L127.5 292.5M877.5 217.5L892.5 217.5L907.5 217.5L922.5 232.5L937.5 232.5M1192.5 202.5L1207.5 217.5L1222.5 217.5L1237.5 217.5L1252.5 217.5L1267.5 217.5L1282.5 232.5L1297.5 232.5L1312.5 247.5L1327.5 247.5L1342.5 247.5L1357.5 247.5L1372.5 247.5L1387.5 247.5L1402.5 247.5L1417.5 247.5M682.5 217.5L697.5 202.5M1072.5 202.5L1087.5 187.5L1102.5 187.5L1117.5 202.5L1132.5 202.5L1147.5 202.5L1162.5 202.5L1177.5 202.5M832.5 217.5L847.5 232.5L862.5 232.5L877.5 232.5L892.5 232.5L907.5 232.5L922.5 247.5M1147.5 217.5L1162.5 232.5L1177.5 232.5L1192.5 232.5L1207.5 247.5L1222.5 247.5L1237.5 247.5L1252.5 247.5L1267.5 247.5L1282.5 247.5L1297.5 247.5L1312.5 262.5L1327.5 262.5L1342.5 277.5L1357.5 277.5L1372.5 277.5L1387.5 277.5L1402.5 262.5L1417.5 262.5M502.5 247.5L517.5 247.5M562.5 217.5L577.5 232.5L592.5 232.5M607.5 217.5L622.5 202.5L637.5 202.5L652.5 202.5L667.5 202.5M292.5 277.5L307.5 262.5L322.5 262.5L337.5 262.5L352.5 262.5L367.5 262.5L382.5 262.5L397.5 262.5L412.5 262.5L427.5 262.5L442.5 262.5L457.5 262.5M727.5 202.5L742.5 217.5L757.5 217.5M1057.5 202.5L1072.5 187.5M1087.5 202.5L1102.5 202.5M1252.5 202.5L1267.5 187.5M1297.5 187.5L1312.5 172.5L1327.5 172.5L1342.5 172.5L1357.5 172.5L1372.5 172.5M772.5 217.5L787.5 202.5L802.5 202.5M-7.5 307.5L7.5 307.5L22.5 307.5L37.5 292.5L52.5 292.5L67.5 292.5L82.5 292.5L97.5 292.5L112.5 277.5L127.5 277.5L142.5 277.5L157.5 277.5L172.5 277.5L187.5 277.5L202.5 277.5L217.5 277.5L232.5 277.5L247.5 277.5L262.5 277.5L277.5 277.5L292.5 277.5L307.5 277.5L322.5 277.5L337.5 292.5L352.5 292.5L367.5 292.5L382.5 292.5L397.5 277.5L412.5 277.5L427.5 277.5L442.5 277.5L457.5 277.5L472.5 262.5L487.5 262.5L502.5 247.5L517.5 232.5L532.5 232.5L547.5 217.5L562.5 217.5L577.5 217.5L592.5 217.5L607.5 217.5L622.5 217.5L637.5 217.5L652.5 217.5L667.5 217.5L682.5 217.5L697.5 217.5L712.5 202.5L727.5 202.5L742.5 202.5L757.5 202.5L772.5 217.5L787.5 217.5L802.5 217.5L817.5 217.5L832.5 217.5L847.5 217.5L862.5 217.5L877.5 217.5L892.5 202.5L907.5 202.5L922.5 202.5L937.5 202.5L952.5 202.5L967.5 202.5L982.5 202.5L997.5 202.5L1012.5 202.5L1027.5 202.5L1042.5 202.5L1057.5 202.5L1072.5 202.5L1087.5 202.5L1102.5 217.5L1117.5 217.5L1132.5 217.5L1147.5 217.5L1162.5 217.5L1177.5 217.5L1192.5 202.5L1207.5 202.5L1222.5 202.5L1237.5 202.5L1252.5 202.5L1267.5 202.5L1282.5 202.5L1297.5 187.5L1312.5 187.5" stroke="rgba(101, 13, 94, 1)" stroke-width="2.5"></path><path d="M1308.75 187.5 a3.75 3.75 0 1 0 7.5 0 a3.75 3.75 0 1 0 -7.5 0zM258.75 262.5 a3.75 3.75 0 1 0 7.5 0 a3.75 3.75 0 1 0 -7.5 0zM1128.75 232.5 a3.75 3.75 0 1 0 7.5 0 a3.75 3.75 0 1 0 -7.5 0zM1413.75 232.5 a3.75 3.75 0 1 0 7.5 0 a3.75 3.75 0 1 0 -7.5 0zM1083.75 217.5 a3.75 3.75 0 1 0 7.5 0 a3.75 3.75 0 1 0 -7.5 0zM873.75 202.5 a3.75 3.75 0 1 0 7.5 0 a3.75 3.75 0 1 0 -7.5 0zM123.75 292.5 a3.75 3.75 0 1 0 7.5 0 a3.75 3.75 0 1 0 -7.5 0zM933.75 232.5 a3.75 3.75 0 1 0 7.5 0 a3.75 3.75 0 1 0 -7.5 0zM1413.75 247.5 a3.75 3.75 0 1 0 7.5 0 a3.75 3.75 0 1 0 -7.5 0zM693.75 202.5 a3.75 3.75 0 1 0 7.5 0 a3.75 3.75 0 1 0 -7.5 0zM1173.75 202.5 a3.75 3.75 0 1 0 7.5 0 a3.75 3.75 0 1 0 -7.5 0zM918.75 247.5 a3.75 3.75 0 1 0 7.5 0 a3.75 3.75 0 1 0 -7.5 0zM1413.75 262.5 a3.75 3.75 0 1 0 7.5 0 a3.75 3.75 0 1 0 -7.5 0zM513.75 247.5 a3.75 3.75 0 1 0 7.5 0 a3.75 3.75 0 1 0 -7.5 0zM588.75 232.5 a3.75 3.75 0 1 0 7.5 0 a3.75 3.75 0 1 0 -7.5 0zM663.75 202.5 a3.75 3.75 0 1 0 7.5 0 a3.75 3.75 0 1 0 -7.5 0zM453.75 262.5 a3.75 3.75 0 1 0 7.5 0 a3.75 3.75 0 1 0 -7.5 0zM753.75 217.5 a3.75 3.75 0 1 0 7.5 0 a3.75 3.75 0 1 0 -7.5 0zM1068.75 187.5 a3.75 3.75 0 1 0 7.5 0 a3.75 3.75 0 1 0 -7.5 0zM1098.75 202.5 a3.75 3.75 0 1 0 7.5 0 a3.75 3.75 0 1 0 -7.5 0zM1263.75 187.5 a3.75 3.75 0 1 0 7.5 0 a3.75 3.75 0 1 0 -7.5 0zM1368.75 172.5 a3.75 3.75 0 1 0 7.5 0 a3.75 3.75 0 1 0 -7.5 0zM798.75 202.5 a3.75 3.75 0 1 0 7.5 0 a3.75 3.75 0 1 0 -7.5 0z" fill="rgba(101, 13, 94, 1)"></path><path d="M232.5 472.5L247.5 457.5M187.5 472.5L202.5 457.5L217.5 457.5L232.5 457.5M457.5 472.5L472.5 487.5M592.5 532.5L607.5 532.5M172.5 472.5L187.5 457.5M127.5 442.5L142.5 442.5M157.5 457.5L172.5 457.5M427.5 472.5L442.5 487.5L457.5 487.5M82.5 427.5L97.5 427.5M412.5 472.5L427.5 487.5M-7.5 427.5L7.5 427.5L22.5 427.5L37.5 427.5L52.5 427.5L67.5 427.5L82.5 427.5L97.5 442.5L112.5 442.5L127.5 442.5L142.5 457.5L157.5 457.5L172.5 472.5L187.5 472.5L202.5 472.5L217.5 472.5L232.5 472.5L247.5 472.5L262.5 472.5L277.5 472.5L292.5 472.5L307.5 472.5L322.5 472.5L337.5 472.5L352.5 472.5L367.5 472.5L382.5 472.5L397.5 472.5L412.5 472.5L427.5 472.5L442.5 472.5L457.5 472.5L472.5 472.5L487.5 487.5L502.5 502.5L517.5 502.5L532.5 502.5L547.5 517.5L562.5 517.5L577.5 517.5L592.5 532.5L607.5 547.5" stroke="rgba(101, 13, 94, 1)" stroke-width="2.5"></path><path d="M603.75 547.5 a3.75 3.75 0 1 0 7.5 0 a3.75 3.75 0 1 0 -7.5 0zM243.75 457.5 a3.75 3.75 0 1 0 7.5 0 a3.75 3.75 0 1 0 -7.5 0zM228.75 457.5 a3.75 3.75 0 1 0 7.5 0 a3.75 3.75 0 1 0 -7.5 0zM468.75 487.5 a3.75 3.75 0 1 0 7.5 0 a3.75 3.75 0 1 0 -7.5 0zM603.75 532.5 a3.75 3.75 0 1 0 7.5 0 a3.75 3.75 0 1 0 -7.5 0zM183.75 457.5 a3.75 3.75 0 1 0 7.5 0 a3.75 3.75 0 1 0 -7.5 0zM138.75 442.5 a3.75 3.75 0 1 0 7.5 0 a3.75 3.75 0 1 0 -7.5 0zM168.75 457.5 a3.75 3.75 0 1 0 7.5 0 a3.75 3.75 0 1 0 -7.5 0zM453.75 487.5 a3.75 3.75 0 1 0 7.5 0 a3.75 3.75 0 1 0 -7.5 0zM93.75 427.5 a3.75 3.75 0 1 0 7.5 0 a3.75 3.75 0 1 0 -7.5 0zM423.75 487.5 a3.75 3.75 0 1 0 7.5 0 a3.75 3.75 0 1 0 -7.5 0z" fill="rgba(101, 13, 94, 1)"></path><path d="M277.5 247.5L292.5 262.5M142.5 262.5L157.5 262.5M-7.5 292.5L7.5 292.5L22.5 292.5L37.5 277.5L52.5 277.5L67.5 277.5L82.5 277.5L97.5 277.5L112.5 262.5L127.5 262.5L142.5 262.5L157.5 247.5L172.5 247.5L187.5 247.5L202.5 247.5L217.5 247.5L232.5 247.5L247.5 247.5L262.5 247.5L277.5 247.5L292.5 247.5L307.5 247.5L322.5 247.5L337.5 247.5L352.5 247.5L367.5 247.5L382.5 247.5L397.5 247.5L412.5 247.5L427.5 247.5L442.5 247.5L457.5 247.5L472.5 247.5L487.5 247.5L502.5 232.5L517.5 217.5L532.5 217.5L547.5 202.5L562.5 202.5L577.5 202.5L592.5 202.5" stroke="rgba(0, 187, 211, 1)" stroke-width="2.5"></path><path d="M588.75 202.5 a3.75 3.75 0 1 0 7.5 0 a3.75 3.75 0 1 0 -7.5 0zM288.75 262.5 a3.75 3.75 0 1 0 7.5 0 a3.75 3.75 0 1 0 -7.5 0zM153.75 262.5 a3.75 3.75 0 1 0 7.5 0 a3.75 3.75 0 1 0 -7.5 0z" fill="rgba(0, 187, 211, 1)"></path><path d="M-7.5 442.5L7.5 442.5L22.5 442.5L37.5 442.5L52.5 442.5L67.5 442.5L82.5 442.5L97.5 457.5L112.5 457.5L127.5 457.5L142.5 472.5L157.5 472.5L172.5 487.5L187.5 487.5L202.5 487.5L217.5 487.5L232.5 487.5L247.5 487.5L262.5 487.5L277.5 487.5L292.5 487.5L307.5 487.5L322.5 487.5L337.5 487.5L352.5 487.5L367.5 487.5L382.5 487.5" stroke="rgba(0, 187, 211, 1)" stroke-width="2.5"></path><path d="M378.75 487.5 a3.75 3.75 0 1 0 7.5 0 a3.75 3.75 0 1 0 -7.5 0z" fill="rgba(0, 187, 211, 1)"></path><path d="M1207.5 187.5L1222.5 172.5L1237.5 172.5L1252.5 172.5L1267.5 172.5L1282.5 172.5L1297.5 172.5M1147.5 187.5L1162.5 172.5L1177.5 172.5L1192.5 172.5L1207.5 172.5L1222.5 157.5L1237.5 157.5L1252.5 157.5L1267.5 157.5L1282.5 157.5L1297.5 157.5L1312.5 157.5L1327.5 157.5L1342.5 157.5L1357.5 142.5L1372.5 142.5L1387.5 142.5L1402.5 142.5L1417.5 142.5M277.5 232.5L292.5 217.5L307.5 217.5L322.5 217.5L337.5 217.5L352.5 217.5L367.5 217.5L382.5 217.5L397.5 217.5L412.5 217.5L427.5 217.5L442.5 217.5L457.5 217.5L472.5 217.5L487.5 217.5M7.5 277.5L22.5 277.5M1012.5 172.5L1027.5 187.5L1042.5 187.5L1057.5 187.5M1117.5 187.5L1132.5 172.5L1147.5 157.5L1162.5 157.5L1177.5 157.5M217.5 232.5L232.5 217.5M82.5 262.5L97.5 247.5M517.5 202.5L532.5 202.5M172.5 232.5L187.5 217.5L202.5 217.5L217.5 217.5M262.5 232.5L277.5 217.5M997.5 187.5L1012.5 187.5M247.5 232.5L262.5 217.5M-7.5 277.5L7.5 277.5L22.5 262.5L37.5 262.5L52.5 262.5L67.5 262.5L82.5 262.5L97.5 262.5L112.5 247.5L127.5 247.5L142.5 247.5L157.5 232.5L172.5 232.5L187.5 232.5L202.5 232.5L217.5 232.5L232.5 232.5L247.5 232.5L262.5 232.5L277.5 232.5L292.5 232.5L307.5 232.5L322.5 232.5L337.5 232.5L352.5 232.5L367.5 232.5L382.5 232.5L397.5 232.5L412.5 232.5L427.5 232.5L442.5 232.5L457.5 232.5L472.5 232.5L487.5 232.5L502.5 217.5L517.5 202.5L532.5 187.5L547.5 187.5L562.5 187.5L577.5 187.5L592.5 187.5L607.5 187.5L622.5 187.5L637.5 187.5L652.5 187.5L667.5 187.5L682.5 187.5L697.5 187.5L712.5 187.5L727.5 187.5L742.5 187.5L757.5 187.5L772.5 187.5L787.5 187.5L802.5 187.5L817.5 187.5L832.5 187.5L847.5 187.5L862.5 187.5L877.5 187.5L892.5 187.5L907.5 187.5L922.5 187.5L937.5 187.5L952.5 187.5L967.5 187.5L982.5 187.5L997.5 187.5L1012.5 172.5L1027.5 172.5L1042.5 172.5L1057.5 172.5L1072.5 172.5L1087.5 172.5L1102.5 172.5L1117.5 187.5L1132.5 187.5L1147.5 187.5L1162.5 187.5L1177.5 187.5L1192.5 187.5L1207.5 187.5L1222.5 187.5" stroke="rgba(101, 13, 94, 1)" stroke-width="2.5"></path><path d="M1218.75 187.5 a3.75 3.75 0 1 0 7.5 0 a3.75 3.75 0 1 0 -7.5 0zM1293.75 172.5 a3.75 3.75 0 1 0 7.5 0 a3.75 3.75 0 1 0 -7.5 0zM1413.75 142.5 a3.75 3.75 0 1 0 7.5 0 a3.75 3.75 0 1 0 -7.5 0zM483.75 217.5 a3.75 3.75 0 1 0 7.5 0 a3.75 3.75 0 1 0 -7.5 0zM18.75 277.5 a3.75 3.75 0 1 0 7.5 0 a3.75 3.75 0 1 0 -7.5 0zM1053.75 187.5 a3.75 3.75 0 1 0 7.5 0 a3.75 3.75 0 1 0 -7.5 0zM1173.75 157.5 a3.75 3.75 0 1 0 7.5 0 a3.75 3.75 0 1 0 -7.5 0zM228.75 217.5 a3.75 3.75 0 1 0 7.5 0 a3.75 3.75 0 1 0 -7.5 0zM93.75 247.5 a3.75 3.75 0 1 0 7.5 0 a3.75 3.75 0 1 0 -7.5 0zM528.75 202.5 a3.75 3.75 0 1 0 7.5 0 a3.75 3.75 0 1 0 -7.5 0zM213.75 217.5 a3.75 3.75 0 1 0 7.5 0 a3.75 3.75 0 1 0 -7.5 0zM273.75 217.5 a3.75 3.75 0 1 0 7.5 0 a3.75 3.75 0 1 0 -7.5 0zM1008.75 187.5 a3.75 3.75 0 1 0 7.5 0 a3.75 3.75 0 1 0 -7.5 0zM258.75 217.5 a3.75 3.75 0 1 0 7.5 0 a3.75 3.75 0 1 0 -7.5 0z" fill="rgba(101, 13, 94, 1)"></path><path d="M667.5 577.5L682.5 562.5L697.5 562.5L712.5 562.5L727.5 562.5L742.5 562.5L757.5 562.5L772.5 562.5L787.5 562.5L802.5 562.5L817.5 562.5L832.5 562.5L847.5 562.5L862.5 562.5M472.5 502.5L487.5 517.5L502.5 532.5L517.5 532.5M907.5 607.5L922.5 622.5L937.5 622.5L952.5 622.5L967.5 622.5L982.5 622.5L997.5 622.5L1012.5 637.5M877.5 607.5L892.5 622.5L907.5 622.5L922.5 637.5L937.5 637.5L952.5 637.5L967.5 637.5L982.5 637.5L997.5 637.5M1147.5 622.5L1162.5 607.5L1177.5 607.5L1192.5 607.5L1207.5 607.5L1222.5 607.5L1237.5 607.5L1252.5 607.5L1267.5 592.5L1282.5 592.5L1297.5 592.5M757.5 592.5L772.5 592.5M697.5 577.5L712.5 592.5L727.5 592.5M622.5 562.5L637.5 577.5M817.5 607.5L832.5 592.5L847.5 592.5L862.5 592.5L877.5 592.5L892.5 592.5L907.5 592.5L922.5 592.5L937.5 592.5M1057.5 622.5L1072.5 607.5L1087.5 607.5L1102.5 607.5L1117.5 607.5M1117.5 622.5L1132.5 637.5L1147.5 637.5L1162.5 637.5L1177.5 652.5L1192.5 652.5L1207.5 652.5L1222.5 652.5L1237.5 652.5L1252.5 667.5L1267.5 667.5L1282.5 667.5L1297.5 667.5L1312.5 667.5L1327.5 667.5L1342.5 667.5L1357.5 667.5L1372.5 667.5L1387.5 667.5L1402.5 667.5M1222.5 622.5L1237.5 637.5L1252.5 637.5L1267.5 637.5L1282.5 637.5L1297.5 637.5L1312.5 637.5L1327.5 637.5L1342.5 637.5L1357.5 637.5L1372.5 637.5M847.5 607.5L862.5 622.5L877.5 622.5L892.5 637.5L907.5 637.5M682.5 577.5L697.5 592.5L712.5 607.5L727.5 607.5L742.5 607.5L757.5 607.5L772.5 622.5L787.5 622.5L802.5 622.5L817.5 622.5L832.5 622.5L847.5 622.5L862.5 637.5L877.5 637.5M1102.5 622.5L1117.5 637.5L1132.5 652.5L1147.5 652.5L1162.5 652.5M637.5 562.5L652.5 562.5L667.5 562.5M1072.5 622.5L1087.5 637.5L1102.5 637.5L1117.5 652.5M742.5 577.5L757.5 577.5L772.5 577.5L787.5 592.5L802.5 592.5L817.5 592.5L832.5 577.5L847.5 577.5L862.5 577.5L877.5 577.5M607.5 562.5L622.5 577.5L637.5 592.5L652.5 607.5L667.5 607.5L682.5 607.5M1162.5 622.5L1177.5 622.5L1192.5 622.5L1207.5 622.5M1042.5 622.5L1057.5 607.5L1072.5 592.5L1087.5 592.5L1102.5 592.5L1117.5 592.5L1132.5 592.5L1147.5 592.5L1162.5 577.5L1177.5 577.5L1192.5 577.5L1207.5 562.5L1222.5 562.5L1237.5 577.5L1252.5 577.5M-7.5 457.5L7.5 457.5L22.5 457.5L37.5 457.5L52.5 457.5L67.5 457.5L82.5 472.5L97.5 472.5L112.5 472.5L127.5 472.5L142.5 487.5L157.5 487.5L172.5 502.5L187.5 502.5L202.5 502.5L217.5 502.5L232.5 502.5L247.5 502.5L262.5 502.5L277.5 502.5L292.5 502.5L307.5 502.5L322.5 502.5L337.5 502.5L352.5 502.5L367.5 502.5L382.5 502.5L397.5 502.5L412.5 502.5L427.5 502.5L442.5 502.5L457.5 502.5L472.5 502.5L487.5 502.5L502.5 517.5L517.5 517.5L532.5 517.5L547.5 532.5L562.5 532.5L577.5 532.5L592.5 547.5L607.5 562.5L622.5 562.5L637.5 562.5L652.5 577.5L667.5 577.5L682.5 577.5L697.5 577.5L712.5 577.5L727.5 577.5L742.5 577.5L757.5 592.5L772.5 607.5L787.5 607.5L802.5 607.5L817.5 607.5L832.5 607.5L847.5 607.5L862.5 607.5L877.5 607.5L892.5 607.5L907.5 607.5L922.5 607.5L937.5 607.5L952.5 607.5L967.5 607.5L982.5 607.5L997.5 607.5L1012.5 622.5L1027.5 622.5L1042.5 622.5L1057.5 622.5L1072.5 622.5L1087.5 622.5L1102.5 622.5L1117.5 622.5L1132.5 622.5L1147.5 622.5L1162.5 622.5L1177.5 637.5L1192.5 637.5L1207.5 637.5L1222.5 622.5L1237.5 622.5L1252.5 622.5" stroke="rgba(101, 13, 94, 1)" stroke-width="2.5"></path><path d="M1248.75 622.5 a3.75 3.75 0 1 0 7.5 0 a3.75 3.75 0 1 0 -7.5 0zM858.75 562.5 a3.75 3.75 0 1 0 7.5 0 a3.75 3.75 0 1 0 -7.5 0zM513.75 532.5 a3.75 3.75 0 1 0 7.5 0 a3.75 3.75 0 1 0 -7.5 0zM1008.75 637.5 a3.75 3.75 0 1 0 7.5 0 a3.75 3.75 0 1 0 -7.5 0zM993.75 637.5 a3.75 3.75 0 1 0 7.5 0 a3.75 3.75 0 1 0 -7.5 0zM1293.75 592.5 a3.75 3.75 0 1 0 7.5 0 a3.75 3.75 0 1 0 -7.5 0zM768.75 592.5 a3.75 3.75 0 1 0 7.5 0 a3.75 3.75 0 1 0 -7.5 0zM723.75 592.5 a3.75 3.75 0 1 0 7.5 0 a3.75 3.75 0 1 0 -7.5 0zM633.75 577.5 a3.75 3.75 0 1 0 7.5 0 a3.75 3.75 0 1 0 -7.5 0zM933.75 592.5 a3.75 3.75 0 1 0 7.5 0 a3.75 3.75 0 1 0 -7.5 0zM1113.75 607.5 a3.75 3.75 0 1 0 7.5 0 a3.75 3.75 0 1 0 -7.5 0zM1398.75 667.5 a3.75 3.75 0 1 0 7.5 0 a3.75 3.75 0 1 0 -7.5 0zM1368.75 637.5 a3.75 3.75 0 1 0 7.5 0 a3.75 3.75 0 1 0 -7.5 0zM903.75 637.5 a3.75 3.75 0 1 0 7.5 0 a3.75 3.75 0 1 0 -7.5 0zM873.75 637.5 a3.75 3.75 0 1 0 7.5 0 a3.75 3.75 0 1 0 -7.5 0zM1158.75 652.5 a3.75 3.75 0 1 0 7.5 0 a3.75 3.75 0 1 0 -7.5 0zM663.75 562.5 a3.75 3.75 0 1 0 7.5 0 a3.75 3.75 0 1 0 -7.5 0zM1113.75 652.5 a3.75 3.75 0 1 0 7.5 0 a3.75 3.75 0 1 0 -7.5 0zM873.75 577.5 a3.75 3.75 0 1 0 7.5 0 a3.75 3.75 0 1 0 -7.5 0zM678.75 607.5 a3.75 3.75 0 1 0 7.5 0 a3.75 3.75 0 1 0 -7.5 0zM1203.75 622.5 a3.75 3.75 0 1 0 7.5 0 a3.75 3.75 0 1 0 -7.5 0zM1248.75 577.5 a3.75 3.75 0 1 0 7.5 0 a3.75 3.75 0 1 0 -7.5 0z" fill="rgba(101, 13, 94, 1)"></path><path d="M127.5 232.5L142.5 217.5L157.5 202.5M1102.5 157.5L1117.5 142.5M397.5 202.5L412.5 187.5L427.5 187.5M1072.5 157.5L1087.5 142.5L1102.5 142.5M1057.5 157.5L1072.5 142.5M277.5 202.5L292.5 187.5L307.5 187.5L322.5 187.5L337.5 187.5L352.5 187.5M367.5 202.5L382.5 187.5L397.5 187.5L412.5 172.5L427.5 172.5L442.5 172.5L457.5 172.5L472.5 187.5L487.5 187.5L502.5 187.5L517.5 172.5M442.5 202.5L457.5 187.5M187.5 202.5L202.5 187.5L217.5 187.5L232.5 187.5L247.5 187.5L262.5 187.5L277.5 187.5L292.5 172.5L307.5 172.5L322.5 172.5L337.5 172.5L352.5 172.5M157.5 217.5L172.5 217.5M112.5 232.5L127.5 217.5L142.5 202.5M532.5 172.5L547.5 157.5M67.5 247.5L82.5 247.5M-7.5 262.5L7.5 262.5L22.5 247.5L37.5 247.5L52.5 247.5L67.5 247.5L82.5 232.5L97.5 232.5L112.5 232.5L127.5 232.5L142.5 232.5L157.5 217.5L172.5 202.5L187.5 202.5L202.5 202.5L217.5 202.5L232.5 202.5L247.5 202.5L262.5 202.5L277.5 202.5L292.5 202.5L307.5 202.5L322.5 202.5L337.5 202.5L352.5 202.5L367.5 202.5L382.5 202.5L397.5 202.5L412.5 202.5L427.5 202.5L442.5 202.5L457.5 202.5L472.5 202.5L487.5 202.5L502.5 202.5L517.5 187.5L532.5 172.5L547.5 172.5L562.5 172.5L577.5 172.5L592.5 172.5L607.5 172.5L622.5 172.5L637.5 172.5L652.5 172.5L667.5 172.5L682.5 172.5L697.5 172.5L712.5 172.5L727.5 172.5L742.5 172.5L757.5 172.5L772.5 172.5L787.5 172.5L802.5 172.5L817.5 172.5L832.5 172.5L847.5 172.5L862.5 172.5L877.5 172.5L892.5 172.5L907.5 172.5L922.5 172.5L937.5 172.5L952.5 172.5L967.5 172.5L982.5 172.5L997.5 172.5L1012.5 157.5L1027.5 157.5L1042.5 157.5L1057.5 157.5L1072.5 157.5L1087.5 157.5L1102.5 157.5L1117.5 157.5" stroke="rgba(101, 13, 94, 1)" stroke-width="2.5"></path><path d="M1113.75 157.5 a3.75 3.75 0 1 0 7.5 0 a3.75 3.75 0 1 0 -7.5 0zM153.75 202.5 a3.75 3.75 0 1 0 7.5 0 a3.75 3.75 0 1 0 -7.5 0zM1113.75 142.5 a3.75 3.75 0 1 0 7.5 0 a3.75 3.75 0 1 0 -7.5 0zM423.75 187.5 a3.75 3.75 0 1 0 7.5 0 a3.75 3.75 0 1 0 -7.5 0zM1098.75 142.5 a3.75 3.75 0 1 0 7.5 0 a3.75 3.75 0 1 0 -7.5 0zM1068.75 142.5 a3.75 3.75 0 1 0 7.5 0 a3.75 3.75 0 1 0 -7.5 0zM348.75 187.5 a3.75 3.75 0 1 0 7.5 0 a3.75 3.75 0 1 0 -7.5 0zM513.75 172.5 a3.75 3.75 0 1 0 7.5 0 a3.75 3.75 0 1 0 -7.5 0zM453.75 187.5 a3.75 3.75 0 1 0 7.5 0 a3.75 3.75 0 1 0 -7.5 0zM348.75 172.5 a3.75 3.75 0 1 0 7.5 0 a3.75 3.75 0 1 0 -7.5 0zM168.75 217.5 a3.75 3.75 0 1 0 7.5 0 a3.75 3.75 0 1 0 -7.5 0zM138.75 202.5 a3.75 3.75 0 1 0 7.5 0 a3.75 3.75 0 1 0 -7.5 0zM543.75 157.5 a3.75 3.75 0 1 0 7.5 0 a3.75 3.75 0 1 0 -7.5 0zM78.75 247.5 a3.75 3.75 0 1 0 7.5 0 a3.75 3.75 0 1 0 -7.5 0z" fill="rgba(101, 13, 94, 1)"></path><path d="M472.5 532.5L487.5 532.5M442.5 517.5L457.5 517.5L472.5 517.5M52.5 472.5L67.5 472.5M457.5 532.5L472.5 547.5L487.5 562.5L502.5 562.5L517.5 562.5L532.5 562.5M382.5 517.5L397.5 532.5L412.5 532.5M427.5 517.5L442.5 532.5L457.5 547.5L472.5 562.5L487.5 577.5L502.5 577.5M322.5 517.5L337.5 532.5M-7.5 472.5L7.5 472.5L22.5 472.5L37.5 472.5L52.5 472.5L67.5 487.5L82.5 487.5L97.5 487.5L112.5 487.5L127.5 487.5L142.5 502.5L157.5 502.5L172.5 517.5L187.5 517.5L202.5 517.5L217.5 517.5L232.5 517.5L247.5 517.5L262.5 517.5L277.5 517.5L292.5 517.5L307.5 517.5L322.5 517.5L337.5 517.5L352.5 517.5L367.5 517.5L382.5 517.5L397.5 517.5L412.5 517.5L427.5 517.5L442.5 517.5L457.5 532.5L472.5 532.5L487.5 547.5" stroke="rgba(101, 13, 94, 1)" stroke-width="2.5"></path><path d="M483.75 547.5 a3.75 3.75 0 1 0 7.5 0 a3.75 3.75 0 1 0 -7.5 0zM483.75 532.5 a3.75 3.75 0 1 0 7.5 0 a3.75 3.75 0 1 0 -7.5 0zM468.75 517.5 a3.75 3.75 0 1 0 7.5 0 a3.75 3.75 0 1 0 -7.5 0zM63.75 472.5 a3.75 3.75 0 1 0 7.5 0 a3.75 3.75 0 1 0 -7.5 0zM528.75 562.5 a3.75 3.75 0 1 0 7.5 0 a3.75 3.75 0 1 0 -7.5 0zM408.75 532.5 a3.75 3.75 0 1 0 7.5 0 a3.75 3.75 0 1 0 -7.5 0zM498.75 577.5 a3.75 3.75 0 1 0 7.5 0 a3.75 3.75 0 1 0 -7.5 0zM333.75 532.5 a3.75 3.75 0 1 0 7.5 0 a3.75 3.75 0 1 0 -7.5 0z" fill="rgba(101, 13, 94, 1)"></path><path d="M97.5 217.5L112.5 217.5M1027.5 142.5L1042.5 127.5L1057.5 112.5L1072.5 97.5L1087.5 97.5L1102.5 97.5L1117.5 97.5L1132.5 97.5M802.5 157.5L817.5 142.5L832.5 142.5L847.5 142.5L862.5 142.5L877.5 142.5L892.5 142.5L907.5 142.5L922.5 142.5L937.5 142.5L952.5 142.5L967.5 142.5L982.5 142.5L997.5 142.5L1012.5 127.5L1027.5 127.5L1042.5 112.5L1057.5 97.5M547.5 142.5L562.5 142.5L577.5 142.5L592.5 142.5L607.5 142.5L622.5 142.5L637.5 142.5L652.5 142.5L667.5 142.5L682.5 142.5L697.5 142.5L712.5 142.5L727.5 142.5L742.5 142.5L757.5 142.5L772.5 127.5L787.5 127.5L802.5 127.5L817.5 127.5L832.5 127.5L847.5 127.5M442.5 142.5L457.5 157.5L472.5 172.5L487.5 172.5L502.5 172.5L517.5 157.5L532.5 157.5M112.5 202.5L127.5 202.5M1102.5 127.5L1117.5 112.5L1132.5 112.5L1147.5 112.5L1162.5 97.5M1237.5 127.5L1252.5 142.5L1267.5 142.5L1282.5 127.5M262.5 157.5L277.5 172.5M232.5 157.5L247.5 172.5L262.5 172.5M1087.5 127.5L1102.5 112.5M382.5 157.5L397.5 172.5M1162.5 142.5L1177.5 127.5L1192.5 127.5L1207.5 112.5L1222.5 97.5L1237.5 97.5L1252.5 97.5L1267.5 97.5L1282.5 82.5L1297.5 82.5L1312.5 82.5L1327.5 82.5L1342.5 82.5L1357.5 82.5L1372.5 82.5L1387.5 67.5L1402.5 67.5L1417.5 67.5M367.5 157.5L382.5 142.5M1132.5 142.5L1147.5 127.5L1162.5 112.5L1177.5 112.5M217.5 157.5L232.5 172.5M1117.5 127.5L1132.5 127.5M1072.5 127.5L1087.5 112.5M502.5 142.5L517.5 127.5L532.5 112.5L547.5 112.5L562.5 112.5L577.5 112.5L592.5 112.5L607.5 112.5L622.5 112.5L637.5 127.5L652.5 127.5L667.5 127.5M352.5 157.5L367.5 142.5M427.5 157.5L442.5 157.5M-7.5 247.5L7.5 247.5L22.5 232.5L37.5 232.5L52.5 232.5L67.5 232.5L82.5 217.5L97.5 217.5L112.5 202.5L127.5 187.5L142.5 187.5L157.5 187.5L172.5 187.5L187.5 172.5L202.5 172.5L217.5 157.5L232.5 157.5L247.5 157.5L262.5 157.5L277.5 157.5L292.5 157.5L307.5 157.5L322.5 157.5L337.5 157.5L352.5 157.5L367.5 157.5L382.5 157.5L397.5 157.5L412.5 157.5L427.5 157.5L442.5 142.5L457.5 142.5L472.5 142.5L487.5 142.5L502.5 142.5L517.5 142.5L532.5 142.5L547.5 142.5L562.5 157.5L577.5 157.5L592.5 157.5L607.5 157.5L622.5 157.5L637.5 157.5L652.5 157.5L667.5 157.5L682.5 157.5L697.5 157.5L712.5 157.5L727.5 157.5L742.5 157.5L757.5 157.5L772.5 157.5L787.5 157.5L802.5 157.5L817.5 157.5L832.5 157.5L847.5 157.5L862.5 157.5L877.5 157.5L892.5 157.5L907.5 157.5L922.5 157.5L937.5 157.5L952.5 157.5L967.5 157.5L982.5 157.5L997.5 157.5L1012.5 142.5L1027.5 142.5L1042.5 142.5L1057.5 127.5L1072.5 127.5L1087.5 127.5L1102.5 127.5L1117.5 127.5L1132.5 142.5L1147.5 142.5L1162.5 142.5L1177.5 142.5L1192.5 142.5L1207.5 127.5L1222.5 127.5L1237.5 127.5L1252.5 127.5" stroke="rgba(0, 187, 211, 1)" stroke-width="2.5"></path><path d="M1248.75 127.5 a3.75 3.75 0 1 0 7.5 0 a3.75 3.75 0 1 0 -7.5 0zM108.75 217.5 a3.75 3.75 0 1 0 7.5 0 a3.75 3.75 0 1 0 -7.5 0zM1128.75 97.5 a3.75 3.75 0 1 0 7.5 0 a3.75 3.75 0 1 0 -7.5 0zM1053.75 97.5 a3.75 3.75 0 1 0 7.5 0 a3.75 3.75 0 1 0 -7.5 0zM843.75 127.5 a3.75 3.75 0 1 0 7.5 0 a3.75 3.75 0 1 0 -7.5 0zM528.75 157.5 a3.75 3.75 0 1 0 7.5 0 a3.75 3.75 0 1 0 -7.5 0zM123.75 202.5 a3.75 3.75 0 1 0 7.5 0 a3.75 3.75 0 1 0 -7.5 0zM1158.75 97.5 a3.75 3.75 0 1 0 7.5 0 a3.75 3.75 0 1 0 -7.5 0zM1278.75 127.5 a3.75 3.75 0 1 0 7.5 0 a3.75 3.75 0 1 0 -7.5 0zM273.75 172.5 a3.75 3.75 0 1 0 7.5 0 a3.75 3.75 0 1 0 -7.5 0zM258.75 172.5 a3.75 3.75 0 1 0 7.5 0 a3.75 3.75 0 1 0 -7.5 0zM1098.75 112.5 a3.75 3.75 0 1 0 7.5 0 a3.75 3.75 0 1 0 -7.5 0zM393.75 172.5 a3.75 3.75 0 1 0 7.5 0 a3.75 3.75 0 1 0 -7.5 0zM1413.75 67.5 a3.75 3.75 0 1 0 7.5 0 a3.75 3.75 0 1 0 -7.5 0zM378.75 142.5 a3.75 3.75 0 1 0 7.5 0 a3.75 3.75 0 1 0 -7.5 0zM1173.75 112.5 a3.75 3.75 0 1 0 7.5 0 a3.75 3.75 0 1 0 -7.5 0zM228.75 172.5 a3.75 3.75 0 1 0 7.5 0 a3.75 3.75 0 1 0 -7.5 0zM1128.75 127.5 a3.75 3.75 0 1 0 7.5 0 a3.75 3.75 0 1 0 -7.5 0zM1083.75 112.5 a3.75 3.75 0 1 0 7.5 0 a3.75 3.75 0 1 0 -7.5 0zM663.75 127.5 a3.75 3.75 0 1 0 7.5 0 a3.75 3.75 0 1 0 -7.5 0zM363.75 142.5 a3.75 3.75 0 1 0 7.5 0 a3.75 3.75 0 1 0 -7.5 0zM438.75 157.5 a3.75 3.75 0 1 0 7.5 0 a3.75 3.75 0 1 0 -7.5 0z" fill="rgba(0, 187, 211, 1)"></path><path d="M337.5 547.5L352.5 547.5L367.5 547.5L382.5 547.5M37.5 487.5L52.5 487.5M307.5 532.5L322.5 532.5M-7.5 487.5L7.5 487.5L22.5 487.5L37.5 487.5L52.5 502.5L67.5 502.5L82.5 502.5L97.5 502.5L112.5 502.5L127.5 502.5L142.5 517.5L157.5 517.5L172.5 532.5L187.5 532.5L202.5 532.5L217.5 532.5L232.5 532.5L247.5 532.5L262.5 532.5L277.5 532.5L292.5 532.5L307.5 532.5L322.5 547.5L337.5 547.5L352.5 532.5L367.5 532.5" stroke="rgba(0, 187, 211, 1)" stroke-width="2.5"></path><path d="M363.75 532.5 a3.75 3.75 0 1 0 7.5 0 a3.75 3.75 0 1 0 -7.5 0zM378.75 547.5 a3.75 3.75 0 1 0 7.5 0 a3.75 3.75 0 1 0 -7.5 0zM48.75 487.5 a3.75 3.75 0 1 0 7.5 0 a3.75 3.75 0 1 0 -7.5 0zM318.75 532.5 a3.75 3.75 0 1 0 7.5 0 a3.75 3.75 0 1 0 -7.5 0z" fill="rgba(0, 187, 211, 1)"></path><path d="M-7.5 232.5L7.5 232.5L22.5 217.5L37.5 217.5L52.5 217.5L67.5 217.5L82.5 202.5L97.5 202.5L112.5 187.5" stroke="rgba(0, 187, 211, 1)" stroke-width="2.5"></path><path d="M108.75 187.5 a3.75 3.75 0 1 0 7.5 0 a3.75 3.75 0 1 0 -7.5 0z" fill="rgba(0, 187, 211, 1)"></path><path d="M367.5 562.5L382.5 577.5L397.5 577.5M487.5 592.5L502.5 607.5L517.5 607.5L532.5 607.5L547.5 607.5M472.5 592.5L487.5 607.5M442.5 592.5L457.5 577.5L472.5 577.5M532.5 592.5L547.5 577.5L562.5 577.5L577.5 577.5L592.5 577.5M427.5 577.5L442.5 577.5L457.5 562.5M337.5 562.5L352.5 577.5L367.5 577.5M412.5 577.5L427.5 592.5L442.5 607.5L457.5 607.5L472.5 607.5L487.5 622.5L502.5 622.5L517.5 622.5L532.5 622.5M517.5 592.5L532.5 577.5M-7.5 502.5L7.5 502.5L22.5 502.5L37.5 502.5L52.5 517.5L67.5 517.5L82.5 517.5L97.5 517.5L112.5 517.5L127.5 517.5L142.5 532.5L157.5 532.5L172.5 547.5L187.5 547.5L202.5 547.5L217.5 547.5L232.5 547.5L247.5 547.5L262.5 547.5L277.5 547.5L292.5 547.5L307.5 547.5L322.5 562.5L337.5 562.5L352.5 562.5L367.5 562.5L382.5 562.5L397.5 562.5L412.5 577.5L427.5 577.5L442.5 592.5L457.5 592.5L472.5 592.5L487.5 592.5L502.5 592.5L517.5 592.5L532.5 592.5L547.5 592.5L562.5 592.5" stroke="rgba(0, 187, 211, 1)" stroke-width="2.5"></path><path d="M558.75 592.5 a3.75 3.75 0 1 0 7.5 0 a3.75 3.75 0 1 0 -7.5 0zM393.75 577.5 a3.75 3.75 0 1 0 7.5 0 a3.75 3.75 0 1 0 -7.5 0zM543.75 607.5 a3.75 3.75 0 1 0 7.5 0 a3.75 3.75 0 1 0 -7.5 0zM483.75 607.5 a3.75 3.75 0 1 0 7.5 0 a3.75 3.75 0 1 0 -7.5 0zM468.75 577.5 a3.75 3.75 0 1 0 7.5 0 a3.75 3.75 0 1 0 -7.5 0zM588.75 577.5 a3.75 3.75 0 1 0 7.5 0 a3.75 3.75 0 1 0 -7.5 0zM453.75 562.5 a3.75 3.75 0 1 0 7.5 0 a3.75 3.75 0 1 0 -7.5 0zM363.75 577.5 a3.75 3.75 0 1 0 7.5 0 a3.75 3.75 0 1 0 -7.5 0zM528.75 622.5 a3.75 3.75 0 1 0 7.5 0 a3.75 3.75 0 1 0 -7.5 0zM528.75 577.5 a3.75 3.75 0 1 0 7.5 0 a3.75 3.75 0 1 0 -7.5 0z" fill="rgba(0, 187, 211, 1)"></path><path d="M82.5 187.5L97.5 187.5M322.5 127.5L337.5 142.5L352.5 142.5M817.5 112.5L832.5 97.5L847.5 97.5L862.5 97.5M562.5 97.5L577.5 82.5M937.5 127.5L952.5 112.5L967.5 112.5L982.5 112.5L997.5 112.5L1012.5 112.5L1027.5 112.5L1042.5 97.5M892.5 127.5L907.5 112.5L922.5 112.5L937.5 112.5L952.5 97.5L967.5 97.5L982.5 97.5L997.5 97.5L1012.5 97.5L1027.5 97.5M382.5 127.5L397.5 127.5L412.5 127.5M757.5 97.5L772.5 97.5L787.5 97.5L802.5 97.5L817.5 97.5M667.5 97.5L682.5 112.5L697.5 112.5L712.5 112.5L727.5 112.5L742.5 112.5L757.5 112.5M652.5 97.5L667.5 112.5M307.5 142.5L322.5 142.5M877.5 127.5L892.5 112.5L907.5 97.5L922.5 97.5L937.5 97.5M862.5 112.5L877.5 112.5L892.5 97.5M487.5 127.5L502.5 127.5M412.5 142.5L427.5 142.5M637.5 97.5L652.5 112.5M-7.5 217.5L7.5 217.5L22.5 202.5L37.5 202.5L52.5 202.5L67.5 202.5L82.5 187.5L97.5 172.5L112.5 172.5L127.5 172.5L142.5 172.5L157.5 172.5L172.5 172.5L187.5 157.5L202.5 157.5L217.5 142.5L232.5 142.5L247.5 142.5L262.5 142.5L277.5 142.5L292.5 142.5L307.5 142.5L322.5 127.5L337.5 127.5L352.5 127.5L367.5 127.5L382.5 127.5L397.5 142.5L412.5 142.5L427.5 127.5L442.5 127.5L457.5 127.5L472.5 127.5L487.5 127.5L502.5 112.5L517.5 112.5L532.5 97.5L547.5 97.5L562.5 97.5L577.5 97.5L592.5 97.5L607.5 97.5L622.5 97.5L637.5 97.5L652.5 97.5L667.5 97.5L682.5 97.5L697.5 97.5L712.5 97.5L727.5 97.5L742.5 97.5L757.5 97.5L772.5 112.5L787.5 112.5L802.5 112.5L817.5 112.5L832.5 112.5L847.5 112.5L862.5 112.5L877.5 127.5L892.5 127.5L907.5 127.5L922.5 127.5L937.5 127.5L952.5 127.5" stroke="rgba(0, 187, 211, 1)" stroke-width="2.5"></path><path d="M948.75 127.5 a3.75 3.75 0 1 0 7.5 0 a3.75 3.75 0 1 0 -7.5 0zM93.75 187.5 a3.75 3.75 0 1 0 7.5 0 a3.75 3.75 0 1 0 -7.5 0zM348.75 142.5 a3.75 3.75 0 1 0 7.5 0 a3.75 3.75 0 1 0 -7.5 0zM858.75 97.5 a3.75 3.75 0 1 0 7.5 0 a3.75 3.75 0 1 0 -7.5 0zM573.75 82.5 a3.75 3.75 0 1 0 7.5 0 a3.75 3.75 0 1 0 -7.5 0zM1038.75 97.5 a3.75 3.75 0 1 0 7.5 0 a3.75 3.75 0 1 0 -7.5 0zM1023.75 97.5 a3.75 3.75 0 1 0 7.5 0 a3.75 3.75 0 1 0 -7.5 0zM408.75 127.5 a3.75 3.75 0 1 0 7.5 0 a3.75 3.75 0 1 0 -7.5 0zM813.75 97.5 a3.75 3.75 0 1 0 7.5 0 a3.75 3.75 0 1 0 -7.5 0zM753.75 112.5 a3.75 3.75 0 1 0 7.5 0 a3.75 3.75 0 1 0 -7.5 0zM663.75 112.5 a3.75 3.75 0 1 0 7.5 0 a3.75 3.75 0 1 0 -7.5 0zM318.75 142.5 a3.75 3.75 0 1 0 7.5 0 a3.75 3.75 0 1 0 -7.5 0zM933.75 97.5 a3.75 3.75 0 1 0 7.5 0 a3.75 3.75 0 1 0 -7.5 0zM888.75 97.5 a3.75 3.75 0 1 0 7.5 0 a3.75 3.75 0 1 0 -7.5 0zM498.75 127.5 a3.75 3.75 0 1 0 7.5 0 a3.75 3.75 0 1 0 -7.5 0zM423.75 142.5 a3.75 3.75 0 1 0 7.5 0 a3.75 3.75 0 1 0 -7.5 0zM648.75 112.5 a3.75 3.75 0 1 0 7.5 0 a3.75 3.75 0 1 0 -7.5 0z" fill="rgba(0, 187, 211, 1)"></path><path d="M397.5 592.5L412.5 592.5M322.5 577.5L337.5 577.5M412.5 607.5L427.5 607.5M142.5 547.5L157.5 547.5M-7.5 517.5L7.5 517.5L22.5 517.5L37.5 517.5L52.5 532.5L67.5 532.5L82.5 532.5L97.5 532.5L112.5 532.5L127.5 532.5L142.5 547.5L157.5 562.5L172.5 562.5L187.5 562.5L202.5 562.5L217.5 562.5L232.5 562.5L247.5 562.5L262.5 562.5L277.5 562.5L292.5 562.5L307.5 562.5L322.5 577.5L337.5 592.5L352.5 592.5L367.5 592.5L382.5 592.5L397.5 592.5L412.5 607.5L427.5 622.5" stroke="rgba(0, 187, 211, 1)" stroke-width="2.5"></path><path d="M423.75 622.5 a3.75 3.75 0 1 0 7.5 0 a3.75 3.75 0 1 0 -7.5 0zM408.75 592.5 a3.75 3.75 0 1 0 7.5 0 a3.75 3.75 0 1 0 -7.5 0zM333.75 577.5 a3.75 3.75 0 1 0 7.5 0 a3.75 3.75 0 1 0 -7.5 0zM423.75 607.5 a3.75 3.75 0 1 0 7.5 0 a3.75 3.75 0 1 0 -7.5 0zM153.75 547.5 a3.75 3.75 0 1 0 7.5 0 a3.75 3.75 0 1 0 -7.5 0z" fill="rgba(0, 187, 211, 1)"></path><path d="M1117.5 67.5L1132.5 82.5L1147.5 82.5L1162.5 82.5L1177.5 82.5L1192.5 82.5L1207.5 82.5L1222.5 82.5L1237.5 82.5L1252.5 82.5M937.5 82.5L952.5 67.5L967.5 67.5L982.5 67.5L997.5 67.5L1012.5 67.5L1027.5 67.5L1042.5 67.5L1057.5 67.5L1072.5 67.5L1087.5 52.5L1102.5 52.5L1117.5 52.5L1132.5 52.5L1147.5 52.5L1162.5 52.5L1177.5 52.5L1192.5 52.5L1207.5 52.5L1222.5 52.5L1237.5 52.5L1252.5 52.5L1267.5 52.5L1282.5 52.5L1297.5 52.5L1312.5 52.5L1327.5 52.5L1342.5 52.5L1357.5 52.5L1372.5 52.5L1387.5 52.5L1402.5 52.5L1417.5 52.5M562.5 67.5L577.5 52.5L592.5 37.5L607.5 37.5L622.5 37.5L637.5 37.5L652.5 37.5L667.5 37.5L682.5 37.5L697.5 37.5L712.5 37.5L727.5 37.5M847.5 82.5L862.5 67.5L877.5 67.5L892.5 67.5L907.5 67.5L922.5 67.5L937.5 67.5L952.5 52.5L967.5 52.5L982.5 52.5L997.5 52.5L1012.5 52.5L1027.5 52.5L1042.5 52.5L1057.5 52.5L1072.5 52.5L1087.5 37.5L1102.5 37.5L1117.5 37.5L1132.5 37.5L1147.5 37.5L1162.5 37.5L1177.5 37.5L1192.5 37.5L1207.5 37.5L1222.5 37.5L1237.5 37.5L1252.5 37.5L1267.5 37.5L1282.5 37.5L1297.5 37.5M1252.5 67.5L1267.5 67.5L1282.5 67.5L1297.5 67.5L1312.5 67.5L1327.5 67.5L1342.5 67.5L1357.5 67.5M772.5 82.5L787.5 82.5L802.5 82.5M277.5 127.5L292.5 112.5L307.5 112.5M532.5 82.5L547.5 67.5L562.5 52.5L577.5 37.5M1072.5 82.5L1087.5 82.5L1102.5 82.5L1117.5 82.5M712.5 82.5L727.5 67.5L742.5 67.5L757.5 67.5L772.5 67.5L787.5 52.5L802.5 52.5L817.5 52.5L832.5 52.5L847.5 52.5L862.5 52.5L877.5 52.5L892.5 52.5L907.5 52.5L922.5 52.5M592.5 82.5L607.5 67.5L622.5 67.5L637.5 67.5L652.5 67.5L667.5 67.5L682.5 67.5L697.5 67.5L712.5 67.5M262.5 127.5L277.5 112.5M142.5 157.5L157.5 142.5L172.5 142.5M502.5 97.5L517.5 82.5L532.5 67.5L547.5 52.5L562.5 37.5M577.5 67.5L592.5 67.5L607.5 52.5L622.5 52.5L637.5 52.5L652.5 52.5L667.5 52.5L682.5 52.5L697.5 52.5L712.5 52.5L727.5 52.5L742.5 52.5L757.5 52.5L772.5 52.5L787.5 37.5L802.5 37.5L817.5 37.5L832.5 37.5M427.5 112.5L442.5 97.5L457.5 97.5M487.5 97.5L502.5 82.5L517.5 67.5L532.5 52.5L547.5 37.5M817.5 82.5L832.5 67.5L847.5 67.5M247.5 127.5L262.5 112.5M802.5 67.5L817.5 67.5M472.5 112.5L487.5 112.5M-7.5 202.5L7.5 202.5L22.5 187.5L37.5 187.5L52.5 187.5L67.5 187.5L82.5 172.5L97.5 157.5L112.5 157.5L127.5 157.5L142.5 157.5L157.5 157.5L172.5 157.5L187.5 142.5L202.5 142.5L217.5 127.5L232.5 127.5L247.5 127.5L262.5 127.5L277.5 127.5L292.5 127.5L307.5 127.5L322.5 112.5L337.5 112.5L352.5 112.5L367.5 112.5L382.5 112.5L397.5 112.5L412.5 112.5L427.5 112.5L442.5 112.5L457.5 112.5L472.5 112.5L487.5 97.5L502.5 97.5L517.5 97.5L532.5 82.5L547.5 82.5L562.5 67.5L577.5 67.5L592.5 82.5L607.5 82.5L622.5 82.5L637.5 82.5L652.5 82.5L667.5 82.5L682.5 82.5L697.5 82.5L712.5 82.5L727.5 82.5L742.5 82.5L757.5 82.5L772.5 82.5L787.5 67.5L802.5 67.5L817.5 82.5L832.5 82.5L847.5 82.5L862.5 82.5L877.5 82.5L892.5 82.5L907.5 82.5L922.5 82.5L937.5 82.5L952.5 82.5L967.5 82.5L982.5 82.5L997.5 82.5L1012.5 82.5L1027.5 82.5L1042.5 82.5L1057.5 82.5L1072.5 82.5L1087.5 67.5L1102.5 67.5L1117.5 67.5L1132.5 67.5L1147.5 67.5L1162.5 67.5L1177.5 67.5L1192.5 67.5L1207.5 67.5L1222.5 67.5L1237.5 67.5L1252.5 67.5L1267.5 82.5" stroke="rgba(101, 13, 94, 1)" stroke-width="2.5"></path><path d="M1263.75 82.5 a3.75 3.75 0 1 0 7.5 0 a3.75 3.75 0 1 0 -7.5 0zM1248.75 82.5 a3.75 3.75 0 1 0 7.5 0 a3.75 3.75 0 1 0 -7.5 0zM1413.75 52.5 a3.75 3.75 0 1 0 7.5 0 a3.75 3.75 0 1 0 -7.5 0zM723.75 37.5 a3.75 3.75 0 1 0 7.5 0 a3.75 3.75 0 1 0 -7.5 0zM1293.75 37.5 a3.75 3.75 0 1 0 7.5 0 a3.75 3.75 0 1 0 -7.5 0zM1353.75 67.5 a3.75 3.75 0 1 0 7.5 0 a3.75 3.75 0 1 0 -7.5 0zM798.75 82.5 a3.75 3.75 0 1 0 7.5 0 a3.75 3.75 0 1 0 -7.5 0zM303.75 112.5 a3.75 3.75 0 1 0 7.5 0 a3.75 3.75 0 1 0 -7.5 0zM573.75 37.5 a3.75 3.75 0 1 0 7.5 0 a3.75 3.75 0 1 0 -7.5 0zM1113.75 82.5 a3.75 3.75 0 1 0 7.5 0 a3.75 3.75 0 1 0 -7.5 0zM918.75 52.5 a3.75 3.75 0 1 0 7.5 0 a3.75 3.75 0 1 0 -7.5 0zM708.75 67.5 a3.75 3.75 0 1 0 7.5 0 a3.75 3.75 0 1 0 -7.5 0zM273.75 112.5 a3.75 3.75 0 1 0 7.5 0 a3.75 3.75 0 1 0 -7.5 0zM168.75 142.5 a3.75 3.75 0 1 0 7.5 0 a3.75 3.75 0 1 0 -7.5 0zM558.75 37.5 a3.75 3.75 0 1 0 7.5 0 a3.75 3.75 0 1 0 -7.5 0zM828.75 37.5 a3.75 3.75 0 1 0 7.5 0 a3.75 3.75 0 1 0 -7.5 0zM453.75 97.5 a3.75 3.75 0 1 0 7.5 0 a3.75 3.75 0 1 0 -7.5 0zM543.75 37.5 a3.75 3.75 0 1 0 7.5 0 a3.75 3.75 0 1 0 -7.5 0zM843.75 67.5 a3.75 3.75 0 1 0 7.5 0 a3.75 3.75 0 1 0 -7.5 0zM258.75 112.5 a3.75 3.75 0 1 0 7.5 0 a3.75 3.75 0 1 0 -7.5 0zM813.75 67.5 a3.75 3.75 0 1 0 7.5 0 a3.75 3.75 0 1 0 -7.5 0zM483.75 112.5 a3.75 3.75 0 1 0 7.5 0 a3.75 3.75 0 1 0 -7.5 0z" fill="rgba(101, 13, 94, 1)"></path><path d="M472.5 637.5L487.5 652.5L502.5 652.5L517.5 652.5L532.5 652.5L547.5 652.5M112.5 547.5L127.5 562.5L142.5 577.5L157.5 592.5L172.5 592.5M877.5 652.5L892.5 667.5L907.5 667.5L922.5 667.5L937.5 667.5L952.5 667.5L967.5 667.5L982.5 667.5L997.5 667.5L1012.5 667.5L1027.5 667.5L1042.5 667.5M202.5 577.5L217.5 592.5L232.5 592.5M562.5 637.5L577.5 652.5L592.5 652.5L607.5 652.5L622.5 667.5M187.5 577.5L202.5 592.5L217.5 607.5L232.5 607.5L247.5 607.5L262.5 607.5M1087.5 667.5L1102.5 667.5L1117.5 667.5M1027.5 652.5L1042.5 637.5L1057.5 637.5M1102.5 682.5L1117.5 697.5L1132.5 697.5L1147.5 697.5L1162.5 682.5L1177.5 682.5L1192.5 682.5L1207.5 682.5L1222.5 682.5L1237.5 682.5L1252.5 682.5L1267.5 697.5L1282.5 697.5L1297.5 697.5L1312.5 697.5L1327.5 697.5M697.5 652.5L712.5 637.5L727.5 622.5L742.5 622.5L757.5 622.5L772.5 637.5L787.5 637.5L802.5 637.5L817.5 637.5L832.5 637.5M442.5 637.5L457.5 652.5L472.5 652.5L487.5 667.5L502.5 667.5L517.5 667.5L532.5 667.5L547.5 667.5L562.5 667.5L577.5 667.5L592.5 667.5L607.5 667.5L622.5 682.5L637.5 697.5L652.5 697.5M667.5 652.5L682.5 667.5L697.5 682.5L712.5 682.5L727.5 682.5L742.5 682.5L757.5 682.5L772.5 697.5L787.5 697.5L802.5 697.5L817.5 697.5L832.5 697.5L847.5 682.5L862.5 682.5L877.5 697.5L892.5 697.5L907.5 697.5L922.5 697.5L937.5 697.5L952.5 697.5L967.5 697.5L982.5 697.5L997.5 682.5L1012.5 682.5L1027.5 682.5L1042.5 682.5L1057.5 682.5L1072.5 682.5L1087.5 682.5L1102.5 697.5M577.5 637.5L592.5 622.5L607.5 622.5L622.5 622.5L637.5 622.5L652.5 622.5L667.5 622.5L682.5 622.5L697.5 622.5L712.5 622.5M22.5 532.5L37.5 547.5L52.5 562.5L67.5 562.5L82.5 562.5L97.5 562.5L112.5 562.5L127.5 577.5L142.5 592.5L157.5 607.5L172.5 607.5L187.5 607.5L202.5 622.5L217.5 622.5L232.5 622.5L247.5 622.5L262.5 637.5L277.5 637.5M427.5 637.5L442.5 652.5L457.5 667.5M862.5 652.5L877.5 667.5L892.5 682.5L907.5 682.5L922.5 682.5L937.5 682.5L952.5 682.5L967.5 682.5L982.5 682.5M772.5 652.5L787.5 667.5L802.5 682.5L817.5 682.5L832.5 682.5L847.5 667.5L862.5 667.5M382.5 607.5L397.5 622.5M712.5 652.5L727.5 667.5M337.5 607.5L352.5 622.5L367.5 622.5L382.5 622.5L397.5 637.5L412.5 637.5M-7.5 532.5L7.5 532.5L22.5 532.5L37.5 532.5L52.5 547.5L67.5 547.5L82.5 547.5L97.5 547.5L112.5 547.5L127.5 547.5L142.5 562.5L157.5 577.5L172.5 577.5L187.5 577.5L202.5 577.5L217.5 577.5L232.5 577.5L247.5 577.5L262.5 577.5L277.5 577.5L292.5 577.5L307.5 577.5L322.5 592.5L337.5 607.5L352.5 607.5L367.5 607.5L382.5 607.5L397.5 607.5L412.5 622.5L427.5 637.5L442.5 637.5L457.5 637.5L472.5 637.5L487.5 637.5L502.5 637.5L517.5 637.5L532.5 637.5L547.5 637.5L562.5 637.5L577.5 637.5L592.5 637.5L607.5 637.5L622.5 652.5L637.5 652.5L652.5 652.5L667.5 652.5L682.5 652.5L697.5 652.5L712.5 652.5L727.5 652.5L742.5 667.5L757.5 667.5L772.5 652.5L787.5 652.5L802.5 652.5L817.5 652.5L832.5 652.5L847.5 652.5L862.5 652.5L877.5 652.5L892.5 652.5L907.5 652.5L922.5 652.5L937.5 652.5L952.5 652.5L967.5 652.5L982.5 652.5L997.5 652.5L1012.5 652.5L1027.5 652.5L1042.5 652.5L1057.5 652.5L1072.5 652.5L1087.5 667.5L1102.5 682.5L1117.5 682.5L1132.5 667.5L1147.5 667.5L1162.5 667.5L1177.5 667.5L1192.5 667.5L1207.5 667.5" stroke="rgba(0, 187, 211, 1)" stroke-width="2.5"></path><path d="M1203.75 667.5 a3.75 3.75 0 1 0 7.5 0 a3.75 3.75 0 1 0 -7.5 0zM543.75 652.5 a3.75 3.75 0 1 0 7.5 0 a3.75 3.75 0 1 0 -7.5 0zM168.75 592.5 a3.75 3.75 0 1 0 7.5 0 a3.75 3.75 0 1 0 -7.5 0zM1038.75 667.5 a3.75 3.75 0 1 0 7.5 0 a3.75 3.75 0 1 0 -7.5 0zM228.75 592.5 a3.75 3.75 0 1 0 7.5 0 a3.75 3.75 0 1 0 -7.5 0zM618.75 667.5 a3.75 3.75 0 1 0 7.5 0 a3.75 3.75 0 1 0 -7.5 0zM258.75 607.5 a3.75 3.75 0 1 0 7.5 0 a3.75 3.75 0 1 0 -7.5 0zM1113.75 667.5 a3.75 3.75 0 1 0 7.5 0 a3.75 3.75 0 1 0 -7.5 0zM1053.75 637.5 a3.75 3.75 0 1 0 7.5 0 a3.75 3.75 0 1 0 -7.5 0zM1323.75 697.5 a3.75 3.75 0 1 0 7.5 0 a3.75 3.75 0 1 0 -7.5 0zM828.75 637.5 a3.75 3.75 0 1 0 7.5 0 a3.75 3.75 0 1 0 -7.5 0zM648.75 697.5 a3.75 3.75 0 1 0 7.5 0 a3.75 3.75 0 1 0 -7.5 0zM1098.75 697.5 a3.75 3.75 0 1 0 7.5 0 a3.75 3.75 0 1 0 -7.5 0zM708.75 622.5 a3.75 3.75 0 1 0 7.5 0 a3.75 3.75 0 1 0 -7.5 0zM273.75 637.5 a3.75 3.75 0 1 0 7.5 0 a3.75 3.75 0 1 0 -7.5 0zM453.75 667.5 a3.75 3.75 0 1 0 7.5 0 a3.75 3.75 0 1 0 -7.5 0zM978.75 682.5 a3.75 3.75 0 1 0 7.5 0 a3.75 3.75 0 1 0 -7.5 0zM858.75 667.5 a3.75 3.75 0 1 0 7.5 0 a3.75 3.75 0 1 0 -7.5 0zM393.75 622.5 a3.75 3.75 0 1 0 7.5 0 a3.75 3.75 0 1 0 -7.5 0zM723.75 667.5 a3.75 3.75 0 1 0 7.5 0 a3.75 3.75 0 1 0 -7.5 0zM408.75 637.5 a3.75 3.75 0 1 0 7.5 0 a3.75 3.75 0 1 0 -7.5 0z" fill="rgba(0, 187, 211, 1)"></path><path d="M412.5 97.5L427.5 97.5M337.5 97.5L352.5 82.5L367.5 82.5L382.5 82.5L397.5 82.5L412.5 82.5M172.5 127.5L187.5 112.5M442.5 82.5L457.5 67.5L472.5 67.5L487.5 67.5L502.5 67.5L517.5 52.5L532.5 37.5M112.5 142.5L127.5 142.5L142.5 142.5M157.5 127.5L172.5 112.5M322.5 97.5L337.5 82.5L352.5 67.5L367.5 67.5M427.5 82.5L442.5 67.5L457.5 52.5L472.5 52.5L487.5 52.5L502.5 52.5L517.5 37.5M-7.5 187.5L7.5 187.5L22.5 172.5L37.5 172.5L52.5 172.5L67.5 157.5L82.5 157.5L97.5 142.5L112.5 142.5L127.5 127.5L142.5 127.5L157.5 127.5L172.5 127.5L187.5 127.5L202.5 127.5L217.5 112.5L232.5 97.5L247.5 97.5L262.5 97.5L277.5 97.5L292.5 97.5L307.5 97.5L322.5 97.5L337.5 97.5L352.5 97.5L367.5 97.5L382.5 97.5L397.5 97.5L412.5 97.5L427.5 82.5L442.5 82.5L457.5 82.5L472.5 97.5" stroke="rgba(101, 13, 94, 1)" stroke-width="2.5"></path><path d="M468.75 97.5 a3.75 3.75 0 1 0 7.5 0 a3.75 3.75 0 1 0 -7.5 0zM423.75 97.5 a3.75 3.75 0 1 0 7.5 0 a3.75 3.75 0 1 0 -7.5 0zM408.75 82.5 a3.75 3.75 0 1 0 7.5 0 a3.75 3.75 0 1 0 -7.5 0zM183.75 112.5 a3.75 3.75 0 1 0 7.5 0 a3.75 3.75 0 1 0 -7.5 0zM528.75 37.5 a3.75 3.75 0 1 0 7.5 0 a3.75 3.75 0 1 0 -7.5 0zM138.75 142.5 a3.75 3.75 0 1 0 7.5 0 a3.75 3.75 0 1 0 -7.5 0zM168.75 112.5 a3.75 3.75 0 1 0 7.5 0 a3.75 3.75 0 1 0 -7.5 0zM363.75 67.5 a3.75 3.75 0 1 0 7.5 0 a3.75 3.75 0 1 0 -7.5 0zM513.75 37.5 a3.75 3.75 0 1 0 7.5 0 a3.75 3.75 0 1 0 -7.5 0z" fill="rgba(101, 13, 94, 1)"></path></g></g><defs><mask id="SvgjsMask1024"><rect width="1440" height="720" fill="#ffffff"></rect></mask><linearGradient x1="12.5%" y1="-25%" x2="87.5%" y2="125%" gradientUnits="userSpaceOnUse" id="SvgjsLinearGradient1025"><stop stop-color="rgba(6, 6, 6, 1)" offset="0"></stop><stop stop-color="rgba(0, 0, 0, 1)" offset="1"></stop></linearGradient><mask id="SvgjsMask1026"><rect width="1440" height="720" fill="white"></rect><path d="M950.62 337.5 a1.88 1.88 0 1 0 3.76 0 a1.88 1.88 0 1 0 -3.76 0zM770.62 352.5 a1.88 1.88 0 1 0 3.76 0 a1.88 1.88 0 1 0 -3.76 0zM335.62 367.5 a1.88 1.88 0 1 0 3.76 0 a1.88 1.88 0 1 0 -3.76 0zM590.62 337.5 a1.88 1.88 0 1 0 3.76 0 a1.88 1.88 0 1 0 -3.76 0zM905.62 367.5 a1.88 1.88 0 1 0 3.76 0 a1.88 1.88 0 1 0 -3.76 0zM725.62 367.5 a1.88 1.88 0 1 0 3.76 0 a1.88 1.88 0 1 0 -3.76 0zM485.62 352.5 a1.88 1.88 0 1 0 3.76 0 a1.88 1.88 0 1 0 -3.76 0zM470.62 337.5 a1.88 1.88 0 1 0 3.76 0 a1.88 1.88 0 1 0 -3.76 0zM485.62 367.5 a1.88 1.88 0 1 0 3.76 0 a1.88 1.88 0 1 0 -3.76 0zM830.62 322.5 a1.88 1.88 0 1 0 3.76 0 a1.88 1.88 0 1 0 -3.76 0zM650.62 322.5 a1.88 1.88 0 1 0 3.76 0 a1.88 1.88 0 1 0 -3.76 0zM170.62 367.5 a1.88 1.88 0 1 0 3.76 0 a1.88 1.88 0 1 0 -3.76 0zM710.62 322.5 a1.88 1.88 0 1 0 3.76 0 a1.88 1.88 0 1 0 -3.76 0zM770.62 322.5 a1.88 1.88 0 1 0 3.76 0 a1.88 1.88 0 1 0 -3.76 0zM800.62 352.5 a1.88 1.88 0 1 0 3.76 0 a1.88 1.88 0 1 0 -3.76 0zM680.62 322.5 a1.88 1.88 0 1 0 3.76 0 a1.88 1.88 0 1 0 -3.76 0zM485.62 382.5 a1.88 1.88 0 1 0 3.76 0 a1.88 1.88 0 1 0 -3.76 0z" fill="black"></path><path d="M185.62 352.5 a1.88 1.88 0 1 0 3.76 0 a1.88 1.88 0 1 0 -3.76 0zM125.62 337.5 a1.88 1.88 0 1 0 3.76 0 a1.88 1.88 0 1 0 -3.76 0zM95.62 337.5 a1.88 1.88 0 1 0 3.76 0 a1.88 1.88 0 1 0 -3.76 0zM50.62 337.5 a1.88 1.88 0 1 0 3.76 0 a1.88 1.88 0 1 0 -3.76 0z" fill="black"></path><path d="M380.62 412.5 a1.88 1.88 0 1 0 3.76 0 a1.88 1.88 0 1 0 -3.76 0zM290.62 397.5 a1.88 1.88 0 1 0 3.76 0 a1.88 1.88 0 1 0 -3.76 0zM380.62 397.5 a1.88 1.88 0 1 0 3.76 0 a1.88 1.88 0 1 0 -3.76 0zM260.62 397.5 a1.88 1.88 0 1 0 3.76 0 a1.88 1.88 0 1 0 -3.76 0zM380.62 382.5 a1.88 1.88 0 1 0 3.76 0 a1.88 1.88 0 1 0 -3.76 0zM380.62 367.5 a1.88 1.88 0 1 0 3.76 0 a1.88 1.88 0 1 0 -3.76 0zM260.62 382.5 a1.88 1.88 0 1 0 3.76 0 a1.88 1.88 0 1 0 -3.76 0z" fill="black"></path><path d="M1085.62 322.5 a1.88 1.88 0 1 0 3.76 0 a1.88 1.88 0 1 0 -3.76 0zM365.62 322.5 a1.88 1.88 0 1 0 3.76 0 a1.88 1.88 0 1 0 -3.76 0zM1235.62 352.5 a1.88 1.88 0 1 0 3.76 0 a1.88 1.88 0 1 0 -3.76 0zM620.62 292.5 a1.88 1.88 0 1 0 3.76 0 a1.88 1.88 0 1 0 -3.76 0zM665.62 292.5 a1.88 1.88 0 1 0 3.76 0 a1.88 1.88 0 1 0 -3.76 0zM1085.62 292.5 a1.88 1.88 0 1 0 3.76 0 a1.88 1.88 0 1 0 -3.76 0zM980.62 292.5 a1.88 1.88 0 1 0 3.76 0 a1.88 1.88 0 1 0 -3.76 0zM800.62 292.5 a1.88 1.88 0 1 0 3.76 0 a1.88 1.88 0 1 0 -3.76 0zM35.62 337.5 a1.88 1.88 0 1 0 3.76 0 a1.88 1.88 0 1 0 -3.76 0zM290.62 322.5 a1.88 1.88 0 1 0 3.76 0 a1.88 1.88 0 1 0 -3.76 0zM950.62 322.5 a1.88 1.88 0 1 0 3.76 0 a1.88 1.88 0 1 0 -3.76 0zM920.62 292.5 a1.88 1.88 0 1 0 3.76 0 a1.88 1.88 0 1 0 -3.76 0zM200.62 337.5 a1.88 1.88 0 1 0 3.76 0 a1.88 1.88 0 1 0 -3.76 0zM275.62 322.5 a1.88 1.88 0 1 0 3.76 0 a1.88 1.88 0 1 0 -3.76 0zM950.62 232.5 a1.88 1.88 0 1 0 3.76 0 a1.88 1.88 0 1 0 -3.76 0zM740.62 322.5 a1.88 1.88 0 1 0 3.76 0 a1.88 1.88 0 1 0 -3.76 0zM1070.62 322.5 a1.88 1.88 0 1 0 3.76 0 a1.88 1.88 0 1 0 -3.76 0zM905.62 322.5 a1.88 1.88 0 1 0 3.76 0 a1.88 1.88 0 1 0 -3.76 0zM320.62 352.5 a1.88 1.88 0 1 0 3.76 0 a1.88 1.88 0 1 0 -3.76 0z" fill="black"></path><path d="M1160.62 457.5 a1.88 1.88 0 1 0 3.76 0 a1.88 1.88 0 1 0 -3.76 0zM1100.62 472.5 a1.88 1.88 0 1 0 3.76 0 a1.88 1.88 0 1 0 -3.76 0zM500.62 427.5 a1.88 1.88 0 1 0 3.76 0 a1.88 1.88 0 1 0 -3.76 0zM740.62 427.5 a1.88 1.88 0 1 0 3.76 0 a1.88 1.88 0 1 0 -3.76 0zM740.62 397.5 a1.88 1.88 0 1 0 3.76 0 a1.88 1.88 0 1 0 -3.76 0zM590.62 397.5 a1.88 1.88 0 1 0 3.76 0 a1.88 1.88 0 1 0 -3.76 0zM710.62 457.5 a1.88 1.88 0 1 0 3.76 0 a1.88 1.88 0 1 0 -3.76 0zM845.62 457.5 a1.88 1.88 0 1 0 3.76 0 a1.88 1.88 0 1 0 -3.76 0zM575.62 457.5 a1.88 1.88 0 1 0 3.76 0 a1.88 1.88 0 1 0 -3.76 0zM1115.62 487.5 a1.88 1.88 0 1 0 3.76 0 a1.88 1.88 0 1 0 -3.76 0zM950.62 472.5 a1.88 1.88 0 1 0 3.76 0 a1.88 1.88 0 1 0 -3.76 0zM935.62 442.5 a1.88 1.88 0 1 0 3.76 0 a1.88 1.88 0 1 0 -3.76 0zM1130.62 382.5 a1.88 1.88 0 1 0 3.76 0 a1.88 1.88 0 1 0 -3.76 0zM725.62 412.5 a1.88 1.88 0 1 0 3.76 0 a1.88 1.88 0 1 0 -3.76 0zM605.62 427.5 a1.88 1.88 0 1 0 3.76 0 a1.88 1.88 0 1 0 -3.76 0zM1145.62 442.5 a1.88 1.88 0 1 0 3.76 0 a1.88 1.88 0 1 0 -3.76 0zM890.62 442.5 a1.88 1.88 0 1 0 3.76 0 a1.88 1.88 0 1 0 -3.76 0zM530.62 412.5 a1.88 1.88 0 1 0 3.76 0 a1.88 1.88 0 1 0 -3.76 0zM1100.62 367.5 a1.88 1.88 0 1 0 3.76 0 a1.88 1.88 0 1 0 -3.76 0zM1160.62 517.5 a1.88 1.88 0 1 0 3.76 0 a1.88 1.88 0 1 0 -3.76 0z" fill="black"></path><path d="M710.62 247.5 a1.88 1.88 0 1 0 3.76 0 a1.88 1.88 0 1 0 -3.76 0zM785.62 232.5 a1.88 1.88 0 1 0 3.76 0 a1.88 1.88 0 1 0 -3.76 0zM320.62 292.5 a1.88 1.88 0 1 0 3.76 0 a1.88 1.88 0 1 0 -3.76 0zM770.62 262.5 a1.88 1.88 0 1 0 3.76 0 a1.88 1.88 0 1 0 -3.76 0zM635.62 277.5 a1.88 1.88 0 1 0 3.76 0 a1.88 1.88 0 1 0 -3.76 0zM470.62 292.5 a1.88 1.88 0 1 0 3.76 0 a1.88 1.88 0 1 0 -3.76 0zM650.62 232.5 a1.88 1.88 0 1 0 3.76 0 a1.88 1.88 0 1 0 -3.76 0zM140.62 292.5 a1.88 1.88 0 1 0 3.76 0 a1.88 1.88 0 1 0 -3.76 0zM635.62 232.5 a1.88 1.88 0 1 0 3.76 0 a1.88 1.88 0 1 0 -3.76 0zM500.62 277.5 a1.88 1.88 0 1 0 3.76 0 a1.88 1.88 0 1 0 -3.76 0zM530.62 247.5 a1.88 1.88 0 1 0 3.76 0 a1.88 1.88 0 1 0 -3.76 0zM170.62 292.5 a1.88 1.88 0 1 0 3.76 0 a1.88 1.88 0 1 0 -3.76 0zM755.62 277.5 a1.88 1.88 0 1 0 3.76 0 a1.88 1.88 0 1 0 -3.76 0z" fill="black"></path><path d="M1055.62 577.5 a1.88 1.88 0 1 0 3.76 0 a1.88 1.88 0 1 0 -3.76 0zM1025.62 592.5 a1.88 1.88 0 1 0 3.76 0 a1.88 1.88 0 1 0 -3.76 0zM995.62 592.5 a1.88 1.88 0 1 0 3.76 0 a1.88 1.88 0 1 0 -3.76 0zM380.62 457.5 a1.88 1.88 0 1 0 3.76 0 a1.88 1.88 0 1 0 -3.76 0zM260.62 457.5 a1.88 1.88 0 1 0 3.76 0 a1.88 1.88 0 1 0 -3.76 0zM1070.62 547.5 a1.88 1.88 0 1 0 3.76 0 a1.88 1.88 0 1 0 -3.76 0zM890.62 532.5 a1.88 1.88 0 1 0 3.76 0 a1.88 1.88 0 1 0 -3.76 0zM710.62 547.5 a1.88 1.88 0 1 0 3.76 0 a1.88 1.88 0 1 0 -3.76 0zM665.62 487.5 a1.88 1.88 0 1 0 3.76 0 a1.88 1.88 0 1 0 -3.76 0zM635.62 487.5 a1.88 1.88 0 1 0 3.76 0 a1.88 1.88 0 1 0 -3.76 0zM905.62 562.5 a1.88 1.88 0 1 0 3.76 0 a1.88 1.88 0 1 0 -3.76 0zM800.62 517.5 a1.88 1.88 0 1 0 3.76 0 a1.88 1.88 0 1 0 -3.76 0zM965.62 592.5 a1.88 1.88 0 1 0 3.76 0 a1.88 1.88 0 1 0 -3.76 0zM710.62 517.5 a1.88 1.88 0 1 0 3.76 0 a1.88 1.88 0 1 0 -3.76 0zM860.62 532.5 a1.88 1.88 0 1 0 3.76 0 a1.88 1.88 0 1 0 -3.76 0zM1040.62 532.5 a1.88 1.88 0 1 0 3.76 0 a1.88 1.88 0 1 0 -3.76 0zM560.62 457.5 a1.88 1.88 0 1 0 3.76 0 a1.88 1.88 0 1 0 -3.76 0zM695.62 517.5 a1.88 1.88 0 1 0 3.76 0 a1.88 1.88 0 1 0 -3.76 0zM950.62 547.5 a1.88 1.88 0 1 0 3.76 0 a1.88 1.88 0 1 0 -3.76 0z" fill="black"></path><path d="M1310.62 187.5 a1.88 1.88 0 1 0 3.76 0 a1.88 1.88 0 1 0 -3.76 0zM260.62 262.5 a1.88 1.88 0 1 0 3.76 0 a1.88 1.88 0 1 0 -3.76 0zM1130.62 232.5 a1.88 1.88 0 1 0 3.76 0 a1.88 1.88 0 1 0 -3.76 0zM1415.62 232.5 a1.88 1.88 0 1 0 3.76 0 a1.88 1.88 0 1 0 -3.76 0zM1085.62 217.5 a1.88 1.88 0 1 0 3.76 0 a1.88 1.88 0 1 0 -3.76 0zM875.62 202.5 a1.88 1.88 0 1 0 3.76 0 a1.88 1.88 0 1 0 -3.76 0zM125.62 292.5 a1.88 1.88 0 1 0 3.76 0 a1.88 1.88 0 1 0 -3.76 0zM935.62 232.5 a1.88 1.88 0 1 0 3.76 0 a1.88 1.88 0 1 0 -3.76 0zM1415.62 247.5 a1.88 1.88 0 1 0 3.76 0 a1.88 1.88 0 1 0 -3.76 0zM695.62 202.5 a1.88 1.88 0 1 0 3.76 0 a1.88 1.88 0 1 0 -3.76 0zM1175.62 202.5 a1.88 1.88 0 1 0 3.76 0 a1.88 1.88 0 1 0 -3.76 0zM920.62 247.5 a1.88 1.88 0 1 0 3.76 0 a1.88 1.88 0 1 0 -3.76 0zM1415.62 262.5 a1.88 1.88 0 1 0 3.76 0 a1.88 1.88 0 1 0 -3.76 0zM515.62 247.5 a1.88 1.88 0 1 0 3.76 0 a1.88 1.88 0 1 0 -3.76 0zM590.62 232.5 a1.88 1.88 0 1 0 3.76 0 a1.88 1.88 0 1 0 -3.76 0zM665.62 202.5 a1.88 1.88 0 1 0 3.76 0 a1.88 1.88 0 1 0 -3.76 0zM455.62 262.5 a1.88 1.88 0 1 0 3.76 0 a1.88 1.88 0 1 0 -3.76 0zM755.62 217.5 a1.88 1.88 0 1 0 3.76 0 a1.88 1.88 0 1 0 -3.76 0zM1070.62 187.5 a1.88 1.88 0 1 0 3.76 0 a1.88 1.88 0 1 0 -3.76 0zM1100.62 202.5 a1.88 1.88 0 1 0 3.76 0 a1.88 1.88 0 1 0 -3.76 0zM1265.62 187.5 a1.88 1.88 0 1 0 3.76 0 a1.88 1.88 0 1 0 -3.76 0zM1370.62 172.5 a1.88 1.88 0 1 0 3.76 0 a1.88 1.88 0 1 0 -3.76 0zM800.62 202.5 a1.88 1.88 0 1 0 3.76 0 a1.88 1.88 0 1 0 -3.76 0z" fill="black"></path><path d="M605.62 547.5 a1.88 1.88 0 1 0 3.76 0 a1.88 1.88 0 1 0 -3.76 0zM245.62 457.5 a1.88 1.88 0 1 0 3.76 0 a1.88 1.88 0 1 0 -3.76 0zM230.62 457.5 a1.88 1.88 0 1 0 3.76 0 a1.88 1.88 0 1 0 -3.76 0zM470.62 487.5 a1.88 1.88 0 1 0 3.76 0 a1.88 1.88 0 1 0 -3.76 0zM605.62 532.5 a1.88 1.88 0 1 0 3.76 0 a1.88 1.88 0 1 0 -3.76 0zM185.62 457.5 a1.88 1.88 0 1 0 3.76 0 a1.88 1.88 0 1 0 -3.76 0zM140.62 442.5 a1.88 1.88 0 1 0 3.76 0 a1.88 1.88 0 1 0 -3.76 0zM170.62 457.5 a1.88 1.88 0 1 0 3.76 0 a1.88 1.88 0 1 0 -3.76 0zM455.62 487.5 a1.88 1.88 0 1 0 3.76 0 a1.88 1.88 0 1 0 -3.76 0zM95.62 427.5 a1.88 1.88 0 1 0 3.76 0 a1.88 1.88 0 1 0 -3.76 0zM425.62 487.5 a1.88 1.88 0 1 0 3.76 0 a1.88 1.88 0 1 0 -3.76 0z" fill="black"></path><path d="M590.62 202.5 a1.88 1.88 0 1 0 3.76 0 a1.88 1.88 0 1 0 -3.76 0zM290.62 262.5 a1.88 1.88 0 1 0 3.76 0 a1.88 1.88 0 1 0 -3.76 0zM155.62 262.5 a1.88 1.88 0 1 0 3.76 0 a1.88 1.88 0 1 0 -3.76 0z" fill="black"></path><path d="M380.62 487.5 a1.88 1.88 0 1 0 3.76 0 a1.88 1.88 0 1 0 -3.76 0z" fill="black"></path><path d="M1220.62 187.5 a1.88 1.88 0 1 0 3.76 0 a1.88 1.88 0 1 0 -3.76 0zM1295.62 172.5 a1.88 1.88 0 1 0 3.76 0 a1.88 1.88 0 1 0 -3.76 0zM1415.62 142.5 a1.88 1.88 0 1 0 3.76 0 a1.88 1.88 0 1 0 -3.76 0zM485.62 217.5 a1.88 1.88 0 1 0 3.76 0 a1.88 1.88 0 1 0 -3.76 0zM20.62 277.5 a1.88 1.88 0 1 0 3.76 0 a1.88 1.88 0 1 0 -3.76 0zM1055.62 187.5 a1.88 1.88 0 1 0 3.76 0 a1.88 1.88 0 1 0 -3.76 0zM1175.62 157.5 a1.88 1.88 0 1 0 3.76 0 a1.88 1.88 0 1 0 -3.76 0zM230.62 217.5 a1.88 1.88 0 1 0 3.76 0 a1.88 1.88 0 1 0 -3.76 0zM95.62 247.5 a1.88 1.88 0 1 0 3.76 0 a1.88 1.88 0 1 0 -3.76 0zM530.62 202.5 a1.88 1.88 0 1 0 3.76 0 a1.88 1.88 0 1 0 -3.76 0zM215.62 217.5 a1.88 1.88 0 1 0 3.76 0 a1.88 1.88 0 1 0 -3.76 0zM275.62 217.5 a1.88 1.88 0 1 0 3.76 0 a1.88 1.88 0 1 0 -3.76 0zM1010.62 187.5 a1.88 1.88 0 1 0 3.76 0 a1.88 1.88 0 1 0 -3.76 0zM260.62 217.5 a1.88 1.88 0 1 0 3.76 0 a1.88 1.88 0 1 0 -3.76 0z" fill="black"></path><path d="M1250.62 622.5 a1.88 1.88 0 1 0 3.76 0 a1.88 1.88 0 1 0 -3.76 0zM860.62 562.5 a1.88 1.88 0 1 0 3.76 0 a1.88 1.88 0 1 0 -3.76 0zM515.62 532.5 a1.88 1.88 0 1 0 3.76 0 a1.88 1.88 0 1 0 -3.76 0zM1010.62 637.5 a1.88 1.88 0 1 0 3.76 0 a1.88 1.88 0 1 0 -3.76 0zM995.62 637.5 a1.88 1.88 0 1 0 3.76 0 a1.88 1.88 0 1 0 -3.76 0zM1295.62 592.5 a1.88 1.88 0 1 0 3.76 0 a1.88 1.88 0 1 0 -3.76 0zM770.62 592.5 a1.88 1.88 0 1 0 3.76 0 a1.88 1.88 0 1 0 -3.76 0zM725.62 592.5 a1.88 1.88 0 1 0 3.76 0 a1.88 1.88 0 1 0 -3.76 0zM635.62 577.5 a1.88 1.88 0 1 0 3.76 0 a1.88 1.88 0 1 0 -3.76 0zM935.62 592.5 a1.88 1.88 0 1 0 3.76 0 a1.88 1.88 0 1 0 -3.76 0zM1115.62 607.5 a1.88 1.88 0 1 0 3.76 0 a1.88 1.88 0 1 0 -3.76 0zM1400.62 667.5 a1.88 1.88 0 1 0 3.76 0 a1.88 1.88 0 1 0 -3.76 0zM1370.62 637.5 a1.88 1.88 0 1 0 3.76 0 a1.88 1.88 0 1 0 -3.76 0zM905.62 637.5 a1.88 1.88 0 1 0 3.76 0 a1.88 1.88 0 1 0 -3.76 0zM875.62 637.5 a1.88 1.88 0 1 0 3.76 0 a1.88 1.88 0 1 0 -3.76 0zM1160.62 652.5 a1.88 1.88 0 1 0 3.76 0 a1.88 1.88 0 1 0 -3.76 0zM665.62 562.5 a1.88 1.88 0 1 0 3.76 0 a1.88 1.88 0 1 0 -3.76 0zM1115.62 652.5 a1.88 1.88 0 1 0 3.76 0 a1.88 1.88 0 1 0 -3.76 0zM875.62 577.5 a1.88 1.88 0 1 0 3.76 0 a1.88 1.88 0 1 0 -3.76 0zM680.62 607.5 a1.88 1.88 0 1 0 3.76 0 a1.88 1.88 0 1 0 -3.76 0zM1205.62 622.5 a1.88 1.88 0 1 0 3.76 0 a1.88 1.88 0 1 0 -3.76 0zM1250.62 577.5 a1.88 1.88 0 1 0 3.76 0 a1.88 1.88 0 1 0 -3.76 0z" fill="black"></path><path d="M1115.62 157.5 a1.88 1.88 0 1 0 3.76 0 a1.88 1.88 0 1 0 -3.76 0zM155.62 202.5 a1.88 1.88 0 1 0 3.76 0 a1.88 1.88 0 1 0 -3.76 0zM1115.62 142.5 a1.88 1.88 0 1 0 3.76 0 a1.88 1.88 0 1 0 -3.76 0zM425.62 187.5 a1.88 1.88 0 1 0 3.76 0 a1.88 1.88 0 1 0 -3.76 0zM1100.62 142.5 a1.88 1.88 0 1 0 3.76 0 a1.88 1.88 0 1 0 -3.76 0zM1070.62 142.5 a1.88 1.88 0 1 0 3.76 0 a1.88 1.88 0 1 0 -3.76 0zM350.62 187.5 a1.88 1.88 0 1 0 3.76 0 a1.88 1.88 0 1 0 -3.76 0zM515.62 172.5 a1.88 1.88 0 1 0 3.76 0 a1.88 1.88 0 1 0 -3.76 0zM455.62 187.5 a1.88 1.88 0 1 0 3.76 0 a1.88 1.88 0 1 0 -3.76 0zM350.62 172.5 a1.88 1.88 0 1 0 3.76 0 a1.88 1.88 0 1 0 -3.76 0zM170.62 217.5 a1.88 1.88 0 1 0 3.76 0 a1.88 1.88 0 1 0 -3.76 0zM140.62 202.5 a1.88 1.88 0 1 0 3.76 0 a1.88 1.88 0 1 0 -3.76 0zM545.62 157.5 a1.88 1.88 0 1 0 3.76 0 a1.88 1.88 0 1 0 -3.76 0zM80.62 247.5 a1.88 1.88 0 1 0 3.76 0 a1.88 1.88 0 1 0 -3.76 0z" fill="black"></path><path d="M485.62 547.5 a1.88 1.88 0 1 0 3.76 0 a1.88 1.88 0 1 0 -3.76 0zM485.62 532.5 a1.88 1.88 0 1 0 3.76 0 a1.88 1.88 0 1 0 -3.76 0zM470.62 517.5 a1.88 1.88 0 1 0 3.76 0 a1.88 1.88 0 1 0 -3.76 0zM65.62 472.5 a1.88 1.88 0 1 0 3.76 0 a1.88 1.88 0 1 0 -3.76 0zM530.62 562.5 a1.88 1.88 0 1 0 3.76 0 a1.88 1.88 0 1 0 -3.76 0zM410.62 532.5 a1.88 1.88 0 1 0 3.76 0 a1.88 1.88 0 1 0 -3.76 0zM500.62 577.5 a1.88 1.88 0 1 0 3.76 0 a1.88 1.88 0 1 0 -3.76 0zM335.62 532.5 a1.88 1.88 0 1 0 3.76 0 a1.88 1.88 0 1 0 -3.76 0z" fill="black"></path><path d="M1250.62 127.5 a1.88 1.88 0 1 0 3.76 0 a1.88 1.88 0 1 0 -3.76 0zM110.62 217.5 a1.88 1.88 0 1 0 3.76 0 a1.88 1.88 0 1 0 -3.76 0zM1130.62 97.5 a1.88 1.88 0 1 0 3.76 0 a1.88 1.88 0 1 0 -3.76 0zM1055.62 97.5 a1.88 1.88 0 1 0 3.76 0 a1.88 1.88 0 1 0 -3.76 0zM845.62 127.5 a1.88 1.88 0 1 0 3.76 0 a1.88 1.88 0 1 0 -3.76 0zM530.62 157.5 a1.88 1.88 0 1 0 3.76 0 a1.88 1.88 0 1 0 -3.76 0zM125.62 202.5 a1.88 1.88 0 1 0 3.76 0 a1.88 1.88 0 1 0 -3.76 0zM1160.62 97.5 a1.88 1.88 0 1 0 3.76 0 a1.88 1.88 0 1 0 -3.76 0zM1280.62 127.5 a1.88 1.88 0 1 0 3.76 0 a1.88 1.88 0 1 0 -3.76 0zM275.62 172.5 a1.88 1.88 0 1 0 3.76 0 a1.88 1.88 0 1 0 -3.76 0zM260.62 172.5 a1.88 1.88 0 1 0 3.76 0 a1.88 1.88 0 1 0 -3.76 0zM1100.62 112.5 a1.88 1.88 0 1 0 3.76 0 a1.88 1.88 0 1 0 -3.76 0zM395.62 172.5 a1.88 1.88 0 1 0 3.76 0 a1.88 1.88 0 1 0 -3.76 0zM1415.62 67.5 a1.88 1.88 0 1 0 3.76 0 a1.88 1.88 0 1 0 -3.76 0zM380.62 142.5 a1.88 1.88 0 1 0 3.76 0 a1.88 1.88 0 1 0 -3.76 0zM1175.62 112.5 a1.88 1.88 0 1 0 3.76 0 a1.88 1.88 0 1 0 -3.76 0zM230.62 172.5 a1.88 1.88 0 1 0 3.76 0 a1.88 1.88 0 1 0 -3.76 0zM1130.62 127.5 a1.88 1.88 0 1 0 3.76 0 a1.88 1.88 0 1 0 -3.76 0zM1085.62 112.5 a1.88 1.88 0 1 0 3.76 0 a1.88 1.88 0 1 0 -3.76 0zM665.62 127.5 a1.88 1.88 0 1 0 3.76 0 a1.88 1.88 0 1 0 -3.76 0zM365.62 142.5 a1.88 1.88 0 1 0 3.76 0 a1.88 1.88 0 1 0 -3.76 0zM440.62 157.5 a1.88 1.88 0 1 0 3.76 0 a1.88 1.88 0 1 0 -3.76 0z" fill="black"></path><path d="M365.62 532.5 a1.88 1.88 0 1 0 3.76 0 a1.88 1.88 0 1 0 -3.76 0zM380.62 547.5 a1.88 1.88 0 1 0 3.76 0 a1.88 1.88 0 1 0 -3.76 0zM50.62 487.5 a1.88 1.88 0 1 0 3.76 0 a1.88 1.88 0 1 0 -3.76 0zM320.62 532.5 a1.88 1.88 0 1 0 3.76 0 a1.88 1.88 0 1 0 -3.76 0z" fill="black"></path><path d="M110.62 187.5 a1.88 1.88 0 1 0 3.76 0 a1.88 1.88 0 1 0 -3.76 0z" fill="black"></path><path d="M560.62 592.5 a1.88 1.88 0 1 0 3.76 0 a1.88 1.88 0 1 0 -3.76 0zM395.62 577.5 a1.88 1.88 0 1 0 3.76 0 a1.88 1.88 0 1 0 -3.76 0zM545.62 607.5 a1.88 1.88 0 1 0 3.76 0 a1.88 1.88 0 1 0 -3.76 0zM485.62 607.5 a1.88 1.88 0 1 0 3.76 0 a1.88 1.88 0 1 0 -3.76 0zM470.62 577.5 a1.88 1.88 0 1 0 3.76 0 a1.88 1.88 0 1 0 -3.76 0zM590.62 577.5 a1.88 1.88 0 1 0 3.76 0 a1.88 1.88 0 1 0 -3.76 0zM455.62 562.5 a1.88 1.88 0 1 0 3.76 0 a1.88 1.88 0 1 0 -3.76 0zM365.62 577.5 a1.88 1.88 0 1 0 3.76 0 a1.88 1.88 0 1 0 -3.76 0zM530.62 622.5 a1.88 1.88 0 1 0 3.76 0 a1.88 1.88 0 1 0 -3.76 0zM530.62 577.5 a1.88 1.88 0 1 0 3.76 0 a1.88 1.88 0 1 0 -3.76 0z" fill="black"></path><path d="M950.62 127.5 a1.88 1.88 0 1 0 3.76 0 a1.88 1.88 0 1 0 -3.76 0zM95.62 187.5 a1.88 1.88 0 1 0 3.76 0 a1.88 1.88 0 1 0 -3.76 0zM350.62 142.5 a1.88 1.88 0 1 0 3.76 0 a1.88 1.88 0 1 0 -3.76 0zM860.62 97.5 a1.88 1.88 0 1 0 3.76 0 a1.88 1.88 0 1 0 -3.76 0zM575.62 82.5 a1.88 1.88 0 1 0 3.76 0 a1.88 1.88 0 1 0 -3.76 0zM1040.62 97.5 a1.88 1.88 0 1 0 3.76 0 a1.88 1.88 0 1 0 -3.76 0zM1025.62 97.5 a1.88 1.88 0 1 0 3.76 0 a1.88 1.88 0 1 0 -3.76 0zM410.62 127.5 a1.88 1.88 0 1 0 3.76 0 a1.88 1.88 0 1 0 -3.76 0zM815.62 97.5 a1.88 1.88 0 1 0 3.76 0 a1.88 1.88 0 1 0 -3.76 0zM755.62 112.5 a1.88 1.88 0 1 0 3.76 0 a1.88 1.88 0 1 0 -3.76 0zM665.62 112.5 a1.88 1.88 0 1 0 3.76 0 a1.88 1.88 0 1 0 -3.76 0zM320.62 142.5 a1.88 1.88 0 1 0 3.76 0 a1.88 1.88 0 1 0 -3.76 0zM935.62 97.5 a1.88 1.88 0 1 0 3.76 0 a1.88 1.88 0 1 0 -3.76 0zM890.62 97.5 a1.88 1.88 0 1 0 3.76 0 a1.88 1.88 0 1 0 -3.76 0zM500.62 127.5 a1.88 1.88 0 1 0 3.76 0 a1.88 1.88 0 1 0 -3.76 0zM425.62 142.5 a1.88 1.88 0 1 0 3.76 0 a1.88 1.88 0 1 0 -3.76 0zM650.62 112.5 a1.88 1.88 0 1 0 3.76 0 a1.88 1.88 0 1 0 -3.76 0z" fill="black"></path><path d="M425.62 622.5 a1.88 1.88 0 1 0 3.76 0 a1.88 1.88 0 1 0 -3.76 0zM410.62 592.5 a1.88 1.88 0 1 0 3.76 0 a1.88 1.88 0 1 0 -3.76 0zM335.62 577.5 a1.88 1.88 0 1 0 3.76 0 a1.88 1.88 0 1 0 -3.76 0zM425.62 607.5 a1.88 1.88 0 1 0 3.76 0 a1.88 1.88 0 1 0 -3.76 0zM155.62 547.5 a1.88 1.88 0 1 0 3.76 0 a1.88 1.88 0 1 0 -3.76 0z" fill="black"></path><path d="M1265.62 82.5 a1.88 1.88 0 1 0 3.76 0 a1.88 1.88 0 1 0 -3.76 0zM1250.62 82.5 a1.88 1.88 0 1 0 3.76 0 a1.88 1.88 0 1 0 -3.76 0zM1415.62 52.5 a1.88 1.88 0 1 0 3.76 0 a1.88 1.88 0 1 0 -3.76 0zM725.62 37.5 a1.88 1.88 0 1 0 3.76 0 a1.88 1.88 0 1 0 -3.76 0zM1295.62 37.5 a1.88 1.88 0 1 0 3.76 0 a1.88 1.88 0 1 0 -3.76 0zM1355.62 67.5 a1.88 1.88 0 1 0 3.76 0 a1.88 1.88 0 1 0 -3.76 0zM800.62 82.5 a1.88 1.88 0 1 0 3.76 0 a1.88 1.88 0 1 0 -3.76 0zM305.62 112.5 a1.88 1.88 0 1 0 3.76 0 a1.88 1.88 0 1 0 -3.76 0zM575.62 37.5 a1.88 1.88 0 1 0 3.76 0 a1.88 1.88 0 1 0 -3.76 0zM1115.62 82.5 a1.88 1.88 0 1 0 3.76 0 a1.88 1.88 0 1 0 -3.76 0zM920.62 52.5 a1.88 1.88 0 1 0 3.76 0 a1.88 1.88 0 1 0 -3.76 0zM710.62 67.5 a1.88 1.88 0 1 0 3.76 0 a1.88 1.88 0 1 0 -3.76 0zM275.62 112.5 a1.88 1.88 0 1 0 3.76 0 a1.88 1.88 0 1 0 -3.76 0zM170.62 142.5 a1.88 1.88 0 1 0 3.76 0 a1.88 1.88 0 1 0 -3.76 0zM560.62 37.5 a1.88 1.88 0 1 0 3.76 0 a1.88 1.88 0 1 0 -3.76 0zM830.62 37.5 a1.88 1.88 0 1 0 3.76 0 a1.88 1.88 0 1 0 -3.76 0zM455.62 97.5 a1.88 1.88 0 1 0 3.76 0 a1.88 1.88 0 1 0 -3.76 0zM545.62 37.5 a1.88 1.88 0 1 0 3.76 0 a1.88 1.88 0 1 0 -3.76 0zM845.62 67.5 a1.88 1.88 0 1 0 3.76 0 a1.88 1.88 0 1 0 -3.76 0zM260.62 112.5 a1.88 1.88 0 1 0 3.76 0 a1.88 1.88 0 1 0 -3.76 0zM815.62 67.5 a1.88 1.88 0 1 0 3.76 0 a1.88 1.88 0 1 0 -3.76 0zM485.62 112.5 a1.88 1.88 0 1 0 3.76 0 a1.88 1.88 0 1 0 -3.76 0z" fill="black"></path><path d="M1205.62 667.5 a1.88 1.88 0 1 0 3.76 0 a1.88 1.88 0 1 0 -3.76 0zM545.62 652.5 a1.88 1.88 0 1 0 3.76 0 a1.88 1.88 0 1 0 -3.76 0zM170.62 592.5 a1.88 1.88 0 1 0 3.76 0 a1.88 1.88 0 1 0 -3.76 0zM1040.62 667.5 a1.88 1.88 0 1 0 3.76 0 a1.88 1.88 0 1 0 -3.76 0zM230.62 592.5 a1.88 1.88 0 1 0 3.76 0 a1.88 1.88 0 1 0 -3.76 0zM620.62 667.5 a1.88 1.88 0 1 0 3.76 0 a1.88 1.88 0 1 0 -3.76 0zM260.62 607.5 a1.88 1.88 0 1 0 3.76 0 a1.88 1.88 0 1 0 -3.76 0zM1115.62 667.5 a1.88 1.88 0 1 0 3.76 0 a1.88 1.88 0 1 0 -3.76 0zM1055.62 637.5 a1.88 1.88 0 1 0 3.76 0 a1.88 1.88 0 1 0 -3.76 0zM1325.62 697.5 a1.88 1.88 0 1 0 3.76 0 a1.88 1.88 0 1 0 -3.76 0zM830.62 637.5 a1.88 1.88 0 1 0 3.76 0 a1.88 1.88 0 1 0 -3.76 0zM650.62 697.5 a1.88 1.88 0 1 0 3.76 0 a1.88 1.88 0 1 0 -3.76 0zM1100.62 697.5 a1.88 1.88 0 1 0 3.76 0 a1.88 1.88 0 1 0 -3.76 0zM710.62 622.5 a1.88 1.88 0 1 0 3.76 0 a1.88 1.88 0 1 0 -3.76 0zM275.62 637.5 a1.88 1.88 0 1 0 3.76 0 a1.88 1.88 0 1 0 -3.76 0zM455.62 667.5 a1.88 1.88 0 1 0 3.76 0 a1.88 1.88 0 1 0 -3.76 0zM980.62 682.5 a1.88 1.88 0 1 0 3.76 0 a1.88 1.88 0 1 0 -3.76 0zM860.62 667.5 a1.88 1.88 0 1 0 3.76 0 a1.88 1.88 0 1 0 -3.76 0zM395.62 622.5 a1.88 1.88 0 1 0 3.76 0 a1.88 1.88 0 1 0 -3.76 0zM725.62 667.5 a1.88 1.88 0 1 0 3.76 0 a1.88 1.88 0 1 0 -3.76 0zM410.62 637.5 a1.88 1.88 0 1 0 3.76 0 a1.88 1.88 0 1 0 -3.76 0z" fill="black"></path><path d="M470.62 97.5 a1.88 1.88 0 1 0 3.76 0 a1.88 1.88 0 1 0 -3.76 0zM425.62 97.5 a1.88 1.88 0 1 0 3.76 0 a1.88 1.88 0 1 0 -3.76 0zM410.62 82.5 a1.88 1.88 0 1 0 3.76 0 a1.88 1.88 0 1 0 -3.76 0zM185.62 112.5 a1.88 1.88 0 1 0 3.76 0 a1.88 1.88 0 1 0 -3.76 0zM530.62 37.5 a1.88 1.88 0 1 0 3.76 0 a1.88 1.88 0 1 0 -3.76 0zM140.62 142.5 a1.88 1.88 0 1 0 3.76 0 a1.88 1.88 0 1 0 -3.76 0zM170.62 112.5 a1.88 1.88 0 1 0 3.76 0 a1.88 1.88 0 1 0 -3.76 0zM365.62 67.5 a1.88 1.88 0 1 0 3.76 0 a1.88 1.88 0 1 0 -3.76 0zM515.62 37.5 a1.88 1.88 0 1 0 3.76 0 a1.88 1.88 0 1 0 -3.76 0z" fill="black"></path></mask></defs></svg>