<svg xmlns="http://www.w3.org/2000/svg" version="1.1" xmlns:xlink="http://www.w3.org/1999/xlink" xmlns:svgjs="http://svgjs.com/svgjs" width="1440" height="720" preserveAspectRatio="none" viewBox="0 0 1440 720"><g mask="url(&quot;#SvgjsMask1006&quot;)" fill="none"><rect width="1440" height="720" x="0" y="0" fill="url(#SvgjsLinearGradient1007)"></rect><g mask="url(&quot;#SvgjsMask1008&quot;)"><path d="M727.5 382.5L712.5 367.5L712.5 352.5L712.5 337.5L727.5 322.5L742.5 307.5L742.5 292.5M727.5 412.5L712.5 397.5L712.5 382.5M727.5 562.5L712.5 547.5L712.5 532.5M727.5 442.5L712.5 427.5M727.5 607.5L712.5 592.5L712.5 577.5L712.5 562.5M727.5 487.5L712.5 472.5L712.5 457.5L712.5 442.5M727.5 697.5L712.5 682.5L712.5 667.5L712.5 652.5L712.5 637.5M727.5 742.5L727.5 727.5L727.5 712.5L727.5 697.5L727.5 682.5L727.5 667.5L727.5 652.5L727.5 637.5L727.5 622.5L727.5 607.5L727.5 592.5L727.5 577.5L727.5 562.5L727.5 547.5L727.5 532.5L727.5 517.5L727.5 502.5L727.5 487.5L727.5 472.5L727.5 457.5L727.5 442.5L727.5 427.5L727.5 412.5L727.5 397.5L727.5 382.5L727.5 367.5L727.5 352.5L727.5 337.5" stroke="#3a7cc3" stroke-width="2.5"></path><path d="M723.75 337.5 a3.75 3.75 0 1 0 7.5 0 a3.75 3.75 0 1 0 -7.5 0zM738.75 292.5 a3.75 3.75 0 1 0 7.5 0 a3.75 3.75 0 1 0 -7.5 0zM708.75 382.5 a3.75 3.75 0 1 0 7.5 0 a3.75 3.75 0 1 0 -7.5 0zM708.75 532.5 a3.75 3.75 0 1 0 7.5 0 a3.75 3.75 0 1 0 -7.5 0zM708.75 427.5 a3.75 3.75 0 1 0 7.5 0 a3.75 3.75 0 1 0 -7.5 0zM708.75 562.5 a3.75 3.75 0 1 0 7.5 0 a3.75 3.75 0 1 0 -7.5 0zM708.75 442.5 a3.75 3.75 0 1 0 7.5 0 a3.75 3.75 0 1 0 -7.5 0zM708.75 637.5 a3.75 3.75 0 1 0 7.5 0 a3.75 3.75 0 1 0 -7.5 0z" fill="#3a7cc3"></path><path d="M712.5 712.5L712.5 697.5M667.5 607.5L682.5 592.5M697.5 397.5L682.5 382.5L682.5 367.5M682.5 457.5L697.5 442.5M667.5 532.5L682.5 517.5L697.5 502.5M682.5 652.5L697.5 637.5L697.5 622.5L697.5 607.5L697.5 592.5L682.5 577.5L682.5 562.5M697.5 337.5L682.5 322.5L682.5 307.5L682.5 292.5L682.5 277.5L682.5 262.5L697.5 247.5L697.5 232.5L697.5 217.5L697.5 202.5M667.5 547.5L682.5 532.5L697.5 517.5L712.5 502.5L712.5 487.5L697.5 472.5M712.5 742.5L712.5 727.5L712.5 712.5L697.5 697.5L697.5 682.5L697.5 667.5L682.5 652.5L682.5 637.5L682.5 622.5L667.5 607.5L667.5 592.5L667.5 577.5L667.5 562.5L667.5 547.5L667.5 532.5L667.5 517.5L682.5 502.5L682.5 487.5L682.5 472.5L682.5 457.5L682.5 442.5L697.5 427.5L697.5 412.5L697.5 397.5L697.5 382.5L697.5 367.5L697.5 352.5L697.5 337.5L697.5 322.5L697.5 307.5L697.5 292.5L697.5 277.5" stroke="#3a7cc3" stroke-width="2.5"></path><path d="M693.75 277.5 a3.75 3.75 0 1 0 7.5 0 a3.75 3.75 0 1 0 -7.5 0zM708.75 697.5 a3.75 3.75 0 1 0 7.5 0 a3.75 3.75 0 1 0 -7.5 0zM678.75 592.5 a3.75 3.75 0 1 0 7.5 0 a3.75 3.75 0 1 0 -7.5 0zM678.75 367.5 a3.75 3.75 0 1 0 7.5 0 a3.75 3.75 0 1 0 -7.5 0zM693.75 442.5 a3.75 3.75 0 1 0 7.5 0 a3.75 3.75 0 1 0 -7.5 0zM693.75 502.5 a3.75 3.75 0 1 0 7.5 0 a3.75 3.75 0 1 0 -7.5 0zM678.75 562.5 a3.75 3.75 0 1 0 7.5 0 a3.75 3.75 0 1 0 -7.5 0zM693.75 202.5 a3.75 3.75 0 1 0 7.5 0 a3.75 3.75 0 1 0 -7.5 0zM693.75 472.5 a3.75 3.75 0 1 0 7.5 0 a3.75 3.75 0 1 0 -7.5 0z" fill="#3a7cc3"></path><path d="M742.5 487.5L757.5 472.5L757.5 457.5L757.5 442.5M742.5 682.5L757.5 667.5L757.5 652.5L757.5 637.5L757.5 622.5L757.5 607.5L757.5 592.5L757.5 577.5L757.5 562.5M757.5 247.5L772.5 232.5M742.5 547.5L757.5 532.5L757.5 517.5M742.5 337.5L742.5 322.5M757.5 232.5L742.5 217.5L742.5 202.5L742.5 187.5L742.5 172.5L742.5 157.5L742.5 142.5L742.5 127.5L742.5 112.5L742.5 97.5L742.5 82.5L742.5 67.5L727.5 52.5L727.5 37.5M757.5 277.5L772.5 262.5L772.5 247.5M757.5 217.5L772.5 202.5L772.5 187.5L772.5 172.5L772.5 157.5L772.5 142.5L772.5 127.5L772.5 112.5L772.5 97.5L772.5 82.5L772.5 67.5M772.5 307.5L757.5 292.5M742.5 742.5L742.5 727.5L742.5 712.5L742.5 697.5L742.5 682.5L742.5 667.5L742.5 652.5L742.5 637.5L742.5 622.5L742.5 607.5L742.5 592.5L742.5 577.5L742.5 562.5L742.5 547.5L742.5 532.5L742.5 517.5L742.5 502.5L742.5 487.5L742.5 472.5L742.5 457.5L742.5 442.5L742.5 427.5L742.5 412.5L742.5 397.5L742.5 382.5L742.5 367.5L742.5 352.5L742.5 337.5L757.5 322.5L772.5 307.5L772.5 292.5L757.5 277.5L757.5 262.5L757.5 247.5L757.5 232.5L757.5 217.5L757.5 202.5L757.5 187.5L757.5 172.5" stroke="rgba(0, 187, 211, 1)" stroke-width="2.5"></path><path d="M753.75 172.5 a3.75 3.75 0 1 0 7.5 0 a3.75 3.75 0 1 0 -7.5 0zM753.75 442.5 a3.75 3.75 0 1 0 7.5 0 a3.75 3.75 0 1 0 -7.5 0zM753.75 562.5 a3.75 3.75 0 1 0 7.5 0 a3.75 3.75 0 1 0 -7.5 0zM768.75 232.5 a3.75 3.75 0 1 0 7.5 0 a3.75 3.75 0 1 0 -7.5 0zM753.75 517.5 a3.75 3.75 0 1 0 7.5 0 a3.75 3.75 0 1 0 -7.5 0zM738.75 322.5 a3.75 3.75 0 1 0 7.5 0 a3.75 3.75 0 1 0 -7.5 0zM723.75 37.5 a3.75 3.75 0 1 0 7.5 0 a3.75 3.75 0 1 0 -7.5 0zM768.75 247.5 a3.75 3.75 0 1 0 7.5 0 a3.75 3.75 0 1 0 -7.5 0zM768.75 67.5 a3.75 3.75 0 1 0 7.5 0 a3.75 3.75 0 1 0 -7.5 0zM753.75 292.5 a3.75 3.75 0 1 0 7.5 0 a3.75 3.75 0 1 0 -7.5 0z" fill="rgba(0, 187, 211, 1)"></path><path d="M652.5 502.5L667.5 487.5L667.5 472.5M697.5 742.5L697.5 727.5L697.5 712.5L682.5 697.5L682.5 682.5L682.5 667.5L667.5 652.5L667.5 637.5L667.5 622.5L652.5 607.5L652.5 592.5L652.5 577.5L652.5 562.5L652.5 547.5L652.5 532.5L652.5 517.5L652.5 502.5L652.5 487.5" stroke="#3a7cc3" stroke-width="2.5"></path><path d="M648.75 487.5 a3.75 3.75 0 1 0 7.5 0 a3.75 3.75 0 1 0 -7.5 0zM663.75 472.5 a3.75 3.75 0 1 0 7.5 0 a3.75 3.75 0 1 0 -7.5 0z" fill="#3a7cc3"></path><path d="M757.5 697.5L757.5 682.5M757.5 742.5L757.5 727.5L757.5 712.5L757.5 697.5L772.5 682.5L772.5 667.5" stroke="rgba(0, 187, 211, 1)" stroke-width="2.5"></path><path d="M768.75 667.5 a3.75 3.75 0 1 0 7.5 0 a3.75 3.75 0 1 0 -7.5 0zM753.75 682.5 a3.75 3.75 0 1 0 7.5 0 a3.75 3.75 0 1 0 -7.5 0z" fill="rgba(0, 187, 211, 1)"></path><path d="M682.5 742.5L682.5 727.5" stroke="#3a7cc3" stroke-width="2.5"></path><path d="M678.75 727.5 a3.75 3.75 0 1 0 7.5 0 a3.75 3.75 0 1 0 -7.5 0z" fill="#3a7cc3"></path><path d="M772.5 742.5L772.5 727.5L772.5 712.5" stroke="rgba(0, 187, 211, 1)" stroke-width="2.5"></path><path d="M768.75 712.5 a3.75 3.75 0 1 0 7.5 0 a3.75 3.75 0 1 0 -7.5 0z" fill="rgba(0, 187, 211, 1)"></path><path d="M622.5 412.5L622.5 397.5L622.5 382.5L622.5 367.5L622.5 352.5M637.5 367.5L652.5 352.5M637.5 217.5L652.5 202.5L652.5 187.5L652.5 172.5L652.5 157.5M637.5 247.5L652.5 232.5L652.5 217.5L667.5 202.5L667.5 187.5L667.5 172.5L682.5 157.5L682.5 142.5M637.5 337.5L652.5 322.5L652.5 307.5L652.5 292.5L652.5 277.5L652.5 262.5L652.5 247.5L667.5 232.5L667.5 217.5M622.5 457.5L637.5 442.5L637.5 427.5L637.5 412.5L652.5 397.5L652.5 382.5L667.5 367.5L667.5 352.5M637.5 292.5L622.5 277.5L622.5 262.5L622.5 247.5L622.5 232.5M637.5 322.5L622.5 307.5M637.5 472.5L637.5 457.5L652.5 442.5L652.5 427.5L652.5 412.5L667.5 397.5M667.5 742.5L667.5 727.5L667.5 712.5L667.5 697.5L667.5 682.5L667.5 667.5L652.5 652.5L652.5 637.5L652.5 622.5L637.5 607.5L637.5 592.5L637.5 577.5L637.5 562.5L637.5 547.5L637.5 532.5L637.5 517.5L637.5 502.5L637.5 487.5L637.5 472.5L622.5 457.5L622.5 442.5L622.5 427.5L622.5 412.5L637.5 397.5L637.5 382.5L637.5 367.5L637.5 352.5L637.5 337.5L637.5 322.5L637.5 307.5L637.5 292.5L637.5 277.5L637.5 262.5L637.5 247.5L637.5 232.5L637.5 217.5L637.5 202.5" stroke="#3a7cc3" stroke-width="2.5"></path><path d="M633.75 202.5 a3.75 3.75 0 1 0 7.5 0 a3.75 3.75 0 1 0 -7.5 0zM618.75 352.5 a3.75 3.75 0 1 0 7.5 0 a3.75 3.75 0 1 0 -7.5 0zM648.75 352.5 a3.75 3.75 0 1 0 7.5 0 a3.75 3.75 0 1 0 -7.5 0zM648.75 157.5 a3.75 3.75 0 1 0 7.5 0 a3.75 3.75 0 1 0 -7.5 0zM678.75 142.5 a3.75 3.75 0 1 0 7.5 0 a3.75 3.75 0 1 0 -7.5 0zM663.75 217.5 a3.75 3.75 0 1 0 7.5 0 a3.75 3.75 0 1 0 -7.5 0zM663.75 352.5 a3.75 3.75 0 1 0 7.5 0 a3.75 3.75 0 1 0 -7.5 0zM618.75 232.5 a3.75 3.75 0 1 0 7.5 0 a3.75 3.75 0 1 0 -7.5 0zM618.75 307.5 a3.75 3.75 0 1 0 7.5 0 a3.75 3.75 0 1 0 -7.5 0zM663.75 397.5 a3.75 3.75 0 1 0 7.5 0 a3.75 3.75 0 1 0 -7.5 0z" fill="#3a7cc3"></path><path d="M787.5 82.5L802.5 67.5M757.5 397.5L772.5 382.5M787.5 127.5L802.5 112.5M787.5 277.5L802.5 262.5M787.5 637.5L772.5 622.5L772.5 607.5L772.5 592.5L772.5 577.5M787.5 547.5L772.5 532.5M772.5 472.5L787.5 457.5L787.5 442.5L787.5 427.5L787.5 412.5L787.5 397.5L787.5 382.5L787.5 367.5L787.5 352.5L787.5 337.5L802.5 322.5L802.5 307.5L802.5 292.5M787.5 607.5L802.5 592.5M787.5 622.5L802.5 607.5M772.5 502.5L757.5 487.5M772.5 427.5L757.5 412.5M787.5 742.5L787.5 727.5L787.5 712.5L787.5 697.5L787.5 682.5L787.5 667.5L787.5 652.5L787.5 637.5L787.5 622.5L787.5 607.5L787.5 592.5L787.5 577.5L787.5 562.5L787.5 547.5L787.5 532.5L787.5 517.5L772.5 502.5L772.5 487.5L772.5 472.5L772.5 457.5L772.5 442.5L772.5 427.5L772.5 412.5L757.5 397.5L757.5 382.5L757.5 367.5L757.5 352.5L757.5 337.5L772.5 322.5L787.5 307.5L787.5 292.5L787.5 277.5L787.5 262.5L787.5 247.5L787.5 232.5L787.5 217.5L787.5 202.5L787.5 187.5L802.5 172.5L802.5 157.5L787.5 142.5L787.5 127.5L787.5 112.5L787.5 97.5L787.5 82.5L787.5 67.5" stroke="rgba(0, 187, 211, 1)" stroke-width="2.5"></path><path d="M783.75 67.5 a3.75 3.75 0 1 0 7.5 0 a3.75 3.75 0 1 0 -7.5 0zM798.75 67.5 a3.75 3.75 0 1 0 7.5 0 a3.75 3.75 0 1 0 -7.5 0zM768.75 382.5 a3.75 3.75 0 1 0 7.5 0 a3.75 3.75 0 1 0 -7.5 0zM798.75 112.5 a3.75 3.75 0 1 0 7.5 0 a3.75 3.75 0 1 0 -7.5 0zM798.75 262.5 a3.75 3.75 0 1 0 7.5 0 a3.75 3.75 0 1 0 -7.5 0zM768.75 577.5 a3.75 3.75 0 1 0 7.5 0 a3.75 3.75 0 1 0 -7.5 0zM768.75 532.5 a3.75 3.75 0 1 0 7.5 0 a3.75 3.75 0 1 0 -7.5 0zM798.75 292.5 a3.75 3.75 0 1 0 7.5 0 a3.75 3.75 0 1 0 -7.5 0zM798.75 592.5 a3.75 3.75 0 1 0 7.5 0 a3.75 3.75 0 1 0 -7.5 0zM798.75 607.5 a3.75 3.75 0 1 0 7.5 0 a3.75 3.75 0 1 0 -7.5 0zM753.75 487.5 a3.75 3.75 0 1 0 7.5 0 a3.75 3.75 0 1 0 -7.5 0zM753.75 412.5 a3.75 3.75 0 1 0 7.5 0 a3.75 3.75 0 1 0 -7.5 0z" fill="rgba(0, 187, 211, 1)"></path><path d="M652.5 697.5L637.5 682.5L637.5 667.5M622.5 592.5L607.5 577.5L607.5 562.5M622.5 547.5L607.5 532.5L607.5 517.5M652.5 742.5L652.5 727.5L652.5 712.5L652.5 697.5L652.5 682.5L652.5 667.5L637.5 652.5L637.5 637.5L637.5 622.5L622.5 607.5L622.5 592.5L622.5 577.5L622.5 562.5L622.5 547.5L622.5 532.5L622.5 517.5L622.5 502.5L622.5 487.5L622.5 472.5" stroke="#3a7cc3" stroke-width="2.5"></path><path d="M618.75 472.5 a3.75 3.75 0 1 0 7.5 0 a3.75 3.75 0 1 0 -7.5 0zM633.75 667.5 a3.75 3.75 0 1 0 7.5 0 a3.75 3.75 0 1 0 -7.5 0zM603.75 562.5 a3.75 3.75 0 1 0 7.5 0 a3.75 3.75 0 1 0 -7.5 0zM603.75 517.5 a3.75 3.75 0 1 0 7.5 0 a3.75 3.75 0 1 0 -7.5 0z" fill="#3a7cc3"></path><path d="M802.5 577.5L817.5 562.5L817.5 547.5L817.5 532.5M802.5 637.5L802.5 622.5M817.5 592.5L817.5 577.5M802.5 502.5L787.5 487.5L787.5 472.5M802.5 742.5L802.5 727.5L802.5 712.5L802.5 697.5L802.5 682.5L802.5 667.5L802.5 652.5L802.5 637.5L817.5 622.5L817.5 607.5L817.5 592.5L802.5 577.5L802.5 562.5L802.5 547.5L802.5 532.5L802.5 517.5L802.5 502.5L802.5 487.5L802.5 472.5" stroke="#3a7cc3" stroke-width="2.5"></path><path d="M798.75 472.5 a3.75 3.75 0 1 0 7.5 0 a3.75 3.75 0 1 0 -7.5 0zM813.75 532.5 a3.75 3.75 0 1 0 7.5 0 a3.75 3.75 0 1 0 -7.5 0zM798.75 622.5 a3.75 3.75 0 1 0 7.5 0 a3.75 3.75 0 1 0 -7.5 0zM813.75 577.5 a3.75 3.75 0 1 0 7.5 0 a3.75 3.75 0 1 0 -7.5 0zM783.75 472.5 a3.75 3.75 0 1 0 7.5 0 a3.75 3.75 0 1 0 -7.5 0z" fill="#3a7cc3"></path><path d="M637.5 727.5L637.5 712.5M637.5 742.5L637.5 727.5L622.5 712.5L622.5 697.5L622.5 682.5L622.5 667.5L622.5 652.5L622.5 637.5L622.5 622.5L607.5 607.5" stroke="rgba(0, 187, 211, 1)" stroke-width="2.5"></path><path d="M603.75 607.5 a3.75 3.75 0 1 0 7.5 0 a3.75 3.75 0 1 0 -7.5 0zM633.75 712.5 a3.75 3.75 0 1 0 7.5 0 a3.75 3.75 0 1 0 -7.5 0z" fill="rgba(0, 187, 211, 1)"></path><path d="M847.5 427.5L832.5 412.5L832.5 397.5M817.5 652.5L832.5 637.5M832.5 487.5L817.5 472.5L817.5 457.5L817.5 442.5L817.5 427.5L817.5 412.5L817.5 397.5L817.5 382.5L817.5 367.5L817.5 352.5L802.5 337.5M802.5 217.5L817.5 202.5L832.5 187.5L832.5 172.5L832.5 157.5L832.5 142.5L832.5 127.5L832.5 112.5L832.5 97.5L832.5 82.5L832.5 67.5L832.5 52.5L817.5 37.5M847.5 367.5L847.5 352.5L832.5 337.5L832.5 322.5L847.5 307.5L847.5 292.5L847.5 277.5L847.5 262.5L847.5 247.5L862.5 232.5M847.5 382.5L832.5 367.5M817.5 682.5L832.5 667.5M847.5 442.5L832.5 427.5M802.5 232.5L817.5 217.5L832.5 202.5L847.5 187.5L847.5 172.5L847.5 157.5M832.5 457.5L832.5 442.5M817.5 742.5L817.5 727.5L817.5 712.5L817.5 697.5L817.5 682.5L817.5 667.5L817.5 652.5L817.5 637.5L832.5 622.5L832.5 607.5L832.5 592.5L832.5 577.5L832.5 562.5L832.5 547.5L832.5 532.5L832.5 517.5L832.5 502.5L832.5 487.5L832.5 472.5L832.5 457.5L847.5 442.5L847.5 427.5L847.5 412.5L847.5 397.5L847.5 382.5L847.5 367.5L832.5 352.5L817.5 337.5L817.5 322.5L817.5 307.5L817.5 292.5L817.5 277.5L817.5 262.5L802.5 247.5L802.5 232.5L802.5 217.5L802.5 202.5L802.5 187.5L817.5 172.5L817.5 157.5L817.5 142.5" stroke="#3a7cc3" stroke-width="2.5"></path><path d="M813.75 142.5 a3.75 3.75 0 1 0 7.5 0 a3.75 3.75 0 1 0 -7.5 0zM828.75 397.5 a3.75 3.75 0 1 0 7.5 0 a3.75 3.75 0 1 0 -7.5 0zM828.75 637.5 a3.75 3.75 0 1 0 7.5 0 a3.75 3.75 0 1 0 -7.5 0zM798.75 337.5 a3.75 3.75 0 1 0 7.5 0 a3.75 3.75 0 1 0 -7.5 0zM813.75 37.5 a3.75 3.75 0 1 0 7.5 0 a3.75 3.75 0 1 0 -7.5 0zM858.75 232.5 a3.75 3.75 0 1 0 7.5 0 a3.75 3.75 0 1 0 -7.5 0zM828.75 367.5 a3.75 3.75 0 1 0 7.5 0 a3.75 3.75 0 1 0 -7.5 0zM828.75 667.5 a3.75 3.75 0 1 0 7.5 0 a3.75 3.75 0 1 0 -7.5 0zM828.75 427.5 a3.75 3.75 0 1 0 7.5 0 a3.75 3.75 0 1 0 -7.5 0zM843.75 157.5 a3.75 3.75 0 1 0 7.5 0 a3.75 3.75 0 1 0 -7.5 0zM828.75 442.5 a3.75 3.75 0 1 0 7.5 0 a3.75 3.75 0 1 0 -7.5 0z" fill="#3a7cc3"></path><path d="M607.5 487.5L592.5 472.5M607.5 442.5L592.5 427.5L592.5 412.5L592.5 397.5L592.5 382.5L592.5 367.5L592.5 352.5L592.5 337.5L592.5 322.5L592.5 307.5M607.5 502.5L592.5 487.5M592.5 517.5L592.5 502.5M607.5 457.5L592.5 442.5L577.5 427.5L577.5 412.5L577.5 397.5L577.5 382.5L577.5 367.5M622.5 742.5L622.5 727.5L607.5 712.5L607.5 697.5L607.5 682.5L607.5 667.5L607.5 652.5L607.5 637.5L607.5 622.5L592.5 607.5L592.5 592.5L592.5 577.5L592.5 562.5L592.5 547.5L592.5 532.5L592.5 517.5L607.5 502.5L607.5 487.5L607.5 472.5L607.5 457.5L607.5 442.5L607.5 427.5L607.5 412.5L607.5 397.5" stroke="#3a7cc3" stroke-width="2.5"></path><path d="M603.75 397.5 a3.75 3.75 0 1 0 7.5 0 a3.75 3.75 0 1 0 -7.5 0zM588.75 472.5 a3.75 3.75 0 1 0 7.5 0 a3.75 3.75 0 1 0 -7.5 0zM588.75 307.5 a3.75 3.75 0 1 0 7.5 0 a3.75 3.75 0 1 0 -7.5 0zM588.75 487.5 a3.75 3.75 0 1 0 7.5 0 a3.75 3.75 0 1 0 -7.5 0zM588.75 502.5 a3.75 3.75 0 1 0 7.5 0 a3.75 3.75 0 1 0 -7.5 0zM573.75 367.5 a3.75 3.75 0 1 0 7.5 0 a3.75 3.75 0 1 0 -7.5 0z" fill="#3a7cc3"></path><path d="M877.5 277.5L862.5 262.5M877.5 322.5L862.5 307.5L862.5 292.5L862.5 277.5M847.5 577.5L862.5 562.5M832.5 712.5L832.5 697.5L832.5 682.5M862.5 337.5L862.5 322.5M832.5 742.5L832.5 727.5L832.5 712.5L847.5 697.5L847.5 682.5L847.5 667.5L847.5 652.5L847.5 637.5L847.5 622.5L847.5 607.5L847.5 592.5L847.5 577.5L847.5 562.5L847.5 547.5L847.5 532.5L847.5 517.5L847.5 502.5L847.5 487.5L847.5 472.5L847.5 457.5L862.5 442.5L862.5 427.5L862.5 412.5L862.5 397.5L862.5 382.5L862.5 367.5L862.5 352.5L862.5 337.5L877.5 322.5L877.5 307.5L877.5 292.5L877.5 277.5L877.5 262.5L877.5 247.5L877.5 232.5L877.5 217.5" stroke="#3a7cc3" stroke-width="2.5"></path><path d="M873.75 217.5 a3.75 3.75 0 1 0 7.5 0 a3.75 3.75 0 1 0 -7.5 0zM858.75 262.5 a3.75 3.75 0 1 0 7.5 0 a3.75 3.75 0 1 0 -7.5 0zM858.75 277.5 a3.75 3.75 0 1 0 7.5 0 a3.75 3.75 0 1 0 -7.5 0zM858.75 562.5 a3.75 3.75 0 1 0 7.5 0 a3.75 3.75 0 1 0 -7.5 0zM828.75 682.5 a3.75 3.75 0 1 0 7.5 0 a3.75 3.75 0 1 0 -7.5 0zM858.75 322.5 a3.75 3.75 0 1 0 7.5 0 a3.75 3.75 0 1 0 -7.5 0z" fill="#3a7cc3"></path><path d="M562.5 277.5L547.5 262.5L547.5 247.5L547.5 232.5L547.5 217.5L547.5 202.5M562.5 217.5L577.5 202.5L577.5 187.5L577.5 172.5L577.5 157.5L577.5 142.5L577.5 127.5L577.5 112.5M577.5 592.5L562.5 577.5L562.5 562.5L562.5 547.5L562.5 532.5L562.5 517.5L562.5 502.5L562.5 487.5L562.5 472.5L547.5 457.5L547.5 442.5L547.5 427.5L547.5 412.5L547.5 397.5L547.5 382.5M562.5 262.5L577.5 247.5L577.5 232.5L577.5 217.5L592.5 202.5L592.5 187.5L592.5 172.5M562.5 322.5L577.5 307.5L577.5 292.5L577.5 277.5L577.5 262.5M562.5 307.5L547.5 292.5L547.5 277.5L532.5 262.5L532.5 247.5L532.5 232.5L532.5 217.5M562.5 172.5L547.5 157.5L547.5 142.5L562.5 127.5M577.5 472.5L577.5 457.5L577.5 442.5M562.5 187.5L547.5 172.5M562.5 367.5L547.5 352.5L547.5 337.5L547.5 322.5M607.5 742.5L607.5 727.5L592.5 712.5L592.5 697.5L592.5 682.5L592.5 667.5L592.5 652.5L592.5 637.5L592.5 622.5L577.5 607.5L577.5 592.5L577.5 577.5L577.5 562.5L577.5 547.5L577.5 532.5L577.5 517.5L577.5 502.5L577.5 487.5L577.5 472.5L562.5 457.5L562.5 442.5L562.5 427.5L562.5 412.5L562.5 397.5L562.5 382.5L562.5 367.5L562.5 352.5L562.5 337.5L562.5 322.5L562.5 307.5L562.5 292.5L562.5 277.5L562.5 262.5L562.5 247.5L562.5 232.5L562.5 217.5L562.5 202.5L562.5 187.5L562.5 172.5L562.5 157.5L562.5 142.5" stroke="rgba(0, 187, 211, 1)" stroke-width="2.5"></path><path d="M558.75 142.5 a3.75 3.75 0 1 0 7.5 0 a3.75 3.75 0 1 0 -7.5 0zM543.75 202.5 a3.75 3.75 0 1 0 7.5 0 a3.75 3.75 0 1 0 -7.5 0zM573.75 112.5 a3.75 3.75 0 1 0 7.5 0 a3.75 3.75 0 1 0 -7.5 0zM543.75 382.5 a3.75 3.75 0 1 0 7.5 0 a3.75 3.75 0 1 0 -7.5 0zM588.75 172.5 a3.75 3.75 0 1 0 7.5 0 a3.75 3.75 0 1 0 -7.5 0zM573.75 262.5 a3.75 3.75 0 1 0 7.5 0 a3.75 3.75 0 1 0 -7.5 0zM528.75 217.5 a3.75 3.75 0 1 0 7.5 0 a3.75 3.75 0 1 0 -7.5 0zM558.75 127.5 a3.75 3.75 0 1 0 7.5 0 a3.75 3.75 0 1 0 -7.5 0zM573.75 442.5 a3.75 3.75 0 1 0 7.5 0 a3.75 3.75 0 1 0 -7.5 0zM543.75 172.5 a3.75 3.75 0 1 0 7.5 0 a3.75 3.75 0 1 0 -7.5 0zM543.75 322.5 a3.75 3.75 0 1 0 7.5 0 a3.75 3.75 0 1 0 -7.5 0z" fill="rgba(0, 187, 211, 1)"></path><path d="M877.5 397.5L892.5 382.5L892.5 367.5L907.5 352.5L907.5 337.5L907.5 322.5L907.5 307.5L907.5 292.5L907.5 277.5L907.5 262.5L922.5 247.5L922.5 232.5L937.5 217.5M862.5 547.5L877.5 532.5L877.5 517.5L877.5 502.5L877.5 487.5M892.5 247.5L907.5 232.5M907.5 97.5L907.5 82.5L907.5 67.5L907.5 52.5L892.5 37.5M877.5 427.5L892.5 412.5L892.5 397.5L907.5 382.5L907.5 367.5M922.5 67.5L937.5 52.5L937.5 37.5M907.5 202.5L892.5 187.5L892.5 172.5L877.5 157.5L862.5 142.5M907.5 142.5L892.5 127.5L892.5 112.5L892.5 97.5L892.5 82.5L892.5 67.5L892.5 52.5L877.5 37.5M907.5 127.5L922.5 112.5L922.5 97.5M862.5 592.5L862.5 577.5M922.5 82.5L937.5 67.5L952.5 52.5L952.5 37.5M847.5 742.5L847.5 727.5L847.5 712.5L862.5 697.5L862.5 682.5L862.5 667.5L862.5 652.5L862.5 637.5L862.5 622.5L862.5 607.5L862.5 592.5L877.5 577.5L877.5 562.5L862.5 547.5L862.5 532.5L862.5 517.5L862.5 502.5L862.5 487.5L862.5 472.5L862.5 457.5L877.5 442.5L877.5 427.5L877.5 412.5L877.5 397.5L877.5 382.5L877.5 367.5L877.5 352.5L877.5 337.5L892.5 322.5L892.5 307.5L892.5 292.5L892.5 277.5L892.5 262.5L892.5 247.5L892.5 232.5L892.5 217.5L907.5 202.5L907.5 187.5L907.5 172.5L907.5 157.5L907.5 142.5L907.5 127.5L907.5 112.5L907.5 97.5L922.5 82.5L922.5 67.5L922.5 52.5" stroke="#3a7cc3" stroke-width="2.5"></path><path d="M918.75 52.5 a3.75 3.75 0 1 0 7.5 0 a3.75 3.75 0 1 0 -7.5 0zM933.75 217.5 a3.75 3.75 0 1 0 7.5 0 a3.75 3.75 0 1 0 -7.5 0zM873.75 487.5 a3.75 3.75 0 1 0 7.5 0 a3.75 3.75 0 1 0 -7.5 0zM903.75 232.5 a3.75 3.75 0 1 0 7.5 0 a3.75 3.75 0 1 0 -7.5 0zM888.75 37.5 a3.75 3.75 0 1 0 7.5 0 a3.75 3.75 0 1 0 -7.5 0zM903.75 367.5 a3.75 3.75 0 1 0 7.5 0 a3.75 3.75 0 1 0 -7.5 0zM933.75 37.5 a3.75 3.75 0 1 0 7.5 0 a3.75 3.75 0 1 0 -7.5 0zM858.75 142.5 a3.75 3.75 0 1 0 7.5 0 a3.75 3.75 0 1 0 -7.5 0zM873.75 37.5 a3.75 3.75 0 1 0 7.5 0 a3.75 3.75 0 1 0 -7.5 0zM918.75 97.5 a3.75 3.75 0 1 0 7.5 0 a3.75 3.75 0 1 0 -7.5 0zM858.75 577.5 a3.75 3.75 0 1 0 7.5 0 a3.75 3.75 0 1 0 -7.5 0zM948.75 37.5 a3.75 3.75 0 1 0 7.5 0 a3.75 3.75 0 1 0 -7.5 0z" fill="#3a7cc3"></path><path d="M517.5 457.5L532.5 442.5L532.5 427.5L532.5 412.5L532.5 397.5M517.5 472.5L532.5 457.5M532.5 637.5L517.5 622.5L517.5 607.5L517.5 592.5M517.5 382.5L532.5 367.5L532.5 352.5L532.5 337.5L532.5 322.5L532.5 307.5M502.5 307.5L517.5 292.5L517.5 277.5L517.5 262.5L517.5 247.5L502.5 232.5L502.5 217.5L517.5 202.5M517.5 337.5L517.5 322.5L517.5 307.5M532.5 592.5L547.5 577.5M517.5 532.5L532.5 517.5L532.5 502.5M517.5 352.5L502.5 337.5M577.5 712.5L577.5 697.5M592.5 742.5L592.5 727.5L577.5 712.5L562.5 697.5L547.5 682.5L547.5 667.5L532.5 652.5L532.5 637.5L532.5 622.5L532.5 607.5L532.5 592.5L532.5 577.5L532.5 562.5L517.5 547.5L517.5 532.5L517.5 517.5L517.5 502.5L517.5 487.5L517.5 472.5L517.5 457.5L517.5 442.5L517.5 427.5L517.5 412.5L517.5 397.5L517.5 382.5L517.5 367.5L517.5 352.5L517.5 337.5L502.5 322.5L502.5 307.5L502.5 292.5L502.5 277.5L487.5 262.5L487.5 247.5L487.5 232.5L487.5 217.5L487.5 202.5L487.5 187.5L472.5 172.5L472.5 157.5" stroke="rgba(0, 187, 211, 1)" stroke-width="2.5"></path><path d="M468.75 157.5 a3.75 3.75 0 1 0 7.5 0 a3.75 3.75 0 1 0 -7.5 0zM528.75 397.5 a3.75 3.75 0 1 0 7.5 0 a3.75 3.75 0 1 0 -7.5 0zM528.75 457.5 a3.75 3.75 0 1 0 7.5 0 a3.75 3.75 0 1 0 -7.5 0zM513.75 592.5 a3.75 3.75 0 1 0 7.5 0 a3.75 3.75 0 1 0 -7.5 0zM528.75 307.5 a3.75 3.75 0 1 0 7.5 0 a3.75 3.75 0 1 0 -7.5 0zM513.75 202.5 a3.75 3.75 0 1 0 7.5 0 a3.75 3.75 0 1 0 -7.5 0zM513.75 307.5 a3.75 3.75 0 1 0 7.5 0 a3.75 3.75 0 1 0 -7.5 0zM543.75 577.5 a3.75 3.75 0 1 0 7.5 0 a3.75 3.75 0 1 0 -7.5 0zM528.75 502.5 a3.75 3.75 0 1 0 7.5 0 a3.75 3.75 0 1 0 -7.5 0zM498.75 337.5 a3.75 3.75 0 1 0 7.5 0 a3.75 3.75 0 1 0 -7.5 0zM573.75 697.5 a3.75 3.75 0 1 0 7.5 0 a3.75 3.75 0 1 0 -7.5 0z" fill="rgba(0, 187, 211, 1)"></path><path d="M862.5 742.5L862.5 727.5L862.5 712.5L877.5 697.5L877.5 682.5L877.5 667.5L877.5 652.5L877.5 637.5L877.5 622.5L877.5 607.5L877.5 592.5L892.5 577.5" stroke="#3a7cc3" stroke-width="2.5"></path><path d="M888.75 577.5 a3.75 3.75 0 1 0 7.5 0 a3.75 3.75 0 1 0 -7.5 0z" fill="#3a7cc3"></path><path d="M877.5 727.5L877.5 712.5M877.5 742.5L877.5 727.5L892.5 712.5L892.5 697.5L892.5 682.5L892.5 667.5L892.5 652.5L892.5 637.5L892.5 622.5L892.5 607.5L892.5 592.5L907.5 577.5" stroke="#3a7cc3" stroke-width="2.5"></path><path d="M903.75 577.5 a3.75 3.75 0 1 0 7.5 0 a3.75 3.75 0 1 0 -7.5 0zM873.75 712.5 a3.75 3.75 0 1 0 7.5 0 a3.75 3.75 0 1 0 -7.5 0z" fill="#3a7cc3"></path><path d="M472.5 247.5L457.5 232.5L457.5 217.5L457.5 202.5M487.5 457.5L502.5 442.5M472.5 262.5L457.5 247.5L442.5 232.5L442.5 217.5L442.5 202.5L442.5 187.5M472.5 82.5L487.5 67.5M472.5 97.5L487.5 82.5M457.5 157.5L442.5 142.5L442.5 127.5L442.5 112.5L457.5 97.5L457.5 82.5L457.5 67.5L457.5 52.5M502.5 367.5L502.5 352.5M502.5 472.5L502.5 457.5M517.5 652.5L517.5 637.5M487.5 442.5L487.5 427.5L487.5 412.5L487.5 397.5L487.5 382.5L487.5 367.5M472.5 112.5L487.5 97.5L502.5 82.5L502.5 67.5L502.5 52.5L502.5 37.5M562.5 742.5L562.5 727.5L562.5 712.5L547.5 697.5L532.5 682.5L532.5 667.5L517.5 652.5L502.5 637.5L502.5 622.5L502.5 607.5L502.5 592.5L502.5 577.5L502.5 562.5L502.5 547.5L502.5 532.5L502.5 517.5L502.5 502.5L502.5 487.5L502.5 472.5L487.5 457.5L487.5 442.5L502.5 427.5L502.5 412.5L502.5 397.5L502.5 382.5L502.5 367.5L487.5 352.5L487.5 337.5L487.5 322.5L487.5 307.5L487.5 292.5L487.5 277.5L472.5 262.5L472.5 247.5L472.5 232.5L472.5 217.5L472.5 202.5L472.5 187.5L457.5 172.5L457.5 157.5L457.5 142.5L457.5 127.5L472.5 112.5L472.5 97.5L472.5 82.5L472.5 67.5" stroke="rgba(0, 187, 211, 1)" stroke-width="2.5"></path><path d="M468.75 67.5 a3.75 3.75 0 1 0 7.5 0 a3.75 3.75 0 1 0 -7.5 0zM453.75 202.5 a3.75 3.75 0 1 0 7.5 0 a3.75 3.75 0 1 0 -7.5 0zM498.75 442.5 a3.75 3.75 0 1 0 7.5 0 a3.75 3.75 0 1 0 -7.5 0zM438.75 187.5 a3.75 3.75 0 1 0 7.5 0 a3.75 3.75 0 1 0 -7.5 0zM483.75 67.5 a3.75 3.75 0 1 0 7.5 0 a3.75 3.75 0 1 0 -7.5 0zM483.75 82.5 a3.75 3.75 0 1 0 7.5 0 a3.75 3.75 0 1 0 -7.5 0zM453.75 52.5 a3.75 3.75 0 1 0 7.5 0 a3.75 3.75 0 1 0 -7.5 0zM498.75 352.5 a3.75 3.75 0 1 0 7.5 0 a3.75 3.75 0 1 0 -7.5 0zM498.75 457.5 a3.75 3.75 0 1 0 7.5 0 a3.75 3.75 0 1 0 -7.5 0zM513.75 637.5 a3.75 3.75 0 1 0 7.5 0 a3.75 3.75 0 1 0 -7.5 0zM483.75 367.5 a3.75 3.75 0 1 0 7.5 0 a3.75 3.75 0 1 0 -7.5 0zM498.75 37.5 a3.75 3.75 0 1 0 7.5 0 a3.75 3.75 0 1 0 -7.5 0z" fill="rgba(0, 187, 211, 1)"></path><path d="M937.5 532.5L922.5 517.5L922.5 502.5M937.5 547.5L922.5 532.5M922.5 577.5L922.5 562.5L907.5 547.5L907.5 532.5M892.5 742.5L892.5 727.5L907.5 712.5L907.5 697.5L907.5 682.5L907.5 667.5L907.5 652.5L907.5 637.5L907.5 622.5L907.5 607.5L907.5 592.5L922.5 577.5L937.5 562.5L937.5 547.5L937.5 532.5L937.5 517.5" stroke="rgba(0, 187, 211, 1)" stroke-width="2.5"></path><path d="M933.75 517.5 a3.75 3.75 0 1 0 7.5 0 a3.75 3.75 0 1 0 -7.5 0zM918.75 502.5 a3.75 3.75 0 1 0 7.5 0 a3.75 3.75 0 1 0 -7.5 0zM918.75 532.5 a3.75 3.75 0 1 0 7.5 0 a3.75 3.75 0 1 0 -7.5 0zM903.75 532.5 a3.75 3.75 0 1 0 7.5 0 a3.75 3.75 0 1 0 -7.5 0z" fill="rgba(0, 187, 211, 1)"></path><path d="M487.5 547.5L472.5 532.5L472.5 517.5L472.5 502.5L472.5 487.5L472.5 472.5M472.5 307.5L457.5 292.5M487.5 592.5L472.5 577.5L472.5 562.5L472.5 547.5M472.5 322.5L457.5 307.5L442.5 292.5L442.5 277.5L442.5 262.5L442.5 247.5M487.5 607.5L472.5 592.5M547.5 742.5L547.5 727.5L547.5 712.5L532.5 697.5L517.5 682.5L517.5 667.5L502.5 652.5L487.5 637.5L487.5 622.5L487.5 607.5L487.5 592.5L487.5 577.5L487.5 562.5L487.5 547.5L487.5 532.5L487.5 517.5L487.5 502.5L487.5 487.5L487.5 472.5L472.5 457.5L472.5 442.5L472.5 427.5L472.5 412.5L472.5 397.5L472.5 382.5L472.5 367.5L472.5 352.5L472.5 337.5L472.5 322.5L472.5 307.5L472.5 292.5" stroke="#3a7cc3" stroke-width="2.5"></path><path d="M468.75 292.5 a3.75 3.75 0 1 0 7.5 0 a3.75 3.75 0 1 0 -7.5 0zM468.75 472.5 a3.75 3.75 0 1 0 7.5 0 a3.75 3.75 0 1 0 -7.5 0zM453.75 292.5 a3.75 3.75 0 1 0 7.5 0 a3.75 3.75 0 1 0 -7.5 0zM468.75 547.5 a3.75 3.75 0 1 0 7.5 0 a3.75 3.75 0 1 0 -7.5 0zM438.75 247.5 a3.75 3.75 0 1 0 7.5 0 a3.75 3.75 0 1 0 -7.5 0zM468.75 592.5 a3.75 3.75 0 1 0 7.5 0 a3.75 3.75 0 1 0 -7.5 0z" fill="#3a7cc3"></path><path d="M952.5 472.5L937.5 457.5L922.5 442.5M952.5 517.5L967.5 502.5M922.5 397.5L937.5 382.5L937.5 367.5L937.5 352.5M937.5 427.5L937.5 412.5L937.5 397.5L952.5 382.5M952.5 547.5L967.5 532.5L967.5 517.5M922.5 412.5L907.5 397.5M907.5 742.5L907.5 727.5L922.5 712.5L922.5 697.5L922.5 682.5L922.5 667.5L922.5 652.5L922.5 637.5L922.5 622.5L922.5 607.5L937.5 592.5L952.5 577.5L952.5 562.5L952.5 547.5L952.5 532.5L952.5 517.5L952.5 502.5L952.5 487.5L952.5 472.5L952.5 457.5L952.5 442.5L937.5 427.5L922.5 412.5L922.5 397.5L922.5 382.5L922.5 367.5L922.5 352.5" stroke="#3a7cc3" stroke-width="2.5"></path><path d="M918.75 352.5 a3.75 3.75 0 1 0 7.5 0 a3.75 3.75 0 1 0 -7.5 0zM918.75 442.5 a3.75 3.75 0 1 0 7.5 0 a3.75 3.75 0 1 0 -7.5 0zM963.75 502.5 a3.75 3.75 0 1 0 7.5 0 a3.75 3.75 0 1 0 -7.5 0zM933.75 352.5 a3.75 3.75 0 1 0 7.5 0 a3.75 3.75 0 1 0 -7.5 0zM948.75 382.5 a3.75 3.75 0 1 0 7.5 0 a3.75 3.75 0 1 0 -7.5 0zM963.75 517.5 a3.75 3.75 0 1 0 7.5 0 a3.75 3.75 0 1 0 -7.5 0zM903.75 397.5 a3.75 3.75 0 1 0 7.5 0 a3.75 3.75 0 1 0 -7.5 0z" fill="#3a7cc3"></path><path d="M472.5 622.5L472.5 607.5M532.5 742.5L532.5 727.5L532.5 712.5L517.5 697.5L502.5 682.5L502.5 667.5L487.5 652.5L472.5 637.5L472.5 622.5L457.5 607.5L457.5 592.5L457.5 577.5L457.5 562.5L457.5 547.5L457.5 532.5L457.5 517.5L457.5 502.5L457.5 487.5L457.5 472.5L457.5 457.5L457.5 442.5L457.5 427.5L457.5 412.5L457.5 397.5L457.5 382.5L457.5 367.5L457.5 352.5L457.5 337.5" stroke="rgba(0, 187, 211, 1)" stroke-width="2.5"></path><path d="M453.75 337.5 a3.75 3.75 0 1 0 7.5 0 a3.75 3.75 0 1 0 -7.5 0zM468.75 607.5 a3.75 3.75 0 1 0 7.5 0 a3.75 3.75 0 1 0 -7.5 0z" fill="rgba(0, 187, 211, 1)"></path><path d="M982.5 397.5L967.5 382.5L967.5 367.5L967.5 352.5L952.5 337.5L952.5 322.5M997.5 307.5L982.5 292.5L982.5 277.5L982.5 262.5M937.5 622.5L952.5 607.5M997.5 322.5L982.5 307.5L967.5 292.5L967.5 277.5L967.5 262.5L967.5 247.5L982.5 232.5L982.5 217.5M997.5 262.5L997.5 247.5M982.5 442.5L967.5 427.5M967.5 577.5L967.5 562.5L967.5 547.5M982.5 352.5L982.5 337.5L982.5 322.5L967.5 307.5L952.5 292.5L952.5 277.5L952.5 262.5L952.5 247.5M922.5 742.5L922.5 727.5L937.5 712.5L937.5 697.5L937.5 682.5L937.5 667.5L937.5 652.5L937.5 637.5L937.5 622.5L937.5 607.5L952.5 592.5L967.5 577.5L982.5 562.5L982.5 547.5L982.5 532.5L982.5 517.5L982.5 502.5L982.5 487.5L982.5 472.5L982.5 457.5L982.5 442.5L982.5 427.5L982.5 412.5L982.5 397.5L982.5 382.5L982.5 367.5L982.5 352.5L997.5 337.5L997.5 322.5L997.5 307.5L997.5 292.5L997.5 277.5L997.5 262.5L1012.5 247.5L1012.5 232.5" stroke="#3a7cc3" stroke-width="2.5"></path><path d="M1008.75 232.5 a3.75 3.75 0 1 0 7.5 0 a3.75 3.75 0 1 0 -7.5 0zM948.75 322.5 a3.75 3.75 0 1 0 7.5 0 a3.75 3.75 0 1 0 -7.5 0zM978.75 262.5 a3.75 3.75 0 1 0 7.5 0 a3.75 3.75 0 1 0 -7.5 0zM948.75 607.5 a3.75 3.75 0 1 0 7.5 0 a3.75 3.75 0 1 0 -7.5 0zM978.75 217.5 a3.75 3.75 0 1 0 7.5 0 a3.75 3.75 0 1 0 -7.5 0zM993.75 247.5 a3.75 3.75 0 1 0 7.5 0 a3.75 3.75 0 1 0 -7.5 0zM963.75 427.5 a3.75 3.75 0 1 0 7.5 0 a3.75 3.75 0 1 0 -7.5 0zM963.75 547.5 a3.75 3.75 0 1 0 7.5 0 a3.75 3.75 0 1 0 -7.5 0zM948.75 247.5 a3.75 3.75 0 1 0 7.5 0 a3.75 3.75 0 1 0 -7.5 0z" fill="#3a7cc3"></path><path d="M442.5 367.5L427.5 352.5L427.5 337.5M442.5 412.5L427.5 397.5L427.5 382.5L427.5 367.5M412.5 217.5L427.5 202.5L427.5 187.5L427.5 172.5L427.5 157.5L427.5 142.5M427.5 232.5L427.5 217.5M442.5 427.5L427.5 412.5M442.5 322.5L442.5 307.5M517.5 742.5L517.5 727.5L517.5 712.5L502.5 697.5L487.5 682.5L487.5 667.5L472.5 652.5L457.5 637.5L457.5 622.5L442.5 607.5L442.5 592.5L442.5 577.5L442.5 562.5L442.5 547.5L442.5 532.5L442.5 517.5L442.5 502.5L442.5 487.5L442.5 472.5L442.5 457.5L442.5 442.5L442.5 427.5L442.5 412.5L442.5 397.5L442.5 382.5L442.5 367.5L442.5 352.5L442.5 337.5L442.5 322.5L427.5 307.5L427.5 292.5L427.5 277.5L427.5 262.5L427.5 247.5L427.5 232.5L412.5 217.5L412.5 202.5L412.5 187.5L412.5 172.5L412.5 157.5" stroke="#3a7cc3" stroke-width="2.5"></path><path d="M408.75 157.5 a3.75 3.75 0 1 0 7.5 0 a3.75 3.75 0 1 0 -7.5 0zM423.75 337.5 a3.75 3.75 0 1 0 7.5 0 a3.75 3.75 0 1 0 -7.5 0zM423.75 367.5 a3.75 3.75 0 1 0 7.5 0 a3.75 3.75 0 1 0 -7.5 0zM423.75 142.5 a3.75 3.75 0 1 0 7.5 0 a3.75 3.75 0 1 0 -7.5 0zM423.75 217.5 a3.75 3.75 0 1 0 7.5 0 a3.75 3.75 0 1 0 -7.5 0zM423.75 412.5 a3.75 3.75 0 1 0 7.5 0 a3.75 3.75 0 1 0 -7.5 0zM438.75 307.5 a3.75 3.75 0 1 0 7.5 0 a3.75 3.75 0 1 0 -7.5 0z" fill="#3a7cc3"></path><path d="M1012.5 307.5L1027.5 292.5M952.5 682.5L952.5 667.5L952.5 652.5L952.5 637.5L952.5 622.5M1012.5 322.5L1027.5 307.5L1042.5 292.5L1042.5 277.5M1012.5 517.5L997.5 502.5L997.5 487.5L997.5 472.5L997.5 457.5M1027.5 247.5L1042.5 232.5L1042.5 217.5M997.5 397.5L1012.5 382.5L1012.5 367.5L1012.5 352.5L1027.5 337.5L1027.5 322.5L1042.5 307.5M997.5 547.5L1012.5 532.5M997.5 427.5L1012.5 412.5L1012.5 397.5L1027.5 382.5L1027.5 367.5L1027.5 352.5L1042.5 337.5L1042.5 322.5L1057.5 307.5M1027.5 172.5L1012.5 157.5L997.5 142.5M1012.5 292.5L1012.5 277.5L1012.5 262.5M937.5 742.5L937.5 727.5L952.5 712.5L952.5 697.5L952.5 682.5L967.5 667.5L967.5 652.5L967.5 637.5L967.5 622.5L967.5 607.5L967.5 592.5L982.5 577.5L997.5 562.5L997.5 547.5L997.5 532.5L1012.5 517.5L1012.5 502.5L1012.5 487.5L1012.5 472.5L1012.5 457.5L997.5 442.5L997.5 427.5L997.5 412.5L997.5 397.5L997.5 382.5L997.5 367.5L997.5 352.5L1012.5 337.5L1012.5 322.5L1012.5 307.5L1012.5 292.5L1027.5 277.5L1027.5 262.5L1027.5 247.5L1027.5 232.5L1027.5 217.5L1027.5 202.5L1027.5 187.5L1027.5 172.5L1027.5 157.5L1042.5 142.5" stroke="rgba(0, 187, 211, 1)" stroke-width="2.5"></path><path d="M1038.75 142.5 a3.75 3.75 0 1 0 7.5 0 a3.75 3.75 0 1 0 -7.5 0zM1023.75 292.5 a3.75 3.75 0 1 0 7.5 0 a3.75 3.75 0 1 0 -7.5 0zM948.75 622.5 a3.75 3.75 0 1 0 7.5 0 a3.75 3.75 0 1 0 -7.5 0zM1038.75 277.5 a3.75 3.75 0 1 0 7.5 0 a3.75 3.75 0 1 0 -7.5 0zM993.75 457.5 a3.75 3.75 0 1 0 7.5 0 a3.75 3.75 0 1 0 -7.5 0zM1038.75 217.5 a3.75 3.75 0 1 0 7.5 0 a3.75 3.75 0 1 0 -7.5 0zM1038.75 307.5 a3.75 3.75 0 1 0 7.5 0 a3.75 3.75 0 1 0 -7.5 0zM1008.75 532.5 a3.75 3.75 0 1 0 7.5 0 a3.75 3.75 0 1 0 -7.5 0zM1053.75 307.5 a3.75 3.75 0 1 0 7.5 0 a3.75 3.75 0 1 0 -7.5 0zM993.75 142.5 a3.75 3.75 0 1 0 7.5 0 a3.75 3.75 0 1 0 -7.5 0zM1008.75 262.5 a3.75 3.75 0 1 0 7.5 0 a3.75 3.75 0 1 0 -7.5 0z" fill="rgba(0, 187, 211, 1)"></path><path d="M502.5 742.5L502.5 727.5L502.5 712.5" stroke="rgba(0, 187, 211, 1)" stroke-width="2.5"></path><path d="M498.75 712.5 a3.75 3.75 0 1 0 7.5 0 a3.75 3.75 0 1 0 -7.5 0z" fill="rgba(0, 187, 211, 1)"></path><path d="M952.5 742.5L952.5 727.5L967.5 712.5L967.5 697.5L967.5 682.5L982.5 667.5L982.5 652.5L982.5 637.5L982.5 622.5L982.5 607.5L982.5 592.5L997.5 577.5" stroke="#3a7cc3" stroke-width="2.5"></path><path d="M993.75 577.5 a3.75 3.75 0 1 0 7.5 0 a3.75 3.75 0 1 0 -7.5 0z" fill="#3a7cc3"></path><path d="M412.5 337.5L397.5 322.5L397.5 307.5M412.5 262.5L397.5 247.5L397.5 232.5L382.5 217.5L367.5 202.5L367.5 187.5L367.5 172.5L367.5 157.5L367.5 142.5L367.5 127.5L367.5 112.5L367.5 97.5L352.5 82.5L352.5 67.5L352.5 52.5M412.5 277.5L397.5 262.5L382.5 247.5M397.5 187.5L382.5 172.5L382.5 157.5L382.5 142.5L382.5 127.5L382.5 112.5L382.5 97.5L382.5 82.5M427.5 457.5L412.5 442.5M427.5 442.5L427.5 427.5M397.5 202.5L382.5 187.5M487.5 742.5L487.5 727.5L487.5 712.5L487.5 697.5L472.5 682.5L472.5 667.5L457.5 652.5L442.5 637.5L442.5 622.5L427.5 607.5L427.5 592.5L427.5 577.5L427.5 562.5L427.5 547.5L427.5 532.5L427.5 517.5L427.5 502.5L427.5 487.5L427.5 472.5L427.5 457.5L427.5 442.5L412.5 427.5L412.5 412.5L412.5 397.5L412.5 382.5L412.5 367.5L412.5 352.5L412.5 337.5L412.5 322.5L412.5 307.5L412.5 292.5L412.5 277.5L412.5 262.5L412.5 247.5L412.5 232.5L397.5 217.5L397.5 202.5L397.5 187.5L397.5 172.5" stroke="rgba(0, 187, 211, 1)" stroke-width="2.5"></path><path d="M393.75 172.5 a3.75 3.75 0 1 0 7.5 0 a3.75 3.75 0 1 0 -7.5 0zM393.75 307.5 a3.75 3.75 0 1 0 7.5 0 a3.75 3.75 0 1 0 -7.5 0zM348.75 52.5 a3.75 3.75 0 1 0 7.5 0 a3.75 3.75 0 1 0 -7.5 0zM378.75 247.5 a3.75 3.75 0 1 0 7.5 0 a3.75 3.75 0 1 0 -7.5 0zM378.75 82.5 a3.75 3.75 0 1 0 7.5 0 a3.75 3.75 0 1 0 -7.5 0zM408.75 442.5 a3.75 3.75 0 1 0 7.5 0 a3.75 3.75 0 1 0 -7.5 0zM423.75 427.5 a3.75 3.75 0 1 0 7.5 0 a3.75 3.75 0 1 0 -7.5 0zM378.75 187.5 a3.75 3.75 0 1 0 7.5 0 a3.75 3.75 0 1 0 -7.5 0z" fill="rgba(0, 187, 211, 1)"></path><path d="M967.5 742.5L967.5 727.5L982.5 712.5L982.5 697.5L982.5 682.5L997.5 667.5L997.5 652.5L997.5 637.5L997.5 622.5L997.5 607.5L997.5 592.5" stroke="#3a7cc3" stroke-width="2.5"></path><path d="M993.75 592.5 a3.75 3.75 0 1 0 7.5 0 a3.75 3.75 0 1 0 -7.5 0z" fill="#3a7cc3"></path><path d="M472.5 742.5L472.5 727.5L472.5 712.5L472.5 697.5" stroke="#3a7cc3" stroke-width="2.5"></path><path d="M468.75 697.5 a3.75 3.75 0 1 0 7.5 0 a3.75 3.75 0 1 0 -7.5 0z" fill="#3a7cc3"></path><path d="M982.5 742.5L982.5 727.5L997.5 712.5L997.5 697.5L997.5 682.5L1012.5 667.5L1012.5 652.5L1012.5 637.5L1012.5 622.5L1012.5 607.5L1012.5 592.5L1012.5 577.5L1012.5 562.5" stroke="#3a7cc3" stroke-width="2.5"></path><path d="M1008.75 562.5 a3.75 3.75 0 1 0 7.5 0 a3.75 3.75 0 1 0 -7.5 0z" fill="#3a7cc3"></path><path d="M457.5 742.5L457.5 727.5L457.5 712.5L457.5 697.5L457.5 682.5L457.5 667.5L442.5 652.5" stroke="rgba(0, 187, 211, 1)" stroke-width="2.5"></path><path d="M438.75 652.5 a3.75 3.75 0 1 0 7.5 0 a3.75 3.75 0 1 0 -7.5 0z" fill="rgba(0, 187, 211, 1)"></path><path d="M1042.5 442.5L1042.5 427.5L1042.5 412.5M1072.5 277.5L1072.5 262.5L1072.5 247.5L1072.5 232.5L1072.5 217.5L1072.5 202.5M1087.5 247.5L1102.5 232.5L1102.5 217.5L1102.5 202.5L1102.5 187.5L1102.5 172.5L1102.5 157.5L1102.5 142.5L1102.5 127.5L1102.5 112.5L1117.5 97.5L1117.5 82.5L1117.5 67.5L1117.5 52.5L1117.5 37.5M1057.5 397.5L1042.5 382.5L1042.5 367.5L1042.5 352.5M1087.5 262.5L1102.5 247.5L1117.5 232.5L1117.5 217.5L1117.5 202.5L1117.5 187.5L1117.5 172.5L1117.5 157.5L1117.5 142.5L1117.5 127.5L1117.5 112.5M1087.5 112.5L1072.5 97.5L1072.5 82.5L1072.5 67.5M1042.5 457.5L1027.5 442.5L1027.5 427.5L1027.5 412.5L1027.5 397.5M1072.5 322.5L1087.5 307.5L1087.5 292.5M1072.5 292.5L1057.5 277.5L1057.5 262.5L1057.5 247.5L1057.5 232.5L1057.5 217.5L1057.5 202.5L1057.5 187.5L1057.5 172.5L1057.5 157.5L1057.5 142.5L1057.5 127.5M1027.5 487.5L1042.5 472.5M1087.5 187.5L1072.5 172.5L1072.5 157.5L1072.5 142.5L1072.5 127.5L1072.5 112.5L1057.5 97.5L1057.5 82.5L1057.5 67.5L1057.5 52.5L1057.5 37.5M997.5 742.5L997.5 727.5L1012.5 712.5L1012.5 697.5L1012.5 682.5L1027.5 667.5L1027.5 652.5L1027.5 637.5L1027.5 622.5L1027.5 607.5L1027.5 592.5L1027.5 577.5L1027.5 562.5L1027.5 547.5L1027.5 532.5L1027.5 517.5L1027.5 502.5L1027.5 487.5L1027.5 472.5L1042.5 457.5L1042.5 442.5L1057.5 427.5L1057.5 412.5L1057.5 397.5L1057.5 382.5L1072.5 367.5L1072.5 352.5L1072.5 337.5L1072.5 322.5L1072.5 307.5L1072.5 292.5L1072.5 277.5L1087.5 262.5L1087.5 247.5L1087.5 232.5L1087.5 217.5L1087.5 202.5L1087.5 187.5L1087.5 172.5L1087.5 157.5L1087.5 142.5L1087.5 127.5L1087.5 112.5L1087.5 97.5L1087.5 82.5L1087.5 67.5" stroke="rgba(0, 187, 211, 1)" stroke-width="2.5"></path><path d="M1083.75 67.5 a3.75 3.75 0 1 0 7.5 0 a3.75 3.75 0 1 0 -7.5 0zM1038.75 412.5 a3.75 3.75 0 1 0 7.5 0 a3.75 3.75 0 1 0 -7.5 0zM1068.75 202.5 a3.75 3.75 0 1 0 7.5 0 a3.75 3.75 0 1 0 -7.5 0zM1113.75 37.5 a3.75 3.75 0 1 0 7.5 0 a3.75 3.75 0 1 0 -7.5 0zM1038.75 352.5 a3.75 3.75 0 1 0 7.5 0 a3.75 3.75 0 1 0 -7.5 0zM1113.75 112.5 a3.75 3.75 0 1 0 7.5 0 a3.75 3.75 0 1 0 -7.5 0zM1068.75 67.5 a3.75 3.75 0 1 0 7.5 0 a3.75 3.75 0 1 0 -7.5 0zM1023.75 397.5 a3.75 3.75 0 1 0 7.5 0 a3.75 3.75 0 1 0 -7.5 0zM1083.75 292.5 a3.75 3.75 0 1 0 7.5 0 a3.75 3.75 0 1 0 -7.5 0zM1053.75 127.5 a3.75 3.75 0 1 0 7.5 0 a3.75 3.75 0 1 0 -7.5 0zM1038.75 472.5 a3.75 3.75 0 1 0 7.5 0 a3.75 3.75 0 1 0 -7.5 0zM1053.75 37.5 a3.75 3.75 0 1 0 7.5 0 a3.75 3.75 0 1 0 -7.5 0z" fill="rgba(0, 187, 211, 1)"></path><path d="M442.5 742.5L442.5 727.5L442.5 712.5L442.5 697.5L442.5 682.5L442.5 667.5L427.5 652.5L427.5 637.5L427.5 622.5L412.5 607.5L412.5 592.5L412.5 577.5L412.5 562.5L412.5 547.5L412.5 532.5L412.5 517.5L412.5 502.5L412.5 487.5L412.5 472.5" stroke="#3a7cc3" stroke-width="2.5"></path><path d="M408.75 472.5 a3.75 3.75 0 1 0 7.5 0 a3.75 3.75 0 1 0 -7.5 0z" fill="#3a7cc3"></path><path d="M1042.5 577.5L1057.5 562.5M1042.5 592.5L1057.5 577.5M1012.5 742.5L1012.5 727.5L1027.5 712.5L1027.5 697.5L1027.5 682.5L1042.5 667.5L1042.5 652.5L1042.5 637.5L1042.5 622.5L1042.5 607.5L1042.5 592.5L1042.5 577.5L1042.5 562.5L1042.5 547.5L1042.5 532.5" stroke="#3a7cc3" stroke-width="2.5"></path><path d="M1038.75 532.5 a3.75 3.75 0 1 0 7.5 0 a3.75 3.75 0 1 0 -7.5 0zM1053.75 562.5 a3.75 3.75 0 1 0 7.5 0 a3.75 3.75 0 1 0 -7.5 0zM1053.75 577.5 a3.75 3.75 0 1 0 7.5 0 a3.75 3.75 0 1 0 -7.5 0z" fill="#3a7cc3"></path><path d="M397.5 487.5L382.5 472.5M427.5 712.5L412.5 697.5L412.5 682.5L412.5 667.5M397.5 367.5L382.5 352.5M397.5 427.5L382.5 412.5L382.5 397.5M397.5 382.5L382.5 367.5M397.5 442.5L382.5 427.5M427.5 742.5L427.5 727.5L427.5 712.5L427.5 697.5L427.5 682.5L427.5 667.5L412.5 652.5L412.5 637.5L412.5 622.5L397.5 607.5L397.5 592.5L397.5 577.5L397.5 562.5L397.5 547.5L397.5 532.5L397.5 517.5L397.5 502.5L397.5 487.5L397.5 472.5L397.5 457.5L397.5 442.5L397.5 427.5L397.5 412.5L397.5 397.5L397.5 382.5L397.5 367.5L397.5 352.5" stroke="rgba(0, 187, 211, 1)" stroke-width="2.5"></path><path d="M393.75 352.5 a3.75 3.75 0 1 0 7.5 0 a3.75 3.75 0 1 0 -7.5 0zM378.75 472.5 a3.75 3.75 0 1 0 7.5 0 a3.75 3.75 0 1 0 -7.5 0zM408.75 667.5 a3.75 3.75 0 1 0 7.5 0 a3.75 3.75 0 1 0 -7.5 0zM378.75 352.5 a3.75 3.75 0 1 0 7.5 0 a3.75 3.75 0 1 0 -7.5 0zM378.75 397.5 a3.75 3.75 0 1 0 7.5 0 a3.75 3.75 0 1 0 -7.5 0zM378.75 367.5 a3.75 3.75 0 1 0 7.5 0 a3.75 3.75 0 1 0 -7.5 0zM378.75 427.5 a3.75 3.75 0 1 0 7.5 0 a3.75 3.75 0 1 0 -7.5 0z" fill="rgba(0, 187, 211, 1)"></path><path d="M1072.5 412.5L1087.5 397.5L1102.5 382.5M1087.5 517.5L1072.5 502.5L1057.5 487.5M1072.5 487.5L1072.5 472.5M1072.5 547.5L1087.5 532.5M1087.5 502.5L1087.5 487.5L1087.5 472.5M1072.5 607.5L1057.5 592.5M1027.5 742.5L1027.5 727.5L1042.5 712.5L1042.5 697.5L1042.5 682.5L1057.5 667.5L1057.5 652.5L1057.5 637.5L1057.5 622.5L1072.5 607.5L1072.5 592.5L1072.5 577.5L1072.5 562.5L1072.5 547.5L1072.5 532.5L1087.5 517.5L1087.5 502.5L1072.5 487.5L1057.5 472.5L1057.5 457.5L1057.5 442.5L1072.5 427.5L1072.5 412.5L1072.5 397.5L1087.5 382.5" stroke="#3a7cc3" stroke-width="2.5"></path><path d="M1083.75 382.5 a3.75 3.75 0 1 0 7.5 0 a3.75 3.75 0 1 0 -7.5 0zM1098.75 382.5 a3.75 3.75 0 1 0 7.5 0 a3.75 3.75 0 1 0 -7.5 0zM1053.75 487.5 a3.75 3.75 0 1 0 7.5 0 a3.75 3.75 0 1 0 -7.5 0zM1068.75 472.5 a3.75 3.75 0 1 0 7.5 0 a3.75 3.75 0 1 0 -7.5 0zM1083.75 532.5 a3.75 3.75 0 1 0 7.5 0 a3.75 3.75 0 1 0 -7.5 0zM1083.75 472.5 a3.75 3.75 0 1 0 7.5 0 a3.75 3.75 0 1 0 -7.5 0zM1053.75 592.5 a3.75 3.75 0 1 0 7.5 0 a3.75 3.75 0 1 0 -7.5 0z" fill="#3a7cc3"></path><path d="M352.5 337.5L367.5 322.5L367.5 307.5L367.5 292.5L367.5 277.5L367.5 262.5L367.5 247.5L367.5 232.5L367.5 217.5M382.5 517.5L382.5 502.5M352.5 262.5L337.5 247.5M412.5 727.5L412.5 712.5M367.5 457.5L382.5 442.5M367.5 352.5L367.5 337.5L382.5 322.5L382.5 307.5L382.5 292.5L382.5 277.5L382.5 262.5M412.5 742.5L412.5 727.5L397.5 712.5L397.5 697.5L397.5 682.5L397.5 667.5L397.5 652.5L397.5 637.5L397.5 622.5L382.5 607.5L382.5 592.5L382.5 577.5L382.5 562.5L382.5 547.5L382.5 532.5L382.5 517.5L367.5 502.5L367.5 487.5L367.5 472.5L367.5 457.5L367.5 442.5L367.5 427.5L367.5 412.5L367.5 397.5L367.5 382.5L367.5 367.5L367.5 352.5L352.5 337.5L352.5 322.5L352.5 307.5L352.5 292.5L352.5 277.5L352.5 262.5L352.5 247.5L352.5 232.5L352.5 217.5L352.5 202.5L352.5 187.5L352.5 172.5L352.5 157.5L352.5 142.5L352.5 127.5L352.5 112.5L352.5 97.5" stroke="#3a7cc3" stroke-width="2.5"></path><path d="M348.75 97.5 a3.75 3.75 0 1 0 7.5 0 a3.75 3.75 0 1 0 -7.5 0zM363.75 217.5 a3.75 3.75 0 1 0 7.5 0 a3.75 3.75 0 1 0 -7.5 0zM378.75 502.5 a3.75 3.75 0 1 0 7.5 0 a3.75 3.75 0 1 0 -7.5 0zM333.75 247.5 a3.75 3.75 0 1 0 7.5 0 a3.75 3.75 0 1 0 -7.5 0zM408.75 712.5 a3.75 3.75 0 1 0 7.5 0 a3.75 3.75 0 1 0 -7.5 0zM378.75 442.5 a3.75 3.75 0 1 0 7.5 0 a3.75 3.75 0 1 0 -7.5 0zM378.75 262.5 a3.75 3.75 0 1 0 7.5 0 a3.75 3.75 0 1 0 -7.5 0z" fill="#3a7cc3"></path><path d="M1102.5 562.5L1087.5 547.5M1087.5 577.5L1087.5 562.5M1102.5 517.5L1102.5 502.5L1102.5 487.5L1102.5 472.5M1042.5 742.5L1042.5 727.5L1057.5 712.5L1057.5 697.5L1057.5 682.5L1072.5 667.5L1072.5 652.5L1072.5 637.5L1072.5 622.5L1087.5 607.5L1087.5 592.5L1087.5 577.5L1102.5 562.5L1102.5 547.5L1102.5 532.5L1102.5 517.5L1117.5 502.5" stroke="rgba(0, 187, 211, 1)" stroke-width="2.5"></path><path d="M1113.75 502.5 a3.75 3.75 0 1 0 7.5 0 a3.75 3.75 0 1 0 -7.5 0zM1083.75 547.5 a3.75 3.75 0 1 0 7.5 0 a3.75 3.75 0 1 0 -7.5 0zM1083.75 562.5 a3.75 3.75 0 1 0 7.5 0 a3.75 3.75 0 1 0 -7.5 0zM1098.75 472.5 a3.75 3.75 0 1 0 7.5 0 a3.75 3.75 0 1 0 -7.5 0z" fill="rgba(0, 187, 211, 1)"></path><path d="M352.5 367.5L352.5 352.5M397.5 742.5L397.5 727.5L382.5 712.5L382.5 697.5L382.5 682.5L382.5 667.5L382.5 652.5L382.5 637.5L382.5 622.5L367.5 607.5L367.5 592.5L367.5 577.5L367.5 562.5L367.5 547.5L367.5 532.5L367.5 517.5L352.5 502.5L352.5 487.5L352.5 472.5L352.5 457.5L352.5 442.5L352.5 427.5L352.5 412.5L352.5 397.5L352.5 382.5L352.5 367.5L337.5 352.5L337.5 337.5L337.5 322.5L337.5 307.5L337.5 292.5L337.5 277.5" stroke="rgba(0, 187, 211, 1)" stroke-width="2.5"></path><path d="M333.75 277.5 a3.75 3.75 0 1 0 7.5 0 a3.75 3.75 0 1 0 -7.5 0zM348.75 352.5 a3.75 3.75 0 1 0 7.5 0 a3.75 3.75 0 1 0 -7.5 0z" fill="rgba(0, 187, 211, 1)"></path><path d="M1132.5 337.5L1147.5 322.5L1147.5 307.5M1132.5 127.5L1147.5 112.5L1147.5 97.5L1147.5 82.5M1132.5 487.5L1117.5 472.5L1117.5 457.5L1117.5 442.5L1102.5 427.5L1102.5 412.5L1102.5 397.5L1117.5 382.5L1117.5 367.5L1117.5 352.5L1117.5 337.5L1117.5 322.5L1117.5 307.5L1117.5 292.5L1117.5 277.5M1102.5 592.5L1117.5 577.5L1132.5 562.5L1132.5 547.5L1132.5 532.5M1132.5 217.5L1147.5 202.5L1147.5 187.5L1147.5 172.5L1147.5 157.5L1162.5 142.5L1162.5 127.5L1162.5 112.5L1162.5 97.5L1162.5 82.5L1162.5 67.5L1162.5 52.5L1162.5 37.5M1117.5 412.5L1117.5 397.5M1087.5 652.5L1102.5 637.5L1102.5 622.5L1117.5 607.5L1132.5 592.5L1132.5 577.5L1147.5 562.5L1147.5 547.5L1147.5 532.5L1147.5 517.5L1147.5 502.5L1147.5 487.5L1147.5 472.5L1147.5 457.5L1147.5 442.5L1147.5 427.5M1132.5 442.5L1132.5 427.5L1132.5 412.5L1147.5 397.5L1147.5 382.5L1147.5 367.5M1132.5 352.5L1147.5 337.5L1162.5 322.5L1162.5 307.5L1162.5 292.5L1162.5 277.5M1087.5 667.5L1102.5 652.5L1117.5 637.5L1117.5 622.5L1132.5 607.5M1057.5 742.5L1057.5 727.5L1072.5 712.5L1072.5 697.5L1072.5 682.5L1087.5 667.5L1087.5 652.5L1087.5 637.5L1087.5 622.5L1102.5 607.5L1102.5 592.5L1102.5 577.5L1117.5 562.5L1117.5 547.5L1117.5 532.5L1117.5 517.5L1132.5 502.5L1132.5 487.5L1132.5 472.5L1132.5 457.5L1132.5 442.5L1117.5 427.5L1117.5 412.5L1132.5 397.5L1132.5 382.5L1132.5 367.5L1132.5 352.5L1132.5 337.5L1132.5 322.5L1132.5 307.5L1132.5 292.5L1132.5 277.5L1132.5 262.5L1132.5 247.5L1132.5 232.5L1132.5 217.5L1132.5 202.5L1132.5 187.5L1132.5 172.5L1132.5 157.5L1132.5 142.5L1132.5 127.5L1132.5 112.5" stroke="#3a7cc3" stroke-width="2.5"></path><path d="M1128.75 112.5 a3.75 3.75 0 1 0 7.5 0 a3.75 3.75 0 1 0 -7.5 0zM1143.75 307.5 a3.75 3.75 0 1 0 7.5 0 a3.75 3.75 0 1 0 -7.5 0zM1143.75 82.5 a3.75 3.75 0 1 0 7.5 0 a3.75 3.75 0 1 0 -7.5 0zM1113.75 277.5 a3.75 3.75 0 1 0 7.5 0 a3.75 3.75 0 1 0 -7.5 0zM1128.75 532.5 a3.75 3.75 0 1 0 7.5 0 a3.75 3.75 0 1 0 -7.5 0zM1158.75 37.5 a3.75 3.75 0 1 0 7.5 0 a3.75 3.75 0 1 0 -7.5 0zM1113.75 397.5 a3.75 3.75 0 1 0 7.5 0 a3.75 3.75 0 1 0 -7.5 0zM1143.75 427.5 a3.75 3.75 0 1 0 7.5 0 a3.75 3.75 0 1 0 -7.5 0zM1143.75 367.5 a3.75 3.75 0 1 0 7.5 0 a3.75 3.75 0 1 0 -7.5 0zM1158.75 277.5 a3.75 3.75 0 1 0 7.5 0 a3.75 3.75 0 1 0 -7.5 0zM1128.75 607.5 a3.75 3.75 0 1 0 7.5 0 a3.75 3.75 0 1 0 -7.5 0z" fill="#3a7cc3"></path><path d="M322.5 457.5L307.5 442.5L307.5 427.5L307.5 412.5L307.5 397.5M337.5 112.5L322.5 97.5L322.5 82.5M337.5 427.5L322.5 412.5L322.5 397.5L322.5 382.5L322.5 367.5L307.5 352.5L307.5 337.5L307.5 322.5L307.5 307.5M337.5 157.5L322.5 142.5L322.5 127.5L322.5 112.5L307.5 97.5L307.5 82.5L307.5 67.5L307.5 52.5L307.5 37.5M337.5 217.5L322.5 202.5L322.5 187.5L322.5 172.5M322.5 442.5L322.5 427.5M322.5 277.5L307.5 262.5L307.5 247.5M322.5 292.5L307.5 277.5L292.5 262.5L292.5 247.5L292.5 232.5L292.5 217.5L292.5 202.5L292.5 187.5L307.5 172.5L307.5 157.5M337.5 232.5L322.5 217.5L307.5 202.5M337.5 472.5L337.5 457.5L337.5 442.5M322.5 247.5L322.5 232.5L307.5 217.5M382.5 742.5L382.5 727.5L367.5 712.5L367.5 697.5L367.5 682.5L367.5 667.5L367.5 652.5L367.5 637.5L367.5 622.5L352.5 607.5L352.5 592.5L352.5 577.5L352.5 562.5L352.5 547.5L352.5 532.5L352.5 517.5L337.5 502.5L337.5 487.5L337.5 472.5L322.5 457.5L322.5 442.5L337.5 427.5L337.5 412.5L337.5 397.5L337.5 382.5L337.5 367.5L322.5 352.5L322.5 337.5L322.5 322.5L322.5 307.5L322.5 292.5L322.5 277.5L322.5 262.5L322.5 247.5L337.5 232.5L337.5 217.5L337.5 202.5L337.5 187.5L337.5 172.5L337.5 157.5L337.5 142.5L337.5 127.5L337.5 112.5L337.5 97.5L337.5 82.5L337.5 67.5" stroke="rgba(0, 187, 211, 1)" stroke-width="2.5"></path><path d="M333.75 67.5 a3.75 3.75 0 1 0 7.5 0 a3.75 3.75 0 1 0 -7.5 0zM303.75 397.5 a3.75 3.75 0 1 0 7.5 0 a3.75 3.75 0 1 0 -7.5 0zM318.75 82.5 a3.75 3.75 0 1 0 7.5 0 a3.75 3.75 0 1 0 -7.5 0zM303.75 307.5 a3.75 3.75 0 1 0 7.5 0 a3.75 3.75 0 1 0 -7.5 0zM303.75 37.5 a3.75 3.75 0 1 0 7.5 0 a3.75 3.75 0 1 0 -7.5 0zM318.75 172.5 a3.75 3.75 0 1 0 7.5 0 a3.75 3.75 0 1 0 -7.5 0zM318.75 427.5 a3.75 3.75 0 1 0 7.5 0 a3.75 3.75 0 1 0 -7.5 0zM303.75 247.5 a3.75 3.75 0 1 0 7.5 0 a3.75 3.75 0 1 0 -7.5 0zM303.75 157.5 a3.75 3.75 0 1 0 7.5 0 a3.75 3.75 0 1 0 -7.5 0zM303.75 202.5 a3.75 3.75 0 1 0 7.5 0 a3.75 3.75 0 1 0 -7.5 0zM333.75 442.5 a3.75 3.75 0 1 0 7.5 0 a3.75 3.75 0 1 0 -7.5 0zM303.75 217.5 a3.75 3.75 0 1 0 7.5 0 a3.75 3.75 0 1 0 -7.5 0z" fill="rgba(0, 187, 211, 1)"></path><path d="M1087.5 712.5L1102.5 697.5L1102.5 682.5L1102.5 667.5L1117.5 652.5M1072.5 742.5L1072.5 727.5L1087.5 712.5L1087.5 697.5" stroke="rgba(0, 187, 211, 1)" stroke-width="2.5"></path><path d="M1083.75 697.5 a3.75 3.75 0 1 0 7.5 0 a3.75 3.75 0 1 0 -7.5 0zM1113.75 652.5 a3.75 3.75 0 1 0 7.5 0 a3.75 3.75 0 1 0 -7.5 0z" fill="rgba(0, 187, 211, 1)"></path><path d="M352.5 652.5L337.5 637.5L337.5 622.5L322.5 607.5L322.5 592.5L322.5 577.5L322.5 562.5M322.5 502.5L307.5 487.5L307.5 472.5M352.5 682.5L337.5 667.5L337.5 652.5L322.5 637.5M337.5 532.5L322.5 517.5L307.5 502.5L292.5 487.5L292.5 472.5L292.5 457.5L292.5 442.5L292.5 427.5M367.5 742.5L367.5 727.5L352.5 712.5L352.5 697.5L352.5 682.5L352.5 667.5L352.5 652.5L352.5 637.5L352.5 622.5L337.5 607.5L337.5 592.5L337.5 577.5L337.5 562.5L337.5 547.5L337.5 532.5L337.5 517.5L322.5 502.5L322.5 487.5L322.5 472.5" stroke="rgba(0, 187, 211, 1)" stroke-width="2.5"></path><path d="M318.75 472.5 a3.75 3.75 0 1 0 7.5 0 a3.75 3.75 0 1 0 -7.5 0zM318.75 562.5 a3.75 3.75 0 1 0 7.5 0 a3.75 3.75 0 1 0 -7.5 0zM303.75 472.5 a3.75 3.75 0 1 0 7.5 0 a3.75 3.75 0 1 0 -7.5 0zM318.75 637.5 a3.75 3.75 0 1 0 7.5 0 a3.75 3.75 0 1 0 -7.5 0zM288.75 427.5 a3.75 3.75 0 1 0 7.5 0 a3.75 3.75 0 1 0 -7.5 0z" fill="rgba(0, 187, 211, 1)"></path></g></g><defs><mask id="SvgjsMask1006"><rect width="1440" height="720" fill="#ffffff"></rect></mask><linearGradient x1="12.5%" y1="-25%" x2="87.5%" y2="125%" gradientUnits="userSpaceOnUse" id="SvgjsLinearGradient1007"><stop stop-color="rgba(6, 6, 6, 1)" offset="0"></stop><stop stop-color="rgba(0, 0, 0, 1)" offset="1"></stop></linearGradient><mask id="SvgjsMask1008"><rect width="1440" height="720" fill="white"></rect><path d="M725.62 337.5 a1.88 1.88 0 1 0 3.76 0 a1.88 1.88 0 1 0 -3.76 0zM740.62 292.5 a1.88 1.88 0 1 0 3.76 0 a1.88 1.88 0 1 0 -3.76 0zM710.62 382.5 a1.88 1.88 0 1 0 3.76 0 a1.88 1.88 0 1 0 -3.76 0zM710.62 532.5 a1.88 1.88 0 1 0 3.76 0 a1.88 1.88 0 1 0 -3.76 0zM710.62 427.5 a1.88 1.88 0 1 0 3.76 0 a1.88 1.88 0 1 0 -3.76 0zM710.62 562.5 a1.88 1.88 0 1 0 3.76 0 a1.88 1.88 0 1 0 -3.76 0zM710.62 442.5 a1.88 1.88 0 1 0 3.76 0 a1.88 1.88 0 1 0 -3.76 0zM710.62 637.5 a1.88 1.88 0 1 0 3.76 0 a1.88 1.88 0 1 0 -3.76 0z" fill="black"></path><path d="M695.62 277.5 a1.88 1.88 0 1 0 3.76 0 a1.88 1.88 0 1 0 -3.76 0zM710.62 697.5 a1.88 1.88 0 1 0 3.76 0 a1.88 1.88 0 1 0 -3.76 0zM680.62 592.5 a1.88 1.88 0 1 0 3.76 0 a1.88 1.88 0 1 0 -3.76 0zM680.62 367.5 a1.88 1.88 0 1 0 3.76 0 a1.88 1.88 0 1 0 -3.76 0zM695.62 442.5 a1.88 1.88 0 1 0 3.76 0 a1.88 1.88 0 1 0 -3.76 0zM695.62 502.5 a1.88 1.88 0 1 0 3.76 0 a1.88 1.88 0 1 0 -3.76 0zM680.62 562.5 a1.88 1.88 0 1 0 3.76 0 a1.88 1.88 0 1 0 -3.76 0zM695.62 202.5 a1.88 1.88 0 1 0 3.76 0 a1.88 1.88 0 1 0 -3.76 0zM695.62 472.5 a1.88 1.88 0 1 0 3.76 0 a1.88 1.88 0 1 0 -3.76 0z" fill="black"></path><path d="M755.62 172.5 a1.88 1.88 0 1 0 3.76 0 a1.88 1.88 0 1 0 -3.76 0zM755.62 442.5 a1.88 1.88 0 1 0 3.76 0 a1.88 1.88 0 1 0 -3.76 0zM755.62 562.5 a1.88 1.88 0 1 0 3.76 0 a1.88 1.88 0 1 0 -3.76 0zM770.62 232.5 a1.88 1.88 0 1 0 3.76 0 a1.88 1.88 0 1 0 -3.76 0zM755.62 517.5 a1.88 1.88 0 1 0 3.76 0 a1.88 1.88 0 1 0 -3.76 0zM740.62 322.5 a1.88 1.88 0 1 0 3.76 0 a1.88 1.88 0 1 0 -3.76 0zM725.62 37.5 a1.88 1.88 0 1 0 3.76 0 a1.88 1.88 0 1 0 -3.76 0zM770.62 247.5 a1.88 1.88 0 1 0 3.76 0 a1.88 1.88 0 1 0 -3.76 0zM770.62 67.5 a1.88 1.88 0 1 0 3.76 0 a1.88 1.88 0 1 0 -3.76 0zM755.62 292.5 a1.88 1.88 0 1 0 3.76 0 a1.88 1.88 0 1 0 -3.76 0z" fill="black"></path><path d="M650.62 487.5 a1.88 1.88 0 1 0 3.76 0 a1.88 1.88 0 1 0 -3.76 0zM665.62 472.5 a1.88 1.88 0 1 0 3.76 0 a1.88 1.88 0 1 0 -3.76 0z" fill="black"></path><path d="M770.62 667.5 a1.88 1.88 0 1 0 3.76 0 a1.88 1.88 0 1 0 -3.76 0zM755.62 682.5 a1.88 1.88 0 1 0 3.76 0 a1.88 1.88 0 1 0 -3.76 0z" fill="black"></path><path d="M680.62 727.5 a1.88 1.88 0 1 0 3.76 0 a1.88 1.88 0 1 0 -3.76 0z" fill="black"></path><path d="M770.62 712.5 a1.88 1.88 0 1 0 3.76 0 a1.88 1.88 0 1 0 -3.76 0z" fill="black"></path><path d="M635.62 202.5 a1.88 1.88 0 1 0 3.76 0 a1.88 1.88 0 1 0 -3.76 0zM620.62 352.5 a1.88 1.88 0 1 0 3.76 0 a1.88 1.88 0 1 0 -3.76 0zM650.62 352.5 a1.88 1.88 0 1 0 3.76 0 a1.88 1.88 0 1 0 -3.76 0zM650.62 157.5 a1.88 1.88 0 1 0 3.76 0 a1.88 1.88 0 1 0 -3.76 0zM680.62 142.5 a1.88 1.88 0 1 0 3.76 0 a1.88 1.88 0 1 0 -3.76 0zM665.62 217.5 a1.88 1.88 0 1 0 3.76 0 a1.88 1.88 0 1 0 -3.76 0zM665.62 352.5 a1.88 1.88 0 1 0 3.76 0 a1.88 1.88 0 1 0 -3.76 0zM620.62 232.5 a1.88 1.88 0 1 0 3.76 0 a1.88 1.88 0 1 0 -3.76 0zM620.62 307.5 a1.88 1.88 0 1 0 3.76 0 a1.88 1.88 0 1 0 -3.76 0zM665.62 397.5 a1.88 1.88 0 1 0 3.76 0 a1.88 1.88 0 1 0 -3.76 0z" fill="black"></path><path d="M785.62 67.5 a1.88 1.88 0 1 0 3.76 0 a1.88 1.88 0 1 0 -3.76 0zM800.62 67.5 a1.88 1.88 0 1 0 3.76 0 a1.88 1.88 0 1 0 -3.76 0zM770.62 382.5 a1.88 1.88 0 1 0 3.76 0 a1.88 1.88 0 1 0 -3.76 0zM800.62 112.5 a1.88 1.88 0 1 0 3.76 0 a1.88 1.88 0 1 0 -3.76 0zM800.62 262.5 a1.88 1.88 0 1 0 3.76 0 a1.88 1.88 0 1 0 -3.76 0zM770.62 577.5 a1.88 1.88 0 1 0 3.76 0 a1.88 1.88 0 1 0 -3.76 0zM770.62 532.5 a1.88 1.88 0 1 0 3.76 0 a1.88 1.88 0 1 0 -3.76 0zM800.62 292.5 a1.88 1.88 0 1 0 3.76 0 a1.88 1.88 0 1 0 -3.76 0zM800.62 592.5 a1.88 1.88 0 1 0 3.76 0 a1.88 1.88 0 1 0 -3.76 0zM800.62 607.5 a1.88 1.88 0 1 0 3.76 0 a1.88 1.88 0 1 0 -3.76 0zM755.62 487.5 a1.88 1.88 0 1 0 3.76 0 a1.88 1.88 0 1 0 -3.76 0zM755.62 412.5 a1.88 1.88 0 1 0 3.76 0 a1.88 1.88 0 1 0 -3.76 0z" fill="black"></path><path d="M620.62 472.5 a1.88 1.88 0 1 0 3.76 0 a1.88 1.88 0 1 0 -3.76 0zM635.62 667.5 a1.88 1.88 0 1 0 3.76 0 a1.88 1.88 0 1 0 -3.76 0zM605.62 562.5 a1.88 1.88 0 1 0 3.76 0 a1.88 1.88 0 1 0 -3.76 0zM605.62 517.5 a1.88 1.88 0 1 0 3.76 0 a1.88 1.88 0 1 0 -3.76 0z" fill="black"></path><path d="M800.62 472.5 a1.88 1.88 0 1 0 3.76 0 a1.88 1.88 0 1 0 -3.76 0zM815.62 532.5 a1.88 1.88 0 1 0 3.76 0 a1.88 1.88 0 1 0 -3.76 0zM800.62 622.5 a1.88 1.88 0 1 0 3.76 0 a1.88 1.88 0 1 0 -3.76 0zM815.62 577.5 a1.88 1.88 0 1 0 3.76 0 a1.88 1.88 0 1 0 -3.76 0zM785.62 472.5 a1.88 1.88 0 1 0 3.76 0 a1.88 1.88 0 1 0 -3.76 0z" fill="black"></path><path d="M605.62 607.5 a1.88 1.88 0 1 0 3.76 0 a1.88 1.88 0 1 0 -3.76 0zM635.62 712.5 a1.88 1.88 0 1 0 3.76 0 a1.88 1.88 0 1 0 -3.76 0z" fill="black"></path><path d="M815.62 142.5 a1.88 1.88 0 1 0 3.76 0 a1.88 1.88 0 1 0 -3.76 0zM830.62 397.5 a1.88 1.88 0 1 0 3.76 0 a1.88 1.88 0 1 0 -3.76 0zM830.62 637.5 a1.88 1.88 0 1 0 3.76 0 a1.88 1.88 0 1 0 -3.76 0zM800.62 337.5 a1.88 1.88 0 1 0 3.76 0 a1.88 1.88 0 1 0 -3.76 0zM815.62 37.5 a1.88 1.88 0 1 0 3.76 0 a1.88 1.88 0 1 0 -3.76 0zM860.62 232.5 a1.88 1.88 0 1 0 3.76 0 a1.88 1.88 0 1 0 -3.76 0zM830.62 367.5 a1.88 1.88 0 1 0 3.76 0 a1.88 1.88 0 1 0 -3.76 0zM830.62 667.5 a1.88 1.88 0 1 0 3.76 0 a1.88 1.88 0 1 0 -3.76 0zM830.62 427.5 a1.88 1.88 0 1 0 3.76 0 a1.88 1.88 0 1 0 -3.76 0zM845.62 157.5 a1.88 1.88 0 1 0 3.76 0 a1.88 1.88 0 1 0 -3.76 0zM830.62 442.5 a1.88 1.88 0 1 0 3.76 0 a1.88 1.88 0 1 0 -3.76 0z" fill="black"></path><path d="M605.62 397.5 a1.88 1.88 0 1 0 3.76 0 a1.88 1.88 0 1 0 -3.76 0zM590.62 472.5 a1.88 1.88 0 1 0 3.76 0 a1.88 1.88 0 1 0 -3.76 0zM590.62 307.5 a1.88 1.88 0 1 0 3.76 0 a1.88 1.88 0 1 0 -3.76 0zM590.62 487.5 a1.88 1.88 0 1 0 3.76 0 a1.88 1.88 0 1 0 -3.76 0zM590.62 502.5 a1.88 1.88 0 1 0 3.76 0 a1.88 1.88 0 1 0 -3.76 0zM575.62 367.5 a1.88 1.88 0 1 0 3.76 0 a1.88 1.88 0 1 0 -3.76 0z" fill="black"></path><path d="M875.62 217.5 a1.88 1.88 0 1 0 3.76 0 a1.88 1.88 0 1 0 -3.76 0zM860.62 262.5 a1.88 1.88 0 1 0 3.76 0 a1.88 1.88 0 1 0 -3.76 0zM860.62 277.5 a1.88 1.88 0 1 0 3.76 0 a1.88 1.88 0 1 0 -3.76 0zM860.62 562.5 a1.88 1.88 0 1 0 3.76 0 a1.88 1.88 0 1 0 -3.76 0zM830.62 682.5 a1.88 1.88 0 1 0 3.76 0 a1.88 1.88 0 1 0 -3.76 0zM860.62 322.5 a1.88 1.88 0 1 0 3.76 0 a1.88 1.88 0 1 0 -3.76 0z" fill="black"></path><path d="M560.62 142.5 a1.88 1.88 0 1 0 3.76 0 a1.88 1.88 0 1 0 -3.76 0zM545.62 202.5 a1.88 1.88 0 1 0 3.76 0 a1.88 1.88 0 1 0 -3.76 0zM575.62 112.5 a1.88 1.88 0 1 0 3.76 0 a1.88 1.88 0 1 0 -3.76 0zM545.62 382.5 a1.88 1.88 0 1 0 3.76 0 a1.88 1.88 0 1 0 -3.76 0zM590.62 172.5 a1.88 1.88 0 1 0 3.76 0 a1.88 1.88 0 1 0 -3.76 0zM575.62 262.5 a1.88 1.88 0 1 0 3.76 0 a1.88 1.88 0 1 0 -3.76 0zM530.62 217.5 a1.88 1.88 0 1 0 3.76 0 a1.88 1.88 0 1 0 -3.76 0zM560.62 127.5 a1.88 1.88 0 1 0 3.76 0 a1.88 1.88 0 1 0 -3.76 0zM575.62 442.5 a1.88 1.88 0 1 0 3.76 0 a1.88 1.88 0 1 0 -3.76 0zM545.62 172.5 a1.88 1.88 0 1 0 3.76 0 a1.88 1.88 0 1 0 -3.76 0zM545.62 322.5 a1.88 1.88 0 1 0 3.76 0 a1.88 1.88 0 1 0 -3.76 0z" fill="black"></path><path d="M920.62 52.5 a1.88 1.88 0 1 0 3.76 0 a1.88 1.88 0 1 0 -3.76 0zM935.62 217.5 a1.88 1.88 0 1 0 3.76 0 a1.88 1.88 0 1 0 -3.76 0zM875.62 487.5 a1.88 1.88 0 1 0 3.76 0 a1.88 1.88 0 1 0 -3.76 0zM905.62 232.5 a1.88 1.88 0 1 0 3.76 0 a1.88 1.88 0 1 0 -3.76 0zM890.62 37.5 a1.88 1.88 0 1 0 3.76 0 a1.88 1.88 0 1 0 -3.76 0zM905.62 367.5 a1.88 1.88 0 1 0 3.76 0 a1.88 1.88 0 1 0 -3.76 0zM935.62 37.5 a1.88 1.88 0 1 0 3.76 0 a1.88 1.88 0 1 0 -3.76 0zM860.62 142.5 a1.88 1.88 0 1 0 3.76 0 a1.88 1.88 0 1 0 -3.76 0zM875.62 37.5 a1.88 1.88 0 1 0 3.76 0 a1.88 1.88 0 1 0 -3.76 0zM920.62 97.5 a1.88 1.88 0 1 0 3.76 0 a1.88 1.88 0 1 0 -3.76 0zM860.62 577.5 a1.88 1.88 0 1 0 3.76 0 a1.88 1.88 0 1 0 -3.76 0zM950.62 37.5 a1.88 1.88 0 1 0 3.76 0 a1.88 1.88 0 1 0 -3.76 0z" fill="black"></path><path d="M470.62 157.5 a1.88 1.88 0 1 0 3.76 0 a1.88 1.88 0 1 0 -3.76 0zM530.62 397.5 a1.88 1.88 0 1 0 3.76 0 a1.88 1.88 0 1 0 -3.76 0zM530.62 457.5 a1.88 1.88 0 1 0 3.76 0 a1.88 1.88 0 1 0 -3.76 0zM515.62 592.5 a1.88 1.88 0 1 0 3.76 0 a1.88 1.88 0 1 0 -3.76 0zM530.62 307.5 a1.88 1.88 0 1 0 3.76 0 a1.88 1.88 0 1 0 -3.76 0zM515.62 202.5 a1.88 1.88 0 1 0 3.76 0 a1.88 1.88 0 1 0 -3.76 0zM515.62 307.5 a1.88 1.88 0 1 0 3.76 0 a1.88 1.88 0 1 0 -3.76 0zM545.62 577.5 a1.88 1.88 0 1 0 3.76 0 a1.88 1.88 0 1 0 -3.76 0zM530.62 502.5 a1.88 1.88 0 1 0 3.76 0 a1.88 1.88 0 1 0 -3.76 0zM500.62 337.5 a1.88 1.88 0 1 0 3.76 0 a1.88 1.88 0 1 0 -3.76 0zM575.62 697.5 a1.88 1.88 0 1 0 3.76 0 a1.88 1.88 0 1 0 -3.76 0z" fill="black"></path><path d="M890.62 577.5 a1.88 1.88 0 1 0 3.76 0 a1.88 1.88 0 1 0 -3.76 0z" fill="black"></path><path d="M905.62 577.5 a1.88 1.88 0 1 0 3.76 0 a1.88 1.88 0 1 0 -3.76 0zM875.62 712.5 a1.88 1.88 0 1 0 3.76 0 a1.88 1.88 0 1 0 -3.76 0z" fill="black"></path><path d="M470.62 67.5 a1.88 1.88 0 1 0 3.76 0 a1.88 1.88 0 1 0 -3.76 0zM455.62 202.5 a1.88 1.88 0 1 0 3.76 0 a1.88 1.88 0 1 0 -3.76 0zM500.62 442.5 a1.88 1.88 0 1 0 3.76 0 a1.88 1.88 0 1 0 -3.76 0zM440.62 187.5 a1.88 1.88 0 1 0 3.76 0 a1.88 1.88 0 1 0 -3.76 0zM485.62 67.5 a1.88 1.88 0 1 0 3.76 0 a1.88 1.88 0 1 0 -3.76 0zM485.62 82.5 a1.88 1.88 0 1 0 3.76 0 a1.88 1.88 0 1 0 -3.76 0zM455.62 52.5 a1.88 1.88 0 1 0 3.76 0 a1.88 1.88 0 1 0 -3.76 0zM500.62 352.5 a1.88 1.88 0 1 0 3.76 0 a1.88 1.88 0 1 0 -3.76 0zM500.62 457.5 a1.88 1.88 0 1 0 3.76 0 a1.88 1.88 0 1 0 -3.76 0zM515.62 637.5 a1.88 1.88 0 1 0 3.76 0 a1.88 1.88 0 1 0 -3.76 0zM485.62 367.5 a1.88 1.88 0 1 0 3.76 0 a1.88 1.88 0 1 0 -3.76 0zM500.62 37.5 a1.88 1.88 0 1 0 3.76 0 a1.88 1.88 0 1 0 -3.76 0z" fill="black"></path><path d="M935.62 517.5 a1.88 1.88 0 1 0 3.76 0 a1.88 1.88 0 1 0 -3.76 0zM920.62 502.5 a1.88 1.88 0 1 0 3.76 0 a1.88 1.88 0 1 0 -3.76 0zM920.62 532.5 a1.88 1.88 0 1 0 3.76 0 a1.88 1.88 0 1 0 -3.76 0zM905.62 532.5 a1.88 1.88 0 1 0 3.76 0 a1.88 1.88 0 1 0 -3.76 0z" fill="black"></path><path d="M470.62 292.5 a1.88 1.88 0 1 0 3.76 0 a1.88 1.88 0 1 0 -3.76 0zM470.62 472.5 a1.88 1.88 0 1 0 3.76 0 a1.88 1.88 0 1 0 -3.76 0zM455.62 292.5 a1.88 1.88 0 1 0 3.76 0 a1.88 1.88 0 1 0 -3.76 0zM470.62 547.5 a1.88 1.88 0 1 0 3.76 0 a1.88 1.88 0 1 0 -3.76 0zM440.62 247.5 a1.88 1.88 0 1 0 3.76 0 a1.88 1.88 0 1 0 -3.76 0zM470.62 592.5 a1.88 1.88 0 1 0 3.76 0 a1.88 1.88 0 1 0 -3.76 0z" fill="black"></path><path d="M920.62 352.5 a1.88 1.88 0 1 0 3.76 0 a1.88 1.88 0 1 0 -3.76 0zM920.62 442.5 a1.88 1.88 0 1 0 3.76 0 a1.88 1.88 0 1 0 -3.76 0zM965.62 502.5 a1.88 1.88 0 1 0 3.76 0 a1.88 1.88 0 1 0 -3.76 0zM935.62 352.5 a1.88 1.88 0 1 0 3.76 0 a1.88 1.88 0 1 0 -3.76 0zM950.62 382.5 a1.88 1.88 0 1 0 3.76 0 a1.88 1.88 0 1 0 -3.76 0zM965.62 517.5 a1.88 1.88 0 1 0 3.76 0 a1.88 1.88 0 1 0 -3.76 0zM905.62 397.5 a1.88 1.88 0 1 0 3.76 0 a1.88 1.88 0 1 0 -3.76 0z" fill="black"></path><path d="M455.62 337.5 a1.88 1.88 0 1 0 3.76 0 a1.88 1.88 0 1 0 -3.76 0zM470.62 607.5 a1.88 1.88 0 1 0 3.76 0 a1.88 1.88 0 1 0 -3.76 0z" fill="black"></path><path d="M1010.62 232.5 a1.88 1.88 0 1 0 3.76 0 a1.88 1.88 0 1 0 -3.76 0zM950.62 322.5 a1.88 1.88 0 1 0 3.76 0 a1.88 1.88 0 1 0 -3.76 0zM980.62 262.5 a1.88 1.88 0 1 0 3.76 0 a1.88 1.88 0 1 0 -3.76 0zM950.62 607.5 a1.88 1.88 0 1 0 3.76 0 a1.88 1.88 0 1 0 -3.76 0zM980.62 217.5 a1.88 1.88 0 1 0 3.76 0 a1.88 1.88 0 1 0 -3.76 0zM995.62 247.5 a1.88 1.88 0 1 0 3.76 0 a1.88 1.88 0 1 0 -3.76 0zM965.62 427.5 a1.88 1.88 0 1 0 3.76 0 a1.88 1.88 0 1 0 -3.76 0zM965.62 547.5 a1.88 1.88 0 1 0 3.76 0 a1.88 1.88 0 1 0 -3.76 0zM950.62 247.5 a1.88 1.88 0 1 0 3.76 0 a1.88 1.88 0 1 0 -3.76 0z" fill="black"></path><path d="M410.62 157.5 a1.88 1.88 0 1 0 3.76 0 a1.88 1.88 0 1 0 -3.76 0zM425.62 337.5 a1.88 1.88 0 1 0 3.76 0 a1.88 1.88 0 1 0 -3.76 0zM425.62 367.5 a1.88 1.88 0 1 0 3.76 0 a1.88 1.88 0 1 0 -3.76 0zM425.62 142.5 a1.88 1.88 0 1 0 3.76 0 a1.88 1.88 0 1 0 -3.76 0zM425.62 217.5 a1.88 1.88 0 1 0 3.76 0 a1.88 1.88 0 1 0 -3.76 0zM425.62 412.5 a1.88 1.88 0 1 0 3.76 0 a1.88 1.88 0 1 0 -3.76 0zM440.62 307.5 a1.88 1.88 0 1 0 3.76 0 a1.88 1.88 0 1 0 -3.76 0z" fill="black"></path><path d="M1040.62 142.5 a1.88 1.88 0 1 0 3.76 0 a1.88 1.88 0 1 0 -3.76 0zM1025.62 292.5 a1.88 1.88 0 1 0 3.76 0 a1.88 1.88 0 1 0 -3.76 0zM950.62 622.5 a1.88 1.88 0 1 0 3.76 0 a1.88 1.88 0 1 0 -3.76 0zM1040.62 277.5 a1.88 1.88 0 1 0 3.76 0 a1.88 1.88 0 1 0 -3.76 0zM995.62 457.5 a1.88 1.88 0 1 0 3.76 0 a1.88 1.88 0 1 0 -3.76 0zM1040.62 217.5 a1.88 1.88 0 1 0 3.76 0 a1.88 1.88 0 1 0 -3.76 0zM1040.62 307.5 a1.88 1.88 0 1 0 3.76 0 a1.88 1.88 0 1 0 -3.76 0zM1010.62 532.5 a1.88 1.88 0 1 0 3.76 0 a1.88 1.88 0 1 0 -3.76 0zM1055.62 307.5 a1.88 1.88 0 1 0 3.76 0 a1.88 1.88 0 1 0 -3.76 0zM995.62 142.5 a1.88 1.88 0 1 0 3.76 0 a1.88 1.88 0 1 0 -3.76 0zM1010.62 262.5 a1.88 1.88 0 1 0 3.76 0 a1.88 1.88 0 1 0 -3.76 0z" fill="black"></path><path d="M500.62 712.5 a1.88 1.88 0 1 0 3.76 0 a1.88 1.88 0 1 0 -3.76 0z" fill="black"></path><path d="M995.62 577.5 a1.88 1.88 0 1 0 3.76 0 a1.88 1.88 0 1 0 -3.76 0z" fill="black"></path><path d="M395.62 172.5 a1.88 1.88 0 1 0 3.76 0 a1.88 1.88 0 1 0 -3.76 0zM395.62 307.5 a1.88 1.88 0 1 0 3.76 0 a1.88 1.88 0 1 0 -3.76 0zM350.62 52.5 a1.88 1.88 0 1 0 3.76 0 a1.88 1.88 0 1 0 -3.76 0zM380.62 247.5 a1.88 1.88 0 1 0 3.76 0 a1.88 1.88 0 1 0 -3.76 0zM380.62 82.5 a1.88 1.88 0 1 0 3.76 0 a1.88 1.88 0 1 0 -3.76 0zM410.62 442.5 a1.88 1.88 0 1 0 3.76 0 a1.88 1.88 0 1 0 -3.76 0zM425.62 427.5 a1.88 1.88 0 1 0 3.76 0 a1.88 1.88 0 1 0 -3.76 0zM380.62 187.5 a1.88 1.88 0 1 0 3.76 0 a1.88 1.88 0 1 0 -3.76 0z" fill="black"></path><path d="M995.62 592.5 a1.88 1.88 0 1 0 3.76 0 a1.88 1.88 0 1 0 -3.76 0z" fill="black"></path><path d="M470.62 697.5 a1.88 1.88 0 1 0 3.76 0 a1.88 1.88 0 1 0 -3.76 0z" fill="black"></path><path d="M1010.62 562.5 a1.88 1.88 0 1 0 3.76 0 a1.88 1.88 0 1 0 -3.76 0z" fill="black"></path><path d="M440.62 652.5 a1.88 1.88 0 1 0 3.76 0 a1.88 1.88 0 1 0 -3.76 0z" fill="black"></path><path d="M1085.62 67.5 a1.88 1.88 0 1 0 3.76 0 a1.88 1.88 0 1 0 -3.76 0zM1040.62 412.5 a1.88 1.88 0 1 0 3.76 0 a1.88 1.88 0 1 0 -3.76 0zM1070.62 202.5 a1.88 1.88 0 1 0 3.76 0 a1.88 1.88 0 1 0 -3.76 0zM1115.62 37.5 a1.88 1.88 0 1 0 3.76 0 a1.88 1.88 0 1 0 -3.76 0zM1040.62 352.5 a1.88 1.88 0 1 0 3.76 0 a1.88 1.88 0 1 0 -3.76 0zM1115.62 112.5 a1.88 1.88 0 1 0 3.76 0 a1.88 1.88 0 1 0 -3.76 0zM1070.62 67.5 a1.88 1.88 0 1 0 3.76 0 a1.88 1.88 0 1 0 -3.76 0zM1025.62 397.5 a1.88 1.88 0 1 0 3.76 0 a1.88 1.88 0 1 0 -3.76 0zM1085.62 292.5 a1.88 1.88 0 1 0 3.76 0 a1.88 1.88 0 1 0 -3.76 0zM1055.62 127.5 a1.88 1.88 0 1 0 3.76 0 a1.88 1.88 0 1 0 -3.76 0zM1040.62 472.5 a1.88 1.88 0 1 0 3.76 0 a1.88 1.88 0 1 0 -3.76 0zM1055.62 37.5 a1.88 1.88 0 1 0 3.76 0 a1.88 1.88 0 1 0 -3.76 0z" fill="black"></path><path d="M410.62 472.5 a1.88 1.88 0 1 0 3.76 0 a1.88 1.88 0 1 0 -3.76 0z" fill="black"></path><path d="M1040.62 532.5 a1.88 1.88 0 1 0 3.76 0 a1.88 1.88 0 1 0 -3.76 0zM1055.62 562.5 a1.88 1.88 0 1 0 3.76 0 a1.88 1.88 0 1 0 -3.76 0zM1055.62 577.5 a1.88 1.88 0 1 0 3.76 0 a1.88 1.88 0 1 0 -3.76 0z" fill="black"></path><path d="M395.62 352.5 a1.88 1.88 0 1 0 3.76 0 a1.88 1.88 0 1 0 -3.76 0zM380.62 472.5 a1.88 1.88 0 1 0 3.76 0 a1.88 1.88 0 1 0 -3.76 0zM410.62 667.5 a1.88 1.88 0 1 0 3.76 0 a1.88 1.88 0 1 0 -3.76 0zM380.62 352.5 a1.88 1.88 0 1 0 3.76 0 a1.88 1.88 0 1 0 -3.76 0zM380.62 397.5 a1.88 1.88 0 1 0 3.76 0 a1.88 1.88 0 1 0 -3.76 0zM380.62 367.5 a1.88 1.88 0 1 0 3.76 0 a1.88 1.88 0 1 0 -3.76 0zM380.62 427.5 a1.88 1.88 0 1 0 3.76 0 a1.88 1.88 0 1 0 -3.76 0z" fill="black"></path><path d="M1085.62 382.5 a1.88 1.88 0 1 0 3.76 0 a1.88 1.88 0 1 0 -3.76 0zM1100.62 382.5 a1.88 1.88 0 1 0 3.76 0 a1.88 1.88 0 1 0 -3.76 0zM1055.62 487.5 a1.88 1.88 0 1 0 3.76 0 a1.88 1.88 0 1 0 -3.76 0zM1070.62 472.5 a1.88 1.88 0 1 0 3.76 0 a1.88 1.88 0 1 0 -3.76 0zM1085.62 532.5 a1.88 1.88 0 1 0 3.76 0 a1.88 1.88 0 1 0 -3.76 0zM1085.62 472.5 a1.88 1.88 0 1 0 3.76 0 a1.88 1.88 0 1 0 -3.76 0zM1055.62 592.5 a1.88 1.88 0 1 0 3.76 0 a1.88 1.88 0 1 0 -3.76 0z" fill="black"></path><path d="M350.62 97.5 a1.88 1.88 0 1 0 3.76 0 a1.88 1.88 0 1 0 -3.76 0zM365.62 217.5 a1.88 1.88 0 1 0 3.76 0 a1.88 1.88 0 1 0 -3.76 0zM380.62 502.5 a1.88 1.88 0 1 0 3.76 0 a1.88 1.88 0 1 0 -3.76 0zM335.62 247.5 a1.88 1.88 0 1 0 3.76 0 a1.88 1.88 0 1 0 -3.76 0zM410.62 712.5 a1.88 1.88 0 1 0 3.76 0 a1.88 1.88 0 1 0 -3.76 0zM380.62 442.5 a1.88 1.88 0 1 0 3.76 0 a1.88 1.88 0 1 0 -3.76 0zM380.62 262.5 a1.88 1.88 0 1 0 3.76 0 a1.88 1.88 0 1 0 -3.76 0z" fill="black"></path><path d="M1115.62 502.5 a1.88 1.88 0 1 0 3.76 0 a1.88 1.88 0 1 0 -3.76 0zM1085.62 547.5 a1.88 1.88 0 1 0 3.76 0 a1.88 1.88 0 1 0 -3.76 0zM1085.62 562.5 a1.88 1.88 0 1 0 3.76 0 a1.88 1.88 0 1 0 -3.76 0zM1100.62 472.5 a1.88 1.88 0 1 0 3.76 0 a1.88 1.88 0 1 0 -3.76 0z" fill="black"></path><path d="M335.62 277.5 a1.88 1.88 0 1 0 3.76 0 a1.88 1.88 0 1 0 -3.76 0zM350.62 352.5 a1.88 1.88 0 1 0 3.76 0 a1.88 1.88 0 1 0 -3.76 0z" fill="black"></path><path d="M1130.62 112.5 a1.88 1.88 0 1 0 3.76 0 a1.88 1.88 0 1 0 -3.76 0zM1145.62 307.5 a1.88 1.88 0 1 0 3.76 0 a1.88 1.88 0 1 0 -3.76 0zM1145.62 82.5 a1.88 1.88 0 1 0 3.76 0 a1.88 1.88 0 1 0 -3.76 0zM1115.62 277.5 a1.88 1.88 0 1 0 3.76 0 a1.88 1.88 0 1 0 -3.76 0zM1130.62 532.5 a1.88 1.88 0 1 0 3.76 0 a1.88 1.88 0 1 0 -3.76 0zM1160.62 37.5 a1.88 1.88 0 1 0 3.76 0 a1.88 1.88 0 1 0 -3.76 0zM1115.62 397.5 a1.88 1.88 0 1 0 3.76 0 a1.88 1.88 0 1 0 -3.76 0zM1145.62 427.5 a1.88 1.88 0 1 0 3.76 0 a1.88 1.88 0 1 0 -3.76 0zM1145.62 367.5 a1.88 1.88 0 1 0 3.76 0 a1.88 1.88 0 1 0 -3.76 0zM1160.62 277.5 a1.88 1.88 0 1 0 3.76 0 a1.88 1.88 0 1 0 -3.76 0zM1130.62 607.5 a1.88 1.88 0 1 0 3.76 0 a1.88 1.88 0 1 0 -3.76 0z" fill="black"></path><path d="M335.62 67.5 a1.88 1.88 0 1 0 3.76 0 a1.88 1.88 0 1 0 -3.76 0zM305.62 397.5 a1.88 1.88 0 1 0 3.76 0 a1.88 1.88 0 1 0 -3.76 0zM320.62 82.5 a1.88 1.88 0 1 0 3.76 0 a1.88 1.88 0 1 0 -3.76 0zM305.62 307.5 a1.88 1.88 0 1 0 3.76 0 a1.88 1.88 0 1 0 -3.76 0zM305.62 37.5 a1.88 1.88 0 1 0 3.76 0 a1.88 1.88 0 1 0 -3.76 0zM320.62 172.5 a1.88 1.88 0 1 0 3.76 0 a1.88 1.88 0 1 0 -3.76 0zM320.62 427.5 a1.88 1.88 0 1 0 3.76 0 a1.88 1.88 0 1 0 -3.76 0zM305.62 247.5 a1.88 1.88 0 1 0 3.76 0 a1.88 1.88 0 1 0 -3.76 0zM305.62 157.5 a1.88 1.88 0 1 0 3.76 0 a1.88 1.88 0 1 0 -3.76 0zM305.62 202.5 a1.88 1.88 0 1 0 3.76 0 a1.88 1.88 0 1 0 -3.76 0zM335.62 442.5 a1.88 1.88 0 1 0 3.76 0 a1.88 1.88 0 1 0 -3.76 0zM305.62 217.5 a1.88 1.88 0 1 0 3.76 0 a1.88 1.88 0 1 0 -3.76 0z" fill="black"></path><path d="M1085.62 697.5 a1.88 1.88 0 1 0 3.76 0 a1.88 1.88 0 1 0 -3.76 0zM1115.62 652.5 a1.88 1.88 0 1 0 3.76 0 a1.88 1.88 0 1 0 -3.76 0z" fill="black"></path><path d="M320.62 472.5 a1.88 1.88 0 1 0 3.76 0 a1.88 1.88 0 1 0 -3.76 0zM320.62 562.5 a1.88 1.88 0 1 0 3.76 0 a1.88 1.88 0 1 0 -3.76 0zM305.62 472.5 a1.88 1.88 0 1 0 3.76 0 a1.88 1.88 0 1 0 -3.76 0zM320.62 637.5 a1.88 1.88 0 1 0 3.76 0 a1.88 1.88 0 1 0 -3.76 0zM290.62 427.5 a1.88 1.88 0 1 0 3.76 0 a1.88 1.88 0 1 0 -3.76 0z" fill="black"></path></mask></defs></svg>