<svg xmlns="http://www.w3.org/2000/svg" version="1.1" xmlns:xlink="http://www.w3.org/1999/xlink" xmlns:svgjs="http://svgjs.com/svgjs" width="1440" height="1000" preserveAspectRatio="none" viewBox="0 0 1440 1000"><g mask="url(&quot;#SvgjsMask16624&quot;)" fill="none"><rect width="1440" height="1000" x="0" y="0" fill="url(#SvgjsLinearGradient16625)"></rect><circle r="83.33333333333333" cx="1333.4" cy="456.27" stroke="#e73635" stroke-width="1.95"></circle><path d="M1168.6599999999999 1038.27 L1223.78 873.05L1120.5330776441672 879.9730776441675z" stroke="rgba(60, 232, 157, 1)" stroke-width="1" stroke-dasharray="3, 2"></path><rect width="117.6" height="117.6" clip-path="url(&quot;#SvgjsClipPath16626&quot;)" x="428.96" y="751.56" fill="url(#SvgjsPattern16627)" transform="rotate(140.58, 487.76, 810.36)"></rect><rect width="648" height="648" clip-path="url(&quot;#SvgjsClipPath16628&quot;)" x="225.25" y="581.8" fill="url(#SvgjsPattern16629)" transform="rotate(139.22, 549.25, 905.8)"></rect><rect width="271.2" height="271.2" clip-path="url(&quot;#SvgjsClipPath16630&quot;)" x="858.13" y="-87.92" fill="url(#SvgjsPattern16631)" transform="rotate(305.04, 993.73, 47.68)"></rect><rect width="564" height="564" clip-path="url(&quot;#SvgjsClipPath16632&quot;)" x="-156.35" y="267.48" fill="url(#SvgjsPattern16633)" transform="rotate(96.29, 125.65, 549.48)"></rect><circle r="103.57021019137176" cx="991.47" cy="651.93" stroke="#d3b714" stroke-width="2.59" stroke-dasharray="2, 2"></circle></g><defs><mask id="SvgjsMask16624"><rect width="1440" height="1000" fill="#ffffff"></rect></mask><linearGradient x1="7.64%" y1="-11%" x2="92.36%" y2="111%" gradientUnits="userSpaceOnUse" id="SvgjsLinearGradient16625"><stop stop-color="rgba(0, 0, 0, 0.99)" offset="0"></stop><stop stop-color="rgba(0, 0, 0, 0.99)" offset="1"></stop></linearGradient><pattern x="0" y="0" width="11.76" height="11.76" patternUnits="userSpaceOnUse" id="SvgjsPattern16627"><path d="M0 11.76L5.88 0L11.76 11.76" stroke="rgba(60, 232, 157, 1)" fill="none"></path></pattern><clipPath id="SvgjsClipPath16626"><circle r="29.4" cx="487.76" cy="810.36"></circle></clipPath><pattern x="0" y="0" width="6" height="6" patternUnits="userSpaceOnUse" id="SvgjsPattern16629"><path d="M3 1L3 5M1 3L5 3" stroke="#e73635" fill="none" stroke-width="1"></path></pattern><clipPath id="SvgjsClipPath16628"><circle r="162" cx="549.25" cy="905.8"></circle></clipPath><pattern x="0" y="0" width="6.78" height="6.78" patternUnits="userSpaceOnUse" id="SvgjsPattern16631"><path d="M0 6.78L3.39 0L6.78 6.78" stroke="#d3b714" fill="none"></path></pattern><clipPath id="SvgjsClipPath16630"><circle r="67.8" cx="993.73" cy="47.68"></circle></clipPath><pattern x="0" y="0" width="6" height="6" patternUnits="userSpaceOnUse" id="SvgjsPattern16633"><path d="M3 1L3 5M1 3L5 3" stroke="#037b0b" fill="none" stroke-width="1.13"></path></pattern><clipPath id="SvgjsClipPath16632"><circle r="141" cx="125.65" cy="549.48"></circle></clipPath></defs></svg>