<svg xmlns="http://www.w3.org/2000/svg" version="1.1" xmlns:xlink="http://www.w3.org/1999/xlink" xmlns:svgjs="http://svgjs.com/svgjs" width="1440" height="560" preserveAspectRatio="none" viewBox="0 0 1440 560"><g mask="url(&quot;#SvgjsMask1545&quot;)" fill="none"><rect width="1440" height="560" x="0" y="0" fill="url(#SvgjsLinearGradient1546)"></rect><path d="M878.1 58.04 a10.1 10.1 0 1 0 20.2 0 a10.1 10.1 0 1 0 -20.2 0z" stroke="rgba(20, 19, 19, 1)"></path><path d="M1005.31 199.34L1019.62 199.34L1019.62 223.9L1005.31 223.9z" fill="rgba(20, 19, 19, 1)"></path><path d="M890.95 44.84L928.92 44.84L928.92 95.86L890.95 95.86z" fill="rgba(20, 19, 19, 1)"></path><path d="M1198.43 319.65L1233.54 319.65L1233.54 354.76L1198.43 354.76z" stroke="rgba(20, 19, 19, 1)"></path><path d="M398.02 354.24a47.15 47.15 0 1 0-26.59-90.47z" fill="rgba(20, 19, 19, 1)"></path><path d="M453.28 133.46 a44.89 44.89 0 1 0 89.78 0 a44.89 44.89 0 1 0 -89.78 0z" stroke="rgba(20, 19, 19, 1)"></path><path d="M-19.53 165.06 a51.27 51.27 0 1 0 102.54 0 a51.27 51.27 0 1 0 -102.54 0z" stroke="rgba(20, 19, 19, 1)"></path><path d="M1043.39 3.41L1079.49 3.41L1079.49 39.51L1043.39 39.51z" fill="rgba(20, 19, 19, 1)"></path><path d="M1370.58 39.01L1424.53 39.01L1424.53 92.96L1370.58 92.96z" fill="rgba(20, 19, 19, 1)"></path><path d="M1335.72 43.9 a45.17 45.17 0 1 0 90.34 0 a45.17 45.17 0 1 0 -90.34 0z" fill="rgba(20, 19, 19, 1)"></path><path d="M857.99 377.77a4.01 4.01 0 1 0-6.92 4.06z" stroke="rgba(20, 19, 19, 1)"></path><path d="M1341.24 231.05L1358.39 231.05L1358.39 248.2L1341.24 248.2z" stroke="rgba(20, 19, 19, 1)"></path><path d="M1329.04 81.98a48.5 48.5 0 1 0 13.11 96.11z" stroke="rgba(20, 19, 19, 1)"></path><path d="M670.64 123.96L676.51 123.96L676.51 159.18L670.64 159.18z" fill="rgba(20, 19, 19, 1)"></path><path d="M196.38 181.64 a39.31 39.31 0 1 0 78.62 0 a39.31 39.31 0 1 0 -78.62 0z" fill="rgba(20, 19, 19, 1)"></path><path d="M61.87 286.4L78.93 286.4L78.93 291.55L61.87 291.55z" fill="rgba(20, 19, 19, 1)"></path><path d="M1370.11 551.18L1400.22 551.18L1400.22 551.65L1370.11 551.65z" stroke="rgba(20, 19, 19, 1)"></path><path d="M619.37 470.19L666.24 470.19L666.24 517.06L619.37 517.06z" stroke="rgba(20, 19, 19, 1)"></path><path d="M1294.88 534.55a32.12 32.12 0 1 0-63.14-11.83z" fill="rgba(20, 19, 19, 1)"></path><path d="M929.24 13.49 a22.82 22.82 0 1 0 45.64 0 a22.82 22.82 0 1 0 -45.64 0z" stroke="rgba(20, 19, 19, 1)"></path><path d="M1349.64 342.56L1397.14 342.56L1397.14 363.24L1349.64 363.24z" stroke="rgba(20, 19, 19, 1)"></path><path d="M657.54 237.02a9.75 9.75 0 1 0 4.33-19.02z" stroke="rgba(20, 19, 19, 1)"></path><path d="M186.1 440.13 a6.72 6.72 0 1 0 13.44 0 a6.72 6.72 0 1 0 -13.44 0z" stroke="rgba(20, 19, 19, 1)"></path><path d="M566.96 23.77a1.55 1.55 0 1 0 0.59-3.05z" stroke="rgba(20, 19, 19, 1)"></path><path d="M1340.95 49.43 a6.62 6.62 0 1 0 13.24 0 a6.62 6.62 0 1 0 -13.24 0z" stroke="rgba(20, 19, 19, 1)"></path><path d="M1082.41 396.41L1116.2 396.41L1116.2 430.2L1082.41 430.2z" fill="rgba(20, 19, 19, 1)"></path><path d="M1164.72 421.57L1187.6 421.57L1187.6 442.47L1164.72 442.47z" fill="rgba(20, 19, 19, 1)"></path><path d="M63.46 11.99L107.13 11.99L107.13 58.18L63.46 58.18z" stroke="rgba(20, 19, 19, 1)"></path><path d="M112.31 458.99L162.13 458.99L162.13 491.06L112.31 491.06z" fill="rgba(20, 19, 19, 1)"></path><path d="M1047.68 194.06a9.2 9.2 0 1 0 18.38 0.9z" stroke="rgba(20, 19, 19, 1)"></path><path d="M1049.89 235.3L1086.93 235.3L1086.93 272.34L1049.89 272.34z" fill="rgba(20, 19, 19, 1)"></path><path d="M629.58 404.58L640.11 404.58L640.11 411.73L629.58 411.73z" fill="rgba(20, 19, 19, 1)"></path><path d="M630.82 88.53a23.86 23.86 0 1 0-31.71 35.65z" stroke="rgba(20, 19, 19, 1)"></path></g><defs><mask id="SvgjsMask1545"><rect width="1440" height="560" fill="#ffffff"></rect></mask><linearGradient x1="50%" y1="100%" x2="50%" y2="0%" gradientUnits="userSpaceOnUse" id="SvgjsLinearGradient1546"><stop stop-color="rgba(22, 22, 22, 1)" offset="0.2"></stop><stop stop-color="rgba(27, 27, 27, 1)" offset="1"></stop></linearGradient></defs></svg>