<svg xmlns="http://www.w3.org/2000/svg" version="1.1" xmlns:xlink="http://www.w3.org/1999/xlink" xmlns:svgjs="http://svgjs.com/svgjs" width="1440" height="560" preserveAspectRatio="none" viewBox="0 0 1440 560"><g mask="url(&quot;#SvgjsMask1012&quot;)" fill="none"><rect width="1440" height="560" x="0" y="0" fill="rgba(0, 0, 0, 1)"></rect><path d="M-58.29 343.82L-58.29 343.82" stroke="rgba(65, 172, 244, 1)" stroke-width="1.5"></path><path d="M-58.29 343.82L92.43 358.48" stroke="rgba(65, 172, 244, 1)" stroke-width="1.5"></path><path d="M-58.29 343.82L-59.47 508.72" stroke="rgba(65, 172, 244, 1)" stroke-width="1.5"></path><path d="M-59.47 508.72L-59.47 508.72" stroke="rgba(65, 172, 244, 1)" stroke-width="1.5"></path><path d="M-59.47 508.72L85.22 521.45" stroke="rgba(65, 172, 244, 1)" stroke-width="1.5"></path><path d="M-59.47 508.72L-51.98 697.94" stroke="rgba(65, 172, 244, 1)" stroke-width="1.5"></path><path d="M-59.47 508.72L56.78 685.84" stroke="rgba(65, 172, 244, 1)" stroke-width="1.5"></path><path d="M-59.47 508.72L92.43 358.48" stroke="rgba(65, 172, 244, 1)" stroke-width="1.5"></path><path d="M-51.98 697.94L-51.98 697.94" stroke="rgba(65, 172, 244, 1)" stroke-width="1.5"></path><path d="M-51.98 697.94L56.78 685.84" stroke="rgba(65, 172, 244, 1)" stroke-width="1.5"></path><path d="M-51.98 697.94L85.22 521.45" stroke="rgba(65, 172, 244, 1)" stroke-width="1.5"></path><path d="M-51.98 697.94L213.87 703.91" stroke="rgba(65, 172, 244, 1)" stroke-width="1.5"></path><path d="M-51.98 697.94L200.45 548.56" stroke="rgba(65, 172, 244, 1)" stroke-width="1.5"></path><path d="M92.43 358.48L92.43 358.48" stroke="rgba(65, 172, 244, 1)" stroke-width="1.5"></path><path d="M92.43 358.48L204.33 366.83" stroke="rgba(65, 172, 244, 1)" stroke-width="1.5"></path><path d="M85.22 521.45L85.22 521.45" stroke="rgba(65, 172, 244, 1)" stroke-width="1.5"></path><path d="M85.22 521.45L200.45 548.56" stroke="rgba(65, 172, 244, 1)" stroke-width="1.5"></path><path d="M85.22 521.45L92.43 358.48" stroke="rgba(65, 172, 244, 1)" stroke-width="1.5"></path><path d="M56.78 685.84L56.78 685.84" stroke="rgba(65, 172, 244, 1)" stroke-width="1.5"></path><path d="M56.78 685.84L213.87 703.91" stroke="rgba(65, 172, 244, 1)" stroke-width="1.5"></path><path d="M56.78 685.84L85.22 521.45" stroke="rgba(65, 172, 244, 1)" stroke-width="1.5"></path><path d="M56.78 685.84L200.45 548.56" stroke="rgba(65, 172, 244, 1)" stroke-width="1.5"></path><path d="M204.33 366.83L204.33 366.83" stroke="rgba(65, 172, 244, 1)" stroke-width="1.5"></path><path d="M204.33 366.83L200.45 548.56" stroke="rgba(65, 172, 244, 1)" stroke-width="1.5"></path><path d="M204.33 366.83L85.22 521.45" stroke="rgba(65, 172, 244, 1)" stroke-width="1.5"></path><path d="M204.33 366.83L371.71 495.16" stroke="rgba(65, 172, 244, 1)" stroke-width="1.5"></path><path d="M204.33 366.83L-58.29 343.82" stroke="rgba(65, 172, 244, 1)" stroke-width="1.5"></path><path d="M204.33 366.83L-59.47 508.72" stroke="rgba(65, 172, 244, 1)" stroke-width="1.5"></path><path d="M200.45 548.56L200.45 548.56" stroke="rgba(65, 172, 244, 1)" stroke-width="1.5"></path><path d="M200.45 548.56L213.87 703.91" stroke="rgba(65, 172, 244, 1)" stroke-width="1.5"></path><path d="M213.87 703.91L213.87 703.91" stroke="rgba(65, 172, 244, 1)" stroke-width="1.5"></path><path d="M213.87 703.91L406.46 712.11" stroke="rgba(65, 172, 244, 1)" stroke-width="1.5"></path><path d="M213.87 703.91L85.22 521.45" stroke="rgba(65, 172, 244, 1)" stroke-width="1.5"></path><path d="M213.87 703.91L371.71 495.16" stroke="rgba(65, 172, 244, 1)" stroke-width="1.5"></path><path d="M371.71 495.16L371.71 495.16" stroke="rgba(65, 172, 244, 1)" stroke-width="1.5"></path><path d="M371.71 495.16L200.45 548.56" stroke="rgba(65, 172, 244, 1)" stroke-width="1.5"></path><path d="M371.71 495.16L528.85 385.78" stroke="rgba(65, 172, 244, 1)" stroke-width="1.5"></path><path d="M406.46 712.11L406.46 712.11" stroke="rgba(65, 172, 244, 1)" stroke-width="1.5"></path><path d="M406.46 712.11L554.31 695.39" stroke="rgba(65, 172, 244, 1)" stroke-width="1.5"></path><path d="M528.85 385.78L528.85 385.78" stroke="rgba(65, 172, 244, 1)" stroke-width="1.5"></path><path d="M528.85 385.78L678.7 356.1" stroke="rgba(65, 172, 244, 1)" stroke-width="1.5"></path><path d="M528.85 385.78L662.58 500.94" stroke="rgba(65, 172, 244, 1)" stroke-width="1.5"></path><path d="M528.85 385.78L818.5 405.33" stroke="rgba(65, 172, 244, 1)" stroke-width="1.5"></path><path d="M528.85 385.78L803.41 250.14" stroke="rgba(65, 172, 244, 1)" stroke-width="1.5"></path><path d="M528.85 385.78L554.31 695.39" stroke="rgba(65, 172, 244, 1)" stroke-width="1.5"></path><path d="M554.31 695.39L554.31 695.39" stroke="rgba(65, 172, 244, 1)" stroke-width="1.5"></path><path d="M554.31 695.39L668.76 699.18" stroke="rgba(65, 172, 244, 1)" stroke-width="1.5"></path><path d="M554.31 695.39L662.58 500.94" stroke="rgba(65, 172, 244, 1)" stroke-width="1.5"></path><path d="M554.31 695.39L371.71 495.16" stroke="rgba(65, 172, 244, 1)" stroke-width="1.5"></path><path d="M554.31 695.39L845.76 685.47" stroke="rgba(65, 172, 244, 1)" stroke-width="1.5"></path><path d="M554.31 695.39L821.2 536.91" stroke="rgba(65, 172, 244, 1)" stroke-width="1.5"></path><path d="M678.7 356.1L678.7 356.1" stroke="rgba(65, 172, 244, 1)" stroke-width="1.5"></path><path d="M678.7 356.1L662.58 500.94" stroke="rgba(65, 172, 244, 1)" stroke-width="1.5"></path><path d="M678.7 356.1L818.5 405.33" stroke="rgba(65, 172, 244, 1)" stroke-width="1.5"></path><path d="M662.58 500.94L662.58 500.94" stroke="rgba(65, 172, 244, 1)" stroke-width="1.5"></path><path d="M662.58 500.94L821.2 536.91" stroke="rgba(65, 172, 244, 1)" stroke-width="1.5"></path><path d="M668.76 699.18L668.76 699.18" stroke="rgba(65, 172, 244, 1)" stroke-width="1.5"></path><path d="M668.76 699.18L845.76 685.47" stroke="rgba(65, 172, 244, 1)" stroke-width="1.5"></path><path d="M803.41 250.14L803.41 250.14" stroke="rgba(65, 172, 244, 1)" stroke-width="1.5"></path><path d="M803.41 250.14L818.5 405.33" stroke="rgba(65, 172, 244, 1)" stroke-width="1.5"></path><path d="M803.41 250.14L678.7 356.1" stroke="rgba(65, 172, 244, 1)" stroke-width="1.5"></path><path d="M803.41 250.14L1001.1 192.36" stroke="rgba(65, 172, 244, 1)" stroke-width="1.5"></path><path d="M803.41 250.14L971.8 389.48" stroke="rgba(65, 172, 244, 1)" stroke-width="1.5"></path><path d="M803.41 250.14L1006.08 49.2" stroke="rgba(65, 172, 244, 1)" stroke-width="1.5"></path><path d="M803.41 250.14L821.2 536.91" stroke="rgba(65, 172, 244, 1)" stroke-width="1.5"></path><path d="M818.5 405.33L818.5 405.33" stroke="rgba(65, 172, 244, 1)" stroke-width="1.5"></path><path d="M818.5 405.33L821.2 536.91" stroke="rgba(65, 172, 244, 1)" stroke-width="1.5"></path><path d="M818.5 405.33L971.8 389.48" stroke="rgba(65, 172, 244, 1)" stroke-width="1.5"></path><path d="M818.5 405.33L662.58 500.94" stroke="rgba(65, 172, 244, 1)" stroke-width="1.5"></path><path d="M818.5 405.33L966.51 531.02" stroke="rgba(65, 172, 244, 1)" stroke-width="1.5"></path><path d="M821.2 536.91L821.2 536.91" stroke="rgba(65, 172, 244, 1)" stroke-width="1.5"></path><path d="M821.2 536.91L966.51 531.02" stroke="rgba(65, 172, 244, 1)" stroke-width="1.5"></path><path d="M821.2 536.91L845.76 685.47" stroke="rgba(65, 172, 244, 1)" stroke-width="1.5"></path><path d="M845.76 685.47L845.76 685.47" stroke="rgba(65, 172, 244, 1)" stroke-width="1.5"></path><path d="M845.76 685.47L1000.09 685.6" stroke="rgba(65, 172, 244, 1)" stroke-width="1.5"></path><path d="M954.31 -75.22L954.31 -75.22" stroke="rgba(65, 172, 244, 1)" stroke-width="1.5"></path><path d="M954.31 -75.22L1006.08 49.2" stroke="rgba(65, 172, 244, 1)" stroke-width="1.5"></path><path d="M954.31 -75.22L1095 50.7" stroke="rgba(65, 172, 244, 1)" stroke-width="1.5"></path><path d="M1006.08 49.2L1006.08 49.2" stroke="rgba(65, 172, 244, 1)" stroke-width="1.5"></path><path d="M1006.08 49.2L1095 50.7" stroke="rgba(65, 172, 244, 1)" stroke-width="1.5"></path><path d="M1006.08 49.2L1001.1 192.36" stroke="rgba(65, 172, 244, 1)" stroke-width="1.5"></path><path d="M1006.08 49.2L1154.23 -92.92" stroke="rgba(65, 172, 244, 1)" stroke-width="1.5"></path><path d="M1001.1 192.36L1001.1 192.36" stroke="rgba(65, 172, 244, 1)" stroke-width="1.5"></path><path d="M1001.1 192.36L1133.32 218.83" stroke="rgba(65, 172, 244, 1)" stroke-width="1.5"></path><path d="M971.8 389.48L971.8 389.48" stroke="rgba(65, 172, 244, 1)" stroke-width="1.5"></path><path d="M971.8 389.48L1106.83 368.25" stroke="rgba(65, 172, 244, 1)" stroke-width="1.5"></path><path d="M971.8 389.48L966.51 531.02" stroke="rgba(65, 172, 244, 1)" stroke-width="1.5"></path><path d="M971.8 389.48L1001.1 192.36" stroke="rgba(65, 172, 244, 1)" stroke-width="1.5"></path><path d="M971.8 389.48L1146.09 490.25" stroke="rgba(65, 172, 244, 1)" stroke-width="1.5"></path><path d="M971.8 389.48L821.2 536.91" stroke="rgba(65, 172, 244, 1)" stroke-width="1.5"></path><path d="M966.51 531.02L966.51 531.02" stroke="rgba(65, 172, 244, 1)" stroke-width="1.5"></path><path d="M966.51 531.02L1000.09 685.6" stroke="rgba(65, 172, 244, 1)" stroke-width="1.5"></path><path d="M1000.09 685.6L1000.09 685.6" stroke="rgba(65, 172, 244, 1)" stroke-width="1.5"></path><path d="M1000.09 685.6L1121.25 659.68" stroke="rgba(65, 172, 244, 1)" stroke-width="1.5"></path><path d="M1154.23 -92.92L1154.23 -92.92" stroke="rgba(65, 172, 244, 1)" stroke-width="1.5"></path><path d="M1154.23 -92.92L1239.52 -104.52" stroke="rgba(65, 172, 244, 1)" stroke-width="1.5"></path><path d="M1154.23 -92.92L1095 50.7" stroke="rgba(65, 172, 244, 1)" stroke-width="1.5"></path><path d="M1154.23 -92.92L954.31 -75.22" stroke="rgba(65, 172, 244, 1)" stroke-width="1.5"></path><path d="M1154.23 -92.92L1311.23 109.31" stroke="rgba(65, 172, 244, 1)" stroke-width="1.5"></path><path d="M1154.23 -92.92L1420.56 -81.64" stroke="rgba(65, 172, 244, 1)" stroke-width="1.5"></path><path d="M1095 50.7L1095 50.7" stroke="rgba(65, 172, 244, 1)" stroke-width="1.5"></path><path d="M1095 50.7L1001.1 192.36" stroke="rgba(65, 172, 244, 1)" stroke-width="1.5"></path><path d="M1133.32 218.83L1133.32 218.83" stroke="rgba(65, 172, 244, 1)" stroke-width="1.5"></path><path d="M1133.32 218.83L1280.36 252.16" stroke="rgba(65, 172, 244, 1)" stroke-width="1.5"></path><path d="M1106.83 368.25L1106.83 368.25" stroke="rgba(65, 172, 244, 1)" stroke-width="1.5"></path><path d="M1106.83 368.25L1146.09 490.25" stroke="rgba(65, 172, 244, 1)" stroke-width="1.5"></path><path d="M1106.83 368.25L1133.32 218.83" stroke="rgba(65, 172, 244, 1)" stroke-width="1.5"></path><path d="M1106.83 368.25L1287.91 371.51" stroke="rgba(65, 172, 244, 1)" stroke-width="1.5"></path><path d="M1146.09 490.25L1146.09 490.25" stroke="rgba(65, 172, 244, 1)" stroke-width="1.5"></path><path d="M1146.09 490.25L1299.95 488" stroke="rgba(65, 172, 244, 1)" stroke-width="1.5"></path><path d="M1146.09 490.25L1121.25 659.68" stroke="rgba(65, 172, 244, 1)" stroke-width="1.5"></path><path d="M1121.25 659.68L1121.25 659.68" stroke="rgba(65, 172, 244, 1)" stroke-width="1.5"></path><path d="M1121.25 659.68L1271.07 678.55" stroke="rgba(65, 172, 244, 1)" stroke-width="1.5"></path><path d="M1121.25 659.68L966.51 531.02" stroke="rgba(65, 172, 244, 1)" stroke-width="1.5"></path><path d="M1121.25 659.68L1299.95 488" stroke="rgba(65, 172, 244, 1)" stroke-width="1.5"></path><path d="M1121.25 659.68L845.76 685.47" stroke="rgba(65, 172, 244, 1)" stroke-width="1.5"></path><path d="M1239.52 -104.52L1239.52 -104.52" stroke="rgba(65, 172, 244, 1)" stroke-width="1.5"></path><path d="M1239.52 -104.52L1420.56 -81.64" stroke="rgba(65, 172, 244, 1)" stroke-width="1.5"></path><path d="M1239.52 -104.52L1095 50.7" stroke="rgba(65, 172, 244, 1)" stroke-width="1.5"></path><path d="M1239.52 -104.52L1311.23 109.31" stroke="rgba(65, 172, 244, 1)" stroke-width="1.5"></path><path d="M1239.52 -104.52L1006.08 49.2" stroke="rgba(65, 172, 244, 1)" stroke-width="1.5"></path><path d="M1239.52 -104.52L954.31 -75.22" stroke="rgba(65, 172, 244, 1)" stroke-width="1.5"></path><path d="M1311.23 109.31L1311.23 109.31" stroke="rgba(65, 172, 244, 1)" stroke-width="1.5"></path><path d="M1311.23 109.31L1452.92 99.67" stroke="rgba(65, 172, 244, 1)" stroke-width="1.5"></path><path d="M1311.23 109.31L1280.36 252.16" stroke="rgba(65, 172, 244, 1)" stroke-width="1.5"></path><path d="M1311.23 109.31L1133.32 218.83" stroke="rgba(65, 172, 244, 1)" stroke-width="1.5"></path><path d="M1311.23 109.31L1420.56 -81.64" stroke="rgba(65, 172, 244, 1)" stroke-width="1.5"></path><path d="M1311.23 109.31L1095 50.7" stroke="rgba(65, 172, 244, 1)" stroke-width="1.5"></path><path d="M1280.36 252.16L1280.36 252.16" stroke="rgba(65, 172, 244, 1)" stroke-width="1.5"></path><path d="M1280.36 252.16L1287.91 371.51" stroke="rgba(65, 172, 244, 1)" stroke-width="1.5"></path><path d="M1280.36 252.16L1389.81 362.41" stroke="rgba(65, 172, 244, 1)" stroke-width="1.5"></path><path d="M1287.91 371.51L1287.91 371.51" stroke="rgba(65, 172, 244, 1)" stroke-width="1.5"></path><path d="M1287.91 371.51L1389.81 362.41" stroke="rgba(65, 172, 244, 1)" stroke-width="1.5"></path><path d="M1287.91 371.51L1299.95 488" stroke="rgba(65, 172, 244, 1)" stroke-width="1.5"></path><path d="M1299.95 488L1299.95 488" stroke="rgba(65, 172, 244, 1)" stroke-width="1.5"></path><path d="M1299.95 488L1414.06 531.46" stroke="rgba(65, 172, 244, 1)" stroke-width="1.5"></path><path d="M1271.07 678.55L1271.07 678.55" stroke="rgba(65, 172, 244, 1)" stroke-width="1.5"></path><path d="M1271.07 678.55L1445.78 676.71" stroke="rgba(65, 172, 244, 1)" stroke-width="1.5"></path><path d="M1271.07 678.55L1299.95 488" stroke="rgba(65, 172, 244, 1)" stroke-width="1.5"></path><path d="M1271.07 678.55L1414.06 531.46" stroke="rgba(65, 172, 244, 1)" stroke-width="1.5"></path><path d="M1271.07 678.55L1146.09 490.25" stroke="rgba(65, 172, 244, 1)" stroke-width="1.5"></path><path d="M1271.07 678.55L1000.09 685.6" stroke="rgba(65, 172, 244, 1)" stroke-width="1.5"></path><path d="M1420.56 -81.64L1420.56 -81.64" stroke="rgba(65, 172, 244, 1)" stroke-width="1.5"></path><path d="M1420.56 -81.64L1586.57 -103.59" stroke="rgba(65, 172, 244, 1)" stroke-width="1.5"></path><path d="M1420.56 -81.64L1452.92 99.67" stroke="rgba(65, 172, 244, 1)" stroke-width="1.5"></path><path d="M1420.56 -81.64L1560.98 81.01" stroke="rgba(65, 172, 244, 1)" stroke-width="1.5"></path><path d="M1452.92 99.67L1452.92 99.67" stroke="rgba(65, 172, 244, 1)" stroke-width="1.5"></path><path d="M1452.92 99.67L1560.98 81.01" stroke="rgba(65, 172, 244, 1)" stroke-width="1.5"></path><path d="M1389.81 362.41L1389.81 362.41" stroke="rgba(65, 172, 244, 1)" stroke-width="1.5"></path><path d="M1389.81 362.41L1541.83 386.92" stroke="rgba(65, 172, 244, 1)" stroke-width="1.5"></path><path d="M1389.81 362.41L1299.95 488" stroke="rgba(65, 172, 244, 1)" stroke-width="1.5"></path><path d="M1389.81 362.41L1414.06 531.46" stroke="rgba(65, 172, 244, 1)" stroke-width="1.5"></path><path d="M1389.81 362.41L1311.23 109.31" stroke="rgba(65, 172, 244, 1)" stroke-width="1.5"></path><path d="M1414.06 531.46L1414.06 531.46" stroke="rgba(65, 172, 244, 1)" stroke-width="1.5"></path><path d="M1414.06 531.46L1445.78 676.71" stroke="rgba(65, 172, 244, 1)" stroke-width="1.5"></path><path d="M1414.06 531.46L1541.83 386.92" stroke="rgba(65, 172, 244, 1)" stroke-width="1.5"></path><path d="M1414.06 531.46L1562.27 669.93" stroke="rgba(65, 172, 244, 1)" stroke-width="1.5"></path><path d="M1414.06 531.46L1287.91 371.51" stroke="rgba(65, 172, 244, 1)" stroke-width="1.5"></path><path d="M1445.78 676.71L1445.78 676.71" stroke="rgba(65, 172, 244, 1)" stroke-width="1.5"></path><path d="M1445.78 676.71L1562.27 669.93" stroke="rgba(65, 172, 244, 1)" stroke-width="1.5"></path><path d="M1445.78 676.71L1299.95 488" stroke="rgba(65, 172, 244, 1)" stroke-width="1.5"></path><path d="M1586.57 -103.59L1586.57 -103.59" stroke="rgba(65, 172, 244, 1)" stroke-width="1.5"></path><path d="M1586.57 -103.59L1560.98 81.01" stroke="rgba(65, 172, 244, 1)" stroke-width="1.5"></path><path d="M1586.57 -103.59L1452.92 99.67" stroke="rgba(65, 172, 244, 1)" stroke-width="1.5"></path><path d="M1586.57 -103.59L1239.52 -104.52" stroke="rgba(65, 172, 244, 1)" stroke-width="1.5"></path><path d="M1586.57 -103.59L1311.23 109.31" stroke="rgba(65, 172, 244, 1)" stroke-width="1.5"></path><path d="M1586.57 -103.59L1154.23 -92.92" stroke="rgba(65, 172, 244, 1)" stroke-width="1.5"></path><path d="M1560.98 81.01L1560.98 81.01" stroke="rgba(65, 172, 244, 1)" stroke-width="1.5"></path><path d="M1560.98 81.01L1311.23 109.31" stroke="rgba(65, 172, 244, 1)" stroke-width="1.5"></path><path d="M1560.98 81.01L1541.83 386.92" stroke="rgba(65, 172, 244, 1)" stroke-width="1.5"></path><path d="M1541.83 386.92L1541.83 386.92" stroke="rgba(65, 172, 244, 1)" stroke-width="1.5"></path><path d="M1541.83 386.92L1287.91 371.51" stroke="rgba(65, 172, 244, 1)" stroke-width="1.5"></path><path d="M1541.83 386.92L1299.95 488" stroke="rgba(65, 172, 244, 1)" stroke-width="1.5"></path><path d="M1562.27 669.93L1562.27 669.93" stroke="rgba(65, 172, 244, 1)" stroke-width="1.5"></path><circle r="5" cx="-58.29" cy="343.82" fill="rgba(65, 172, 244, 1)"></circle><circle r="5" cx="-59.47" cy="508.72" fill="rgba(65, 172, 244, 1)"></circle><circle r="5" cx="-51.98" cy="697.94" fill="rgba(65, 172, 244, 1)"></circle><circle r="5" cx="92.43" cy="358.48" fill="rgba(65, 172, 244, 1)"></circle><circle r="5" cx="85.22" cy="521.45" fill="rgba(65, 172, 244, 1)"></circle><circle r="5" cx="56.78" cy="685.84" fill="rgba(65, 172, 244, 1)"></circle><circle r="5" cx="204.33" cy="366.83" fill="rgba(65, 172, 244, 1)"></circle><circle r="5" cx="200.45" cy="548.56" fill="rgba(65, 172, 244, 1)"></circle><circle r="5" cx="213.87" cy="703.91" fill="rgba(65, 172, 244, 1)"></circle><circle r="5" cx="371.71" cy="495.16" fill="rgba(65, 172, 244, 1)"></circle><circle r="5" cx="406.46" cy="712.11" fill="rgba(65, 172, 244, 1)"></circle><circle r="5" cx="528.85" cy="385.78" fill="rgba(65, 172, 244, 1)"></circle><circle r="5" cx="554.31" cy="695.39" fill="rgba(65, 172, 244, 1)"></circle><circle r="5" cx="678.7" cy="356.1" fill="rgba(65, 172, 244, 1)"></circle><circle r="5" cx="662.58" cy="500.94" fill="rgba(65, 172, 244, 1)"></circle><circle r="5" cx="668.76" cy="699.18" fill="rgba(65, 172, 244, 1)"></circle><circle r="5" cx="803.41" cy="250.14" fill="rgba(65, 172, 244, 1)"></circle><circle r="5" cx="818.5" cy="405.33" fill="rgba(65, 172, 244, 1)"></circle><circle r="5" cx="821.2" cy="536.91" fill="rgba(65, 172, 244, 1)"></circle><circle r="5" cx="845.76" cy="685.47" fill="rgba(65, 172, 244, 1)"></circle><circle r="5" cx="954.31" cy="-75.22" fill="rgba(65, 172, 244, 1)"></circle><circle r="5" cx="1006.08" cy="49.2" fill="rgba(65, 172, 244, 1)"></circle><circle r="5" cx="1001.1" cy="192.36" fill="rgba(65, 172, 244, 1)"></circle><circle r="5" cx="971.8" cy="389.48" fill="rgba(65, 172, 244, 1)"></circle><circle r="5" cx="966.51" cy="531.02" fill="rgba(65, 172, 244, 1)"></circle><circle r="5" cx="1000.09" cy="685.6" fill="rgba(65, 172, 244, 1)"></circle><circle r="5" cx="1154.23" cy="-92.92" fill="rgba(65, 172, 244, 1)"></circle><circle r="5" cx="1095" cy="50.7" fill="rgba(65, 172, 244, 1)"></circle><circle r="5" cx="1133.32" cy="218.83" fill="rgba(65, 172, 244, 1)"></circle><circle r="5" cx="1106.83" cy="368.25" fill="rgba(65, 172, 244, 1)"></circle><circle r="5" cx="1146.09" cy="490.25" fill="rgba(65, 172, 244, 1)"></circle><circle r="5" cx="1121.25" cy="659.68" fill="rgba(65, 172, 244, 1)"></circle><circle r="5" cx="1239.52" cy="-104.52" fill="rgba(65, 172, 244, 1)"></circle><circle r="5" cx="1311.23" cy="109.31" fill="rgba(65, 172, 244, 1)"></circle><circle r="5" cx="1280.36" cy="252.16" fill="rgba(65, 172, 244, 1)"></circle><circle r="5" cx="1287.91" cy="371.51" fill="rgba(65, 172, 244, 1)"></circle><circle r="5" cx="1299.95" cy="488" fill="rgba(65, 172, 244, 1)"></circle><circle r="5" cx="1271.07" cy="678.55" fill="rgba(65, 172, 244, 1)"></circle><circle r="5" cx="1420.56" cy="-81.64" fill="rgba(65, 172, 244, 1)"></circle><circle r="5" cx="1452.92" cy="99.67" fill="rgba(65, 172, 244, 1)"></circle><circle r="5" cx="1389.81" cy="362.41" fill="rgba(65, 172, 244, 1)"></circle><circle r="5" cx="1414.06" cy="531.46" fill="rgba(65, 172, 244, 1)"></circle><circle r="5" cx="1445.78" cy="676.71" fill="rgba(65, 172, 244, 1)"></circle><circle r="5" cx="1586.57" cy="-103.59" fill="rgba(65, 172, 244, 1)"></circle><circle r="5" cx="1560.98" cy="81.01" fill="rgba(65, 172, 244, 1)"></circle><circle r="5" cx="1541.83" cy="386.92" fill="rgba(65, 172, 244, 1)"></circle><circle r="5" cx="1562.27" cy="669.93" fill="rgba(65, 172, 244, 1)"></circle><path d="M-79.44 547.76L-79.44 547.76" stroke="hsl(184.29999999999995, 74%, 77%)" stroke-width="1.5"></path><path d="M-79.44 547.76L72.3 549.7" stroke="hsl(184.29999999999995, 74%, 77%)" stroke-width="1.5"></path><path d="M-79.44 547.76L87.83 649.32" stroke="hsl(184.29999999999995, 74%, 77%)" stroke-width="1.5"></path><path d="M-79.44 547.76L207.37 705.17" stroke="hsl(184.29999999999995, 74%, 77%)" stroke-width="1.5"></path><path d="M252.74 528.41L252.74 528.41" stroke="hsl(184.29999999999995, 74%, 77%)" stroke-width="1.5"></path><path d="M252.74 528.41L403.44 559.89" stroke="hsl(184.29999999999995, 74%, 77%)" stroke-width="1.5"></path><path d="M252.74 528.41L72.3 549.7" stroke="hsl(184.29999999999995, 74%, 77%)" stroke-width="1.5"></path><path d="M252.74 528.41L207.37 705.17" stroke="hsl(184.29999999999995, 74%, 77%)" stroke-width="1.5"></path><path d="M252.74 528.41L87.83 649.32" stroke="hsl(184.29999999999995, 74%, 77%)" stroke-width="1.5"></path><path d="M521.12 696.43L521.12 696.43" stroke="hsl(184.29999999999995, 74%, 77%)" stroke-width="1.5"></path><path d="M521.12 696.43L389.9 698.74" stroke="hsl(184.29999999999995, 74%, 77%)" stroke-width="1.5"></path><path d="M521.12 696.43L553.48 534.41" stroke="hsl(184.29999999999995, 74%, 77%)" stroke-width="1.5"></path><path d="M521.12 696.43L699.83 690.06" stroke="hsl(184.29999999999995, 74%, 77%)" stroke-width="1.5"></path><path d="M521.12 696.43L403.44 559.89" stroke="hsl(184.29999999999995, 74%, 77%)" stroke-width="1.5"></path><path d="M521.12 696.43L688.59 559.62" stroke="hsl(184.29999999999995, 74%, 77%)" stroke-width="1.5"></path><path d="M521.12 696.43L818.14 694.09" stroke="hsl(184.29999999999995, 74%, 77%)" stroke-width="1.5"></path><path d="M1151.47 55.71L1151.47 55.71" stroke="hsl(184.29999999999995, 74%, 77%)" stroke-width="1.5"></path><path d="M1151.47 55.71L1258.36 55.61" stroke="hsl(184.29999999999995, 74%, 77%)" stroke-width="1.5"></path><path d="M1151.47 55.71L1259.05 -50.92" stroke="hsl(184.29999999999995, 74%, 77%)" stroke-width="1.5"></path><path d="M1258.36 55.61L1258.36 55.61" stroke="hsl(184.29999999999995, 74%, 77%)" stroke-width="1.5"></path><path d="M1258.36 55.61L1259.05 -50.92" stroke="hsl(184.29999999999995, 74%, 77%)" stroke-width="1.5"></path><path d="M1272.35 524.18L1272.35 524.18" stroke="hsl(184.29999999999995, 74%, 77%)" stroke-width="1.5"></path><path d="M1272.35 524.18L1158.97 558.22" stroke="hsl(184.29999999999995, 74%, 77%)" stroke-width="1.5"></path><path d="M1272.35 524.18L1270.87 666.19" stroke="hsl(184.29999999999995, 74%, 77%)" stroke-width="1.5"></path><path d="M1272.35 524.18L1413.37 543.56" stroke="hsl(184.29999999999995, 74%, 77%)" stroke-width="1.5"></path><path d="M1448.56 361.57L1448.56 361.57" stroke="hsl(184.29999999999995, 74%, 77%)" stroke-width="1.5"></path><path d="M1448.56 361.57L1560.92 363.77" stroke="hsl(184.29999999999995, 74%, 77%)" stroke-width="1.5"></path><path d="M1448.56 361.57L1304.73 369.73" stroke="hsl(184.29999999999995, 74%, 77%)" stroke-width="1.5"></path><path d="M1448.56 361.57L1399.17 214.69" stroke="hsl(184.29999999999995, 74%, 77%)" stroke-width="1.5"></path><path d="M1448.56 361.57L1413.37 543.56" stroke="hsl(184.29999999999995, 74%, 77%)" stroke-width="1.5"></path><path d="M1448.56 361.57L1566.94 524.15" stroke="hsl(184.29999999999995, 74%, 77%)" stroke-width="1.5"></path><path d="M1448.56 361.57L1609.53 228.91" stroke="hsl(184.29999999999995, 74%, 77%)" stroke-width="1.5"></path><path d="M1413.37 543.56L1413.37 543.56" stroke="hsl(184.29999999999995, 74%, 77%)" stroke-width="1.5"></path><path d="M1413.37 543.56L1566.94 524.15" stroke="hsl(184.29999999999995, 74%, 77%)" stroke-width="1.5"></path><path d="M1558.12 110.5L1558.12 110.5" stroke="hsl(184.29999999999995, 74%, 77%)" stroke-width="1.5"></path><path d="M1558.12 110.5L1609.53 228.91" stroke="hsl(184.29999999999995, 74%, 77%)" stroke-width="1.5"></path><path d="M1558.12 110.5L1399.17 214.69" stroke="hsl(184.29999999999995, 74%, 77%)" stroke-width="1.5"></path><path d="M1560.92 363.77L1560.92 363.77" stroke="hsl(184.29999999999995, 74%, 77%)" stroke-width="1.5"></path><path d="M1560.92 363.77L1609.53 228.91" stroke="hsl(184.29999999999995, 74%, 77%)" stroke-width="1.5"></path><path d="M72.3 549.7L72.3 549.7" stroke="hsl(184.29999999999995, 74%, 77%)" stroke-width="1.5"></path><path d="M72.3 549.7L87.83 649.32" stroke="hsl(184.29999999999995, 74%, 77%)" stroke-width="1.5"></path><path d="M72.3 549.7L207.37 705.17" stroke="hsl(184.29999999999995, 74%, 77%)" stroke-width="1.5"></path><path d="M72.3 549.7L403.44 559.89" stroke="hsl(184.29999999999995, 74%, 77%)" stroke-width="1.5"></path><path d="M72.3 549.7L389.9 698.74" stroke="hsl(184.29999999999995, 74%, 77%)" stroke-width="1.5"></path><path d="M87.83 649.32L87.83 649.32" stroke="hsl(184.29999999999995, 74%, 77%)" stroke-width="1.5"></path><path d="M87.83 649.32L207.37 705.17" stroke="hsl(184.29999999999995, 74%, 77%)" stroke-width="1.5"></path><path d="M87.83 649.32L389.9 698.74" stroke="hsl(184.29999999999995, 74%, 77%)" stroke-width="1.5"></path><path d="M207.37 705.17L207.37 705.17" stroke="hsl(184.29999999999995, 74%, 77%)" stroke-width="1.5"></path><path d="M207.37 705.17L389.9 698.74" stroke="hsl(184.29999999999995, 74%, 77%)" stroke-width="1.5"></path><path d="M207.37 705.17L403.44 559.89" stroke="hsl(184.29999999999995, 74%, 77%)" stroke-width="1.5"></path><path d="M403.44 559.89L403.44 559.89" stroke="hsl(184.29999999999995, 74%, 77%)" stroke-width="1.5"></path><path d="M403.44 559.89L389.9 698.74" stroke="hsl(184.29999999999995, 74%, 77%)" stroke-width="1.5"></path><path d="M403.44 559.89L553.48 534.41" stroke="hsl(184.29999999999995, 74%, 77%)" stroke-width="1.5"></path><path d="M389.9 698.74L389.9 698.74" stroke="hsl(184.29999999999995, 74%, 77%)" stroke-width="1.5"></path><path d="M389.9 698.74L252.74 528.41" stroke="hsl(184.29999999999995, 74%, 77%)" stroke-width="1.5"></path><path d="M389.9 698.74L553.48 534.41" stroke="hsl(184.29999999999995, 74%, 77%)" stroke-width="1.5"></path><path d="M553.48 534.41L553.48 534.41" stroke="hsl(184.29999999999995, 74%, 77%)" stroke-width="1.5"></path><path d="M553.48 534.41L688.59 559.62" stroke="hsl(184.29999999999995, 74%, 77%)" stroke-width="1.5"></path><path d="M553.48 534.41L662.25 383.91" stroke="hsl(184.29999999999995, 74%, 77%)" stroke-width="1.5"></path><path d="M553.48 534.41L699.83 690.06" stroke="hsl(184.29999999999995, 74%, 77%)" stroke-width="1.5"></path><path d="M662.25 383.91L662.25 383.91" stroke="hsl(184.29999999999995, 74%, 77%)" stroke-width="1.5"></path><path d="M662.25 383.91L832.4 373.6" stroke="hsl(184.29999999999995, 74%, 77%)" stroke-width="1.5"></path><path d="M662.25 383.91L688.59 559.62" stroke="hsl(184.29999999999995, 74%, 77%)" stroke-width="1.5"></path><path d="M662.25 383.91L818.98 505.37" stroke="hsl(184.29999999999995, 74%, 77%)" stroke-width="1.5"></path><path d="M688.59 559.62L688.59 559.62" stroke="hsl(184.29999999999995, 74%, 77%)" stroke-width="1.5"></path><path d="M688.59 559.62L699.83 690.06" stroke="hsl(184.29999999999995, 74%, 77%)" stroke-width="1.5"></path><path d="M699.83 690.06L699.83 690.06" stroke="hsl(184.29999999999995, 74%, 77%)" stroke-width="1.5"></path><path d="M699.83 690.06L818.14 694.09" stroke="hsl(184.29999999999995, 74%, 77%)" stroke-width="1.5"></path><path d="M699.83 690.06L818.98 505.37" stroke="hsl(184.29999999999995, 74%, 77%)" stroke-width="1.5"></path><path d="M699.83 690.06L988.3 651.98" stroke="hsl(184.29999999999995, 74%, 77%)" stroke-width="1.5"></path><path d="M832.4 373.6L832.4 373.6" stroke="hsl(184.29999999999995, 74%, 77%)" stroke-width="1.5"></path><path d="M832.4 373.6L818.98 505.37" stroke="hsl(184.29999999999995, 74%, 77%)" stroke-width="1.5"></path><path d="M832.4 373.6L980.66 371.71" stroke="hsl(184.29999999999995, 74%, 77%)" stroke-width="1.5"></path><path d="M832.4 373.6L969.39 548.15" stroke="hsl(184.29999999999995, 74%, 77%)" stroke-width="1.5"></path><path d="M818.98 505.37L818.98 505.37" stroke="hsl(184.29999999999995, 74%, 77%)" stroke-width="1.5"></path><path d="M818.98 505.37L688.59 559.62" stroke="hsl(184.29999999999995, 74%, 77%)" stroke-width="1.5"></path><path d="M818.98 505.37L969.39 548.15" stroke="hsl(184.29999999999995, 74%, 77%)" stroke-width="1.5"></path><path d="M818.98 505.37L818.14 694.09" stroke="hsl(184.29999999999995, 74%, 77%)" stroke-width="1.5"></path><path d="M818.98 505.37L980.66 371.71" stroke="hsl(184.29999999999995, 74%, 77%)" stroke-width="1.5"></path><path d="M818.14 694.09L818.14 694.09" stroke="hsl(184.29999999999995, 74%, 77%)" stroke-width="1.5"></path><path d="M818.14 694.09L988.3 651.98" stroke="hsl(184.29999999999995, 74%, 77%)" stroke-width="1.5"></path><path d="M818.14 694.09L688.59 559.62" stroke="hsl(184.29999999999995, 74%, 77%)" stroke-width="1.5"></path><path d="M980.66 371.71L980.66 371.71" stroke="hsl(184.29999999999995, 74%, 77%)" stroke-width="1.5"></path><path d="M980.66 371.71L1092.51 378.25" stroke="hsl(184.29999999999995, 74%, 77%)" stroke-width="1.5"></path><path d="M980.66 371.71L969.39 548.15" stroke="hsl(184.29999999999995, 74%, 77%)" stroke-width="1.5"></path><path d="M969.39 548.15L969.39 548.15" stroke="hsl(184.29999999999995, 74%, 77%)" stroke-width="1.5"></path><path d="M969.39 548.15L988.3 651.98" stroke="hsl(184.29999999999995, 74%, 77%)" stroke-width="1.5"></path><path d="M969.39 548.15L1158.97 558.22" stroke="hsl(184.29999999999995, 74%, 77%)" stroke-width="1.5"></path><path d="M988.3 651.98L988.3 651.98" stroke="hsl(184.29999999999995, 74%, 77%)" stroke-width="1.5"></path><path d="M988.3 651.98L1133.23 701.96" stroke="hsl(184.29999999999995, 74%, 77%)" stroke-width="1.5"></path><path d="M1155.44 -97.57L1155.44 -97.57" stroke="hsl(184.29999999999995, 74%, 77%)" stroke-width="1.5"></path><path d="M1155.44 -97.57L1259.05 -50.92" stroke="hsl(184.29999999999995, 74%, 77%)" stroke-width="1.5"></path><path d="M1155.44 -97.57L1151.47 55.71" stroke="hsl(184.29999999999995, 74%, 77%)" stroke-width="1.5"></path><path d="M1155.44 -97.57L1258.36 55.61" stroke="hsl(184.29999999999995, 74%, 77%)" stroke-width="1.5"></path><path d="M1154.57 217.38L1154.57 217.38" stroke="hsl(184.29999999999995, 74%, 77%)" stroke-width="1.5"></path><path d="M1154.57 217.38L1247.9 193.73" stroke="hsl(184.29999999999995, 74%, 77%)" stroke-width="1.5"></path><path d="M1154.57 217.38L1151.47 55.71" stroke="hsl(184.29999999999995, 74%, 77%)" stroke-width="1.5"></path><path d="M1154.57 217.38L1092.51 378.25" stroke="hsl(184.29999999999995, 74%, 77%)" stroke-width="1.5"></path><path d="M1154.57 217.38L1258.36 55.61" stroke="hsl(184.29999999999995, 74%, 77%)" stroke-width="1.5"></path><path d="M1154.57 217.38L1304.73 369.73" stroke="hsl(184.29999999999995, 74%, 77%)" stroke-width="1.5"></path><path d="M1092.51 378.25L1092.51 378.25" stroke="hsl(184.29999999999995, 74%, 77%)" stroke-width="1.5"></path><path d="M1092.51 378.25L1158.97 558.22" stroke="hsl(184.29999999999995, 74%, 77%)" stroke-width="1.5"></path><path d="M1158.97 558.22L1158.97 558.22" stroke="hsl(184.29999999999995, 74%, 77%)" stroke-width="1.5"></path><path d="M1158.97 558.22L1133.23 701.96" stroke="hsl(184.29999999999995, 74%, 77%)" stroke-width="1.5"></path><path d="M1158.97 558.22L1270.87 666.19" stroke="hsl(184.29999999999995, 74%, 77%)" stroke-width="1.5"></path><path d="M1158.97 558.22L988.3 651.98" stroke="hsl(184.29999999999995, 74%, 77%)" stroke-width="1.5"></path><path d="M1133.23 701.96L1133.23 701.96" stroke="hsl(184.29999999999995, 74%, 77%)" stroke-width="1.5"></path><path d="M1133.23 701.96L1270.87 666.19" stroke="hsl(184.29999999999995, 74%, 77%)" stroke-width="1.5"></path><path d="M1133.23 701.96L969.39 548.15" stroke="hsl(184.29999999999995, 74%, 77%)" stroke-width="1.5"></path><path d="M1133.23 701.96L1272.35 524.18" stroke="hsl(184.29999999999995, 74%, 77%)" stroke-width="1.5"></path><path d="M1259.05 -50.92L1259.05 -50.92" stroke="hsl(184.29999999999995, 74%, 77%)" stroke-width="1.5"></path><path d="M1259.05 -50.92L1419.17 -91.46" stroke="hsl(184.29999999999995, 74%, 77%)" stroke-width="1.5"></path><path d="M1247.9 193.73L1247.9 193.73" stroke="hsl(184.29999999999995, 74%, 77%)" stroke-width="1.5"></path><path d="M1247.9 193.73L1258.36 55.61" stroke="hsl(184.29999999999995, 74%, 77%)" stroke-width="1.5"></path><path d="M1247.9 193.73L1399.17 214.69" stroke="hsl(184.29999999999995, 74%, 77%)" stroke-width="1.5"></path><path d="M1247.9 193.73L1151.47 55.71" stroke="hsl(184.29999999999995, 74%, 77%)" stroke-width="1.5"></path><path d="M1304.73 369.73L1304.73 369.73" stroke="hsl(184.29999999999995, 74%, 77%)" stroke-width="1.5"></path><path d="M1304.73 369.73L1272.35 524.18" stroke="hsl(184.29999999999995, 74%, 77%)" stroke-width="1.5"></path><path d="M1270.87 666.19L1270.87 666.19" stroke="hsl(184.29999999999995, 74%, 77%)" stroke-width="1.5"></path><path d="M1270.87 666.19L1413.37 543.56" stroke="hsl(184.29999999999995, 74%, 77%)" stroke-width="1.5"></path><path d="M1419.17 -91.46L1419.17 -91.46" stroke="hsl(184.29999999999995, 74%, 77%)" stroke-width="1.5"></path><path d="M1419.17 -91.46L1573.73 -110.75" stroke="hsl(184.29999999999995, 74%, 77%)" stroke-width="1.5"></path><path d="M1419.17 -91.46L1258.36 55.61" stroke="hsl(184.29999999999995, 74%, 77%)" stroke-width="1.5"></path><path d="M1419.17 -91.46L1558.12 110.5" stroke="hsl(184.29999999999995, 74%, 77%)" stroke-width="1.5"></path><path d="M1399.17 214.69L1399.17 214.69" stroke="hsl(184.29999999999995, 74%, 77%)" stroke-width="1.5"></path><path d="M1573.73 -110.75L1573.73 -110.75" stroke="hsl(184.29999999999995, 74%, 77%)" stroke-width="1.5"></path><path d="M1573.73 -110.75L1558.12 110.5" stroke="hsl(184.29999999999995, 74%, 77%)" stroke-width="1.5"></path><path d="M1573.73 -110.75L1259.05 -50.92" stroke="hsl(184.29999999999995, 74%, 77%)" stroke-width="1.5"></path><path d="M1573.73 -110.75L1609.53 228.91" stroke="hsl(184.29999999999995, 74%, 77%)" stroke-width="1.5"></path><path d="M1573.73 -110.75L1258.36 55.61" stroke="hsl(184.29999999999995, 74%, 77%)" stroke-width="1.5"></path><path d="M1573.73 -110.75L1399.17 214.69" stroke="hsl(184.29999999999995, 74%, 77%)" stroke-width="1.5"></path><path d="M1609.53 228.91L1609.53 228.91" stroke="hsl(184.29999999999995, 74%, 77%)" stroke-width="1.5"></path><path d="M1609.53 228.91L1399.17 214.69" stroke="hsl(184.29999999999995, 74%, 77%)" stroke-width="1.5"></path><path d="M1566.94 524.15L1566.94 524.15" stroke="hsl(184.29999999999995, 74%, 77%)" stroke-width="1.5"></path><path d="M1566.94 524.15L1576.71 638.65" stroke="hsl(184.29999999999995, 74%, 77%)" stroke-width="1.5"></path><path d="M1566.94 524.15L1560.92 363.77" stroke="hsl(184.29999999999995, 74%, 77%)" stroke-width="1.5"></path><path d="M1576.71 638.65L1576.71 638.65" stroke="hsl(184.29999999999995, 74%, 77%)" stroke-width="1.5"></path><path d="M1576.71 638.65L1413.37 543.56" stroke="hsl(184.29999999999995, 74%, 77%)" stroke-width="1.5"></path><path d="M1576.71 638.65L1560.92 363.77" stroke="hsl(184.29999999999995, 74%, 77%)" stroke-width="1.5"></path><circle r="25" cx="-79.44" cy="547.76" fill="url(#SvgjsRadialGradient1013)"></circle><circle r="25" cx="252.74" cy="528.41" fill="url(#SvgjsRadialGradient1013)"></circle><circle r="25" cx="521.12" cy="696.43" fill="url(#SvgjsRadialGradient1013)"></circle><circle r="25" cx="1151.47" cy="55.71" fill="url(#SvgjsRadialGradient1013)"></circle><circle r="25" cx="1258.36" cy="55.61" fill="url(#SvgjsRadialGradient1013)"></circle><circle r="25" cx="1272.35" cy="524.18" fill="url(#SvgjsRadialGradient1013)"></circle><circle r="25" cx="1448.56" cy="361.57" fill="url(#SvgjsRadialGradient1013)"></circle><circle r="25" cx="1413.37" cy="543.56" fill="url(#SvgjsRadialGradient1013)"></circle><circle r="25" cx="1558.12" cy="110.5" fill="url(#SvgjsRadialGradient1013)"></circle><circle r="25" cx="1560.92" cy="363.77" fill="url(#SvgjsRadialGradient1013)"></circle><circle r="5" cx="72.3" cy="549.7" fill="#a5ecf2"></circle><circle r="5" cx="87.83" cy="649.32" fill="#a5ecf2"></circle><circle r="5" cx="207.37" cy="705.17" fill="#a5ecf2"></circle><circle r="5" cx="403.44" cy="559.89" fill="#a5ecf2"></circle><circle r="5" cx="389.9" cy="698.74" fill="#a5ecf2"></circle><circle r="5" cx="553.48" cy="534.41" fill="#a5ecf2"></circle><circle r="5" cx="662.25" cy="383.91" fill="#a5ecf2"></circle><circle r="5" cx="688.59" cy="559.62" fill="#a5ecf2"></circle><circle r="5" cx="699.83" cy="690.06" fill="#a5ecf2"></circle><circle r="5" cx="832.4" cy="373.6" fill="#a5ecf2"></circle><circle r="5" cx="818.98" cy="505.37" fill="#a5ecf2"></circle><circle r="5" cx="818.14" cy="694.09" fill="#a5ecf2"></circle><circle r="5" cx="980.66" cy="371.71" fill="#a5ecf2"></circle><circle r="5" cx="969.39" cy="548.15" fill="#a5ecf2"></circle><circle r="5" cx="988.3" cy="651.98" fill="#a5ecf2"></circle><circle r="5" cx="1155.44" cy="-97.57" fill="#a5ecf2"></circle><circle r="5" cx="1154.57" cy="217.38" fill="#a5ecf2"></circle><circle r="5" cx="1092.51" cy="378.25" fill="#a5ecf2"></circle><circle r="5" cx="1158.97" cy="558.22" fill="#a5ecf2"></circle><circle r="5" cx="1133.23" cy="701.96" fill="#a5ecf2"></circle><circle r="5" cx="1259.05" cy="-50.92" fill="#a5ecf2"></circle><circle r="5" cx="1247.9" cy="193.73" fill="#a5ecf2"></circle><circle r="5" cx="1304.73" cy="369.73" fill="#a5ecf2"></circle><circle r="5" cx="1270.87" cy="666.19" fill="#a5ecf2"></circle><circle r="5" cx="1419.17" cy="-91.46" fill="#a5ecf2"></circle><circle r="5" cx="1399.17" cy="214.69" fill="#a5ecf2"></circle><circle r="5" cx="1573.73" cy="-110.75" fill="#a5ecf2"></circle><circle r="5" cx="1609.53" cy="228.91" fill="#a5ecf2"></circle><circle r="5" cx="1566.94" cy="524.15" fill="#a5ecf2"></circle><circle r="5" cx="1576.71" cy="638.65" fill="#a5ecf2"></circle></g><defs><mask id="SvgjsMask1012"><rect width="1440" height="560" fill="#ffffff"></rect></mask><radialGradient id="SvgjsRadialGradient1013"><stop stop-color="#ffffff" offset="0.1"></stop><stop stop-color="rgba(74, 217, 228, 1)" offset="0.2"></stop><stop stop-color="rgba(74, 217, 228, 0)" offset="1"></stop></radialGradient></defs></svg>