<svg xmlns="http://www.w3.org/2000/svg" version="1.1" xmlns:xlink="http://www.w3.org/1999/xlink" xmlns:svgjs="http://svgjs.com/svgjs" width="1440" height="560" preserveAspectRatio="none" viewBox="0 0 1440 560"><g mask="url(&quot;#SvgjsMask1024&quot;)" fill="none"><rect width="1440" height="560" x="0" y="0" fill="rgba(229, 241, 241, 1)"></rect><path d="M0,610.368C111.731,595.573,206.995,528.879,293.328,456.427C371.428,390.884,424.945,306.062,470.999,215.098C518.814,120.655,572.199,24.332,565.581,-81.318C558.716,-190.917,504.594,-291.946,433.971,-376.038C362.621,-460.995,266.822,-517.065,164.207,-559.239C52.015,-605.349,-66.089,-653.793,-185.126,-630.48C-308.689,-606.28,-417.152,-527.96,-496.142,-429.909C-573.58,-333.785,-603.133,-211.422,-621.102,-89.301C-639.12,33.155,-648.898,160.297,-599.695,273.871C-550.013,388.551,-456.888,480.178,-347.895,541.335C-242.66,600.384,-119.626,626.208,0,610.368" fill="#d6e9e9"></path><path d="M1440 1027.124C1526.491 1010.108 1554.938 900.077 1621.172 841.9100000000001 1674.422 795.146 1744.5 774.1990000000001 1789.934 719.81 1846.482 652.116 1917.5140000000001 580.03 1913.539 491.915 1909.539 403.252 1835.535 333.86699999999996 1769.8310000000001 274.2 1709.437 219.35500000000002 1636.402 177.017 1555.47 166.745 1480.607 157.243 1410.702 193.09699999999998 1340.066 219.65499999999997 1274.587 244.274 1213.152 272.437 1158.435 316.022 1093.493 367.751 1010.223 414.485 993.402 495.789 976.51 577.437 1036.15 652.824 1073.314 727.46 1109.248 799.624 1143.961 872.501 1206.384 923.514 1273.71 978.534 1354.687 1043.908 1440 1027.124" fill="#f4f9f9"></path></g><defs><mask id="SvgjsMask1024"><rect width="1440" height="560" fill="#ffffff"></rect></mask></defs></svg>